<?xml version="1.0" encoding="utf-8"?>
<svg xmlns="http://www.w3.org/2000/svg" xmlns:xlink="http://www.w3.org/1999/xlink" width="400" height="200" viewBox="0 0 1600 800">
<defs>
  <clipPath id="clip940">
    <rect x="0" y="0" width="1600" height="800"/>
  </clipPath>
</defs>
<path clip-path="url(#clip940)" d="
M0 800 L1600 800 L1600 0 L0 0  Z
  " fill="#ffffff" fill-rule="evenodd" fill-opacity="1"/>
<defs>
  <clipPath id="clip941">
    <rect x="320" y="0" width="1121" height="800"/>
  </clipPath>
</defs>
<path clip-path="url(#clip940)" d="
M319.105 651.7 L1552.76 651.7 L1552.76 47.2441 L319.105 47.2441  Z
  " fill="#ffffff" fill-rule="evenodd" fill-opacity="1"/>
<defs>
  <clipPath id="clip942">
    <rect x="319" y="47" width="1235" height="605"/>
  </clipPath>
</defs>
<polyline clip-path="url(#clip942)" style="stroke:#000000; stroke-linecap:round; stroke-linejoin:round; stroke-width:2; stroke-opacity:0.1; fill:none" points="
  473.311,651.7 473.311,47.2441 
  "/>
<polyline clip-path="url(#clip942)" style="stroke:#000000; stroke-linecap:round; stroke-linejoin:round; stroke-width:2; stroke-opacity:0.1; fill:none" points="
  781.724,651.7 781.724,47.2441 
  "/>
<polyline clip-path="url(#clip942)" style="stroke:#000000; stroke-linecap:round; stroke-linejoin:round; stroke-width:2; stroke-opacity:0.1; fill:none" points="
  1090.14,651.7 1090.14,47.2441 
  "/>
<polyline clip-path="url(#clip942)" style="stroke:#000000; stroke-linecap:round; stroke-linejoin:round; stroke-width:2; stroke-opacity:0.1; fill:none" points="
  1398.55,651.7 1398.55,47.2441 
  "/>
<polyline clip-path="url(#clip940)" style="stroke:#000000; stroke-linecap:round; stroke-linejoin:round; stroke-width:4; stroke-opacity:1; fill:none" points="
  319.105,651.7 1552.76,651.7 
  "/>
<polyline clip-path="url(#clip940)" style="stroke:#000000; stroke-linecap:round; stroke-linejoin:round; stroke-width:4; stroke-opacity:1; fill:none" points="
  473.311,651.7 473.311,632.802 
  "/>
<polyline clip-path="url(#clip940)" style="stroke:#000000; stroke-linecap:round; stroke-linejoin:round; stroke-width:4; stroke-opacity:1; fill:none" points="
  781.724,651.7 781.724,632.802 
  "/>
<polyline clip-path="url(#clip940)" style="stroke:#000000; stroke-linecap:round; stroke-linejoin:round; stroke-width:4; stroke-opacity:1; fill:none" points="
  1090.14,651.7 1090.14,632.802 
  "/>
<polyline clip-path="url(#clip940)" style="stroke:#000000; stroke-linecap:round; stroke-linejoin:round; stroke-width:4; stroke-opacity:1; fill:none" points="
  1398.55,651.7 1398.55,632.802 
  "/>
<path clip-path="url(#clip940)" d="M473.311 676.219 Q469.7 676.219 467.871 679.783 Q466.066 683.325 466.066 690.455 Q466.066 697.561 467.871 701.126 Q469.7 704.667 473.311 704.667 Q476.945 704.667 478.751 701.126 Q480.579 697.561 480.579 690.455 Q480.579 683.325 478.751 679.783 Q476.945 676.219 473.311 676.219 M473.311 672.515 Q479.121 672.515 482.177 677.121 Q485.255 681.705 485.255 690.455 Q485.255 699.181 482.177 703.788 Q479.121 708.371 473.311 708.371 Q467.501 708.371 464.422 703.788 Q461.367 699.181 461.367 690.455 Q461.367 681.705 464.422 677.121 Q467.501 672.515 473.311 672.515 Z" fill="#000000" fill-rule="evenodd" fill-opacity="1" /><path clip-path="url(#clip940)" d="M760.497 703.765 L776.816 703.765 L776.816 707.7 L754.872 707.7 L754.872 703.765 Q757.534 701.01 762.117 696.38 Q766.724 691.728 767.904 690.385 Q770.15 687.862 771.029 686.126 Q771.932 684.367 771.932 682.677 Q771.932 679.922 769.988 678.186 Q768.066 676.45 764.965 676.45 Q762.766 676.45 760.312 677.214 Q757.881 677.978 755.104 679.529 L755.104 674.807 Q757.928 673.672 760.381 673.094 Q762.835 672.515 764.872 672.515 Q770.242 672.515 773.437 675.2 Q776.631 677.885 776.631 682.376 Q776.631 684.506 775.821 686.427 Q775.034 688.325 772.928 690.918 Q772.349 691.589 769.247 694.806 Q766.145 698.001 760.497 703.765 Z" fill="#000000" fill-rule="evenodd" fill-opacity="1" /><path clip-path="url(#clip940)" d="M796.631 676.219 Q793.02 676.219 791.191 679.783 Q789.386 683.325 789.386 690.455 Q789.386 697.561 791.191 701.126 Q793.02 704.667 796.631 704.667 Q800.265 704.667 802.071 701.126 Q803.9 697.561 803.9 690.455 Q803.9 683.325 802.071 679.783 Q800.265 676.219 796.631 676.219 M796.631 672.515 Q802.441 672.515 805.497 677.121 Q808.576 681.705 808.576 690.455 Q808.576 699.181 805.497 703.788 Q802.441 708.371 796.631 708.371 Q790.821 708.371 787.742 703.788 Q784.687 699.181 784.687 690.455 Q784.687 681.705 787.742 677.121 Q790.821 672.515 796.631 672.515 Z" fill="#000000" fill-rule="evenodd" fill-opacity="1" /><path clip-path="url(#clip940)" d="M1078.31 677.214 L1066.5 695.663 L1078.31 695.663 L1078.31 677.214 M1077.08 673.14 L1082.96 673.14 L1082.96 695.663 L1087.89 695.663 L1087.89 699.552 L1082.96 699.552 L1082.96 707.7 L1078.31 707.7 L1078.31 699.552 L1062.71 699.552 L1062.71 695.038 L1077.08 673.14 Z" fill="#000000" fill-rule="evenodd" fill-opacity="1" /><path clip-path="url(#clip940)" d="M1105.62 676.219 Q1102.01 676.219 1100.18 679.783 Q1098.38 683.325 1098.38 690.455 Q1098.38 697.561 1100.18 701.126 Q1102.01 704.667 1105.62 704.667 Q1109.26 704.667 1111.06 701.126 Q1112.89 697.561 1112.89 690.455 Q1112.89 683.325 1111.06 679.783 Q1109.26 676.219 1105.62 676.219 M1105.62 672.515 Q1111.43 672.515 1114.49 677.121 Q1117.57 681.705 1117.57 690.455 Q1117.57 699.181 1114.49 703.788 Q1111.43 708.371 1105.62 708.371 Q1099.81 708.371 1096.73 703.788 Q1093.68 699.181 1093.68 690.455 Q1093.68 681.705 1096.73 677.121 Q1099.81 672.515 1105.62 672.515 Z" fill="#000000" fill-rule="evenodd" fill-opacity="1" /><path clip-path="url(#clip940)" d="M1383.95 688.556 Q1380.81 688.556 1378.95 690.709 Q1377.13 692.862 1377.13 696.612 Q1377.13 700.339 1378.95 702.515 Q1380.81 704.667 1383.95 704.667 Q1387.1 704.667 1388.93 702.515 Q1390.78 700.339 1390.78 696.612 Q1390.78 692.862 1388.93 690.709 Q1387.1 688.556 1383.95 688.556 M1393.24 673.904 L1393.24 678.163 Q1391.48 677.33 1389.67 676.89 Q1387.89 676.45 1386.13 676.45 Q1381.5 676.45 1379.05 679.575 Q1376.62 682.7 1376.27 689.019 Q1377.64 687.006 1379.7 685.941 Q1381.76 684.853 1384.23 684.853 Q1389.44 684.853 1392.45 688.024 Q1395.48 691.172 1395.48 696.612 Q1395.48 701.936 1392.33 705.154 Q1389.19 708.371 1383.95 708.371 Q1377.96 708.371 1374.79 703.788 Q1371.62 699.181 1371.62 690.455 Q1371.62 682.26 1375.51 677.399 Q1379.39 672.515 1385.95 672.515 Q1387.7 672.515 1389.49 672.862 Q1391.29 673.209 1393.24 673.904 Z" fill="#000000" fill-rule="evenodd" fill-opacity="1" /><path clip-path="url(#clip940)" d="M1413.54 676.219 Q1409.93 676.219 1408.1 679.783 Q1406.29 683.325 1406.29 690.455 Q1406.29 697.561 1408.1 701.126 Q1409.93 704.667 1413.54 704.667 Q1417.17 704.667 1418.98 701.126 Q1420.81 697.561 1420.81 690.455 Q1420.81 683.325 1418.98 679.783 Q1417.17 676.219 1413.54 676.219 M1413.54 672.515 Q1419.35 672.515 1422.4 677.121 Q1425.48 681.705 1425.48 690.455 Q1425.48 699.181 1422.4 703.788 Q1419.35 708.371 1413.54 708.371 Q1407.73 708.371 1404.65 703.788 Q1401.59 699.181 1401.59 690.455 Q1401.59 681.705 1404.65 677.121 Q1407.73 672.515 1413.54 672.515 Z" fill="#000000" fill-rule="evenodd" fill-opacity="1" /><path clip-path="url(#clip940)" d="M717.475 742.327 L717.475 779.28 L725.241 779.28 Q735.076 779.28 739.628 774.824 Q744.211 770.368 744.211 760.756 Q744.211 751.208 739.628 746.783 Q735.076 742.327 725.241 742.327 L717.475 742.327 M711.046 737.044 L724.255 737.044 Q738.068 737.044 744.529 742.805 Q750.991 748.534 750.991 760.756 Q750.991 773.042 744.498 778.803 Q738.005 784.564 724.255 784.564 L711.046 784.564 L711.046 737.044 Z" fill="#000000" fill-rule="evenodd" fill-opacity="1" /><path clip-path="url(#clip940)" d="M777.185 766.644 Q770.088 766.644 767.35 768.268 Q764.613 769.891 764.613 773.806 Q764.613 776.925 766.65 778.771 Q768.719 780.585 772.252 780.585 Q777.122 780.585 780.05 777.148 Q783.01 773.678 783.01 767.949 L783.01 766.644 L777.185 766.644 M788.866 764.225 L788.866 784.564 L783.01 784.564 L783.01 779.153 Q781.005 782.4 778.013 783.959 Q775.021 785.487 770.692 785.487 Q765.218 785.487 761.971 782.431 Q758.757 779.344 758.757 774.188 Q758.757 768.172 762.767 765.117 Q766.809 762.061 774.798 762.061 L783.01 762.061 L783.01 761.488 Q783.01 757.446 780.336 755.25 Q777.695 753.022 772.889 753.022 Q769.833 753.022 766.937 753.754 Q764.04 754.486 761.367 755.95 L761.367 750.539 Q764.581 749.298 767.605 748.693 Q770.629 748.057 773.493 748.057 Q781.228 748.057 785.047 752.067 Q788.866 756.077 788.866 764.225 Z" fill="#000000" fill-rule="evenodd" fill-opacity="1" /><path clip-path="url(#clip940)" d="M800.93 748.916 L806.786 748.916 L806.786 784.564 L800.93 784.564 L800.93 748.916 M800.93 735.039 L806.786 735.039 L806.786 742.455 L800.93 742.455 L800.93 735.039 Z" fill="#000000" fill-rule="evenodd" fill-opacity="1" /><path clip-path="url(#clip940)" d="M819.04 735.039 L824.896 735.039 L824.896 784.564 L819.04 784.564 L819.04 735.039 Z" fill="#000000" fill-rule="evenodd" fill-opacity="1" /><path clip-path="url(#clip940)" d="M851.982 787.874 Q849.5 794.24 847.145 796.181 Q844.789 798.123 840.842 798.123 L836.164 798.123 L836.164 793.221 L839.601 793.221 Q842.02 793.221 843.357 792.075 Q844.694 790.93 846.317 786.665 L847.367 783.991 L832.949 748.916 L839.156 748.916 L850.296 776.798 L861.436 748.916 L867.642 748.916 L851.982 787.874 Z" fill="#000000" fill-rule="evenodd" fill-opacity="1" /><path clip-path="url(#clip940)" d="M903.131 742.327 L903.131 779.28 L910.897 779.28 Q920.732 779.28 925.284 774.824 Q929.867 770.368 929.867 760.756 Q929.867 751.208 925.284 746.783 Q920.732 742.327 910.897 742.327 L903.131 742.327 M896.702 737.044 L909.91 737.044 Q923.724 737.044 930.185 742.805 Q936.646 748.534 936.646 760.756 Q936.646 773.042 930.153 778.803 Q923.66 784.564 909.91 784.564 L896.702 784.564 L896.702 737.044 Z" fill="#000000" fill-rule="evenodd" fill-opacity="1" /><path clip-path="url(#clip940)" d="M977.132 765.276 L977.132 768.14 L950.205 768.14 Q950.587 774.188 953.834 777.371 Q957.112 780.522 962.937 780.522 Q966.311 780.522 969.462 779.694 Q972.644 778.867 975.764 777.211 L975.764 782.75 Q972.613 784.086 969.302 784.787 Q965.992 785.487 962.587 785.487 Q954.057 785.487 949.06 780.522 Q944.094 775.556 944.094 767.09 Q944.094 758.337 948.805 753.213 Q953.547 748.057 961.568 748.057 Q968.761 748.057 972.931 752.703 Q977.132 757.319 977.132 765.276 M971.276 763.557 Q971.212 758.751 968.57 755.886 Q965.96 753.022 961.632 753.022 Q956.73 753.022 953.77 755.791 Q950.842 758.56 950.396 763.589 L971.276 763.557 Z" fill="#000000" fill-rule="evenodd" fill-opacity="1" /><path clip-path="url(#clip940)" d="M1014.5 755.759 Q1016.7 751.812 1019.75 749.934 Q1022.81 748.057 1026.94 748.057 Q1032.51 748.057 1035.54 751.971 Q1038.56 755.855 1038.56 763.048 L1038.56 784.564 L1032.67 784.564 L1032.67 763.239 Q1032.67 758.114 1030.86 755.632 Q1029.04 753.149 1025.32 753.149 Q1020.77 753.149 1018.13 756.173 Q1015.49 759.197 1015.49 764.416 L1015.49 784.564 L1009.6 784.564 L1009.6 763.239 Q1009.6 758.083 1007.78 755.632 Q1005.97 753.149 1002.18 753.149 Q997.694 753.149 995.052 756.205 Q992.41 759.228 992.41 764.416 L992.41 784.564 L986.522 784.564 L986.522 748.916 L992.41 748.916 L992.41 754.454 Q994.415 751.176 997.216 749.616 Q1000.02 748.057 1003.87 748.057 Q1007.75 748.057 1010.46 750.03 Q1013.19 752.003 1014.5 755.759 Z" fill="#000000" fill-rule="evenodd" fill-opacity="1" /><path clip-path="url(#clip940)" d="M1066.44 766.644 Q1059.35 766.644 1056.61 768.268 Q1053.87 769.891 1053.87 773.806 Q1053.87 776.925 1055.91 778.771 Q1057.98 780.585 1061.51 780.585 Q1066.38 780.585 1069.31 777.148 Q1072.27 773.678 1072.27 767.949 L1072.27 766.644 L1066.44 766.644 M1078.12 764.225 L1078.12 784.564 L1072.27 784.564 L1072.27 779.153 Q1070.26 782.4 1067.27 783.959 Q1064.28 785.487 1059.95 785.487 Q1054.48 785.487 1051.23 782.431 Q1048.01 779.344 1048.01 774.188 Q1048.01 768.172 1052.02 765.117 Q1056.07 762.061 1064.06 762.061 L1072.27 762.061 L1072.27 761.488 Q1072.27 757.446 1069.59 755.25 Q1066.95 753.022 1062.15 753.022 Q1059.09 753.022 1056.19 753.754 Q1053.3 754.486 1050.62 755.95 L1050.62 750.539 Q1053.84 749.298 1056.86 748.693 Q1059.89 748.057 1062.75 748.057 Q1070.49 748.057 1074.3 752.067 Q1078.12 756.077 1078.12 764.225 Z" fill="#000000" fill-rule="evenodd" fill-opacity="1" /><path clip-path="url(#clip940)" d="M1119.82 763.048 L1119.82 784.564 L1113.96 784.564 L1113.96 763.239 Q1113.96 758.178 1111.99 755.664 Q1110.02 753.149 1106.07 753.149 Q1101.33 753.149 1098.59 756.173 Q1095.85 759.197 1095.85 764.416 L1095.85 784.564 L1089.96 784.564 L1089.96 748.916 L1095.85 748.916 L1095.85 754.454 Q1097.95 751.239 1100.79 749.648 Q1103.65 748.057 1107.37 748.057 Q1113.52 748.057 1116.67 751.876 Q1119.82 755.664 1119.82 763.048 Z" fill="#000000" fill-rule="evenodd" fill-opacity="1" /><path clip-path="url(#clip940)" d="M1154.96 754.327 L1154.96 735.039 L1160.81 735.039 L1160.81 784.564 L1154.96 784.564 L1154.96 779.217 Q1153.11 782.4 1150.28 783.959 Q1147.48 785.487 1143.53 785.487 Q1137.07 785.487 1133 780.331 Q1128.95 775.174 1128.95 766.772 Q1128.95 758.369 1133 753.213 Q1137.07 748.057 1143.53 748.057 Q1147.48 748.057 1150.28 749.616 Q1153.11 751.144 1154.96 754.327 M1135 766.772 Q1135 773.233 1137.64 776.925 Q1140.32 780.585 1144.96 780.585 Q1149.61 780.585 1152.28 776.925 Q1154.96 773.233 1154.96 766.772 Q1154.96 760.311 1152.28 756.65 Q1149.61 752.958 1144.96 752.958 Q1140.32 752.958 1137.64 756.65 Q1135 760.311 1135 766.772 Z" fill="#000000" fill-rule="evenodd" fill-opacity="1" /><polyline clip-path="url(#clip940)" style="stroke:#000000; stroke-linecap:round; stroke-linejoin:round; stroke-width:4; stroke-opacity:1; fill:none" points="
  319.105,651.7 319.105,47.2441 
  "/>
<path clip-path="url(#clip940)" d="M209.329 507.628 L209.329 501.199 L251.438 501.199 L251.438 478.059 L256.849 478.059 L256.849 507.628 L209.329 507.628 Z" fill="#000000" fill-rule="evenodd" fill-opacity="1" /><path clip-path="url(#clip940)" d="M221.201 471.566 L221.201 465.71 L256.849 465.71 L256.849 471.566 L221.201 471.566 M207.323 471.566 L207.323 465.71 L214.739 465.71 L214.739 471.566 L207.323 471.566 Z" fill="#000000" fill-rule="evenodd" fill-opacity="1" /><path clip-path="url(#clip940)" d="M207.323 453.679 L207.323 447.79 L236.574 447.79 L221.201 430.316 L221.201 422.837 L237.879 441.743 L256.849 422.041 L256.849 429.68 L239.438 447.79 L256.849 447.79 L256.849 453.679 L207.323 453.679 Z" fill="#000000" fill-rule="evenodd" fill-opacity="1" /><path clip-path="url(#clip940)" d="M237.56 387.539 L240.425 387.539 L240.425 414.466 Q246.472 414.084 249.655 410.837 Q252.806 407.559 252.806 401.734 Q252.806 398.361 251.979 395.21 Q251.151 392.027 249.496 388.908 L255.034 388.908 Q256.371 392.059 257.071 395.369 Q257.772 398.679 257.772 402.085 Q257.772 410.615 252.806 415.612 Q247.841 420.577 239.375 420.577 Q230.622 420.577 225.497 415.866 Q220.341 411.124 220.341 403.103 Q220.341 395.91 224.988 391.74 Q229.603 387.539 237.56 387.539 M235.842 393.395 Q231.036 393.459 228.171 396.101 Q225.306 398.711 225.306 403.039 Q225.306 407.941 228.076 410.901 Q230.845 413.829 235.874 414.275 L235.842 393.395 Z" fill="#000000" fill-rule="evenodd" fill-opacity="1" /><path clip-path="url(#clip940)" d="M207.323 377.927 L207.323 372.07 L256.849 372.07 L256.849 377.927 L207.323 377.927 Z" fill="#000000" fill-rule="evenodd" fill-opacity="1" /><path clip-path="url(#clip940)" d="M221.201 359.816 L221.201 353.96 L256.849 353.96 L256.849 359.816 L221.201 359.816 M207.323 359.816 L207.323 353.96 L214.739 353.96 L214.739 359.816 L207.323 359.816 Z" fill="#000000" fill-rule="evenodd" fill-opacity="1" /><path clip-path="url(#clip940)" d="M235.332 312.073 L256.849 312.073 L256.849 317.93 L235.523 317.93 Q230.463 317.93 227.948 319.903 Q225.434 321.877 225.434 325.823 Q225.434 330.566 228.458 333.303 Q231.481 336.04 236.701 336.04 L256.849 336.04 L256.849 341.929 L207.323 341.929 L207.323 336.04 L226.739 336.04 Q223.524 333.94 221.933 331.107 Q220.341 328.242 220.341 324.518 Q220.341 318.375 224.161 315.224 Q227.948 312.073 235.332 312.073 Z" fill="#000000" fill-rule="evenodd" fill-opacity="1" /><path clip-path="url(#clip940)" d="M225.306 286.579 Q225.306 291.289 228.999 294.027 Q232.659 296.764 239.056 296.764 Q245.454 296.764 249.146 294.058 Q252.806 291.321 252.806 286.579 Q252.806 281.9 249.114 279.163 Q245.422 276.425 239.056 276.425 Q232.723 276.425 229.03 279.163 Q225.306 281.9 225.306 286.579 M220.341 286.579 Q220.341 278.94 225.306 274.579 Q230.272 270.219 239.056 270.219 Q247.809 270.219 252.806 274.579 Q257.772 278.94 257.772 286.579 Q257.772 294.249 252.806 298.61 Q247.809 302.939 239.056 302.939 Q230.272 302.939 225.306 298.61 Q220.341 294.249 220.341 286.579 Z" fill="#000000" fill-rule="evenodd" fill-opacity="1" /><path clip-path="url(#clip940)" d="M225.306 246.698 Q225.306 251.408 228.999 254.146 Q232.659 256.883 239.056 256.883 Q245.454 256.883 249.146 254.177 Q252.806 251.44 252.806 246.698 Q252.806 242.019 249.114 239.282 Q245.422 236.544 239.056 236.544 Q232.723 236.544 229.03 239.282 Q225.306 242.019 225.306 246.698 M220.341 246.698 Q220.341 239.059 225.306 234.698 Q230.272 230.338 239.056 230.338 Q247.809 230.338 252.806 234.698 Q257.772 239.059 257.772 246.698 Q257.772 254.368 252.806 258.729 Q247.809 263.058 239.056 263.058 Q230.272 263.058 225.306 258.729 Q220.341 254.368 220.341 246.698 Z" fill="#000000" fill-rule="evenodd" fill-opacity="1" /><path clip-path="url(#clip940)" d="M226.611 197.172 L207.323 197.172 L207.323 191.316 L256.849 191.316 L256.849 197.172 L251.501 197.172 Q254.684 199.018 256.244 201.851 Q257.772 204.652 257.772 208.599 Q257.772 215.06 252.615 219.134 Q247.459 223.176 239.056 223.176 Q230.654 223.176 225.497 219.134 Q220.341 215.06 220.341 208.599 Q220.341 204.652 221.901 201.851 Q223.429 199.018 226.611 197.172 M239.056 217.129 Q245.518 217.129 249.21 214.487 Q252.87 211.814 252.87 207.167 Q252.87 202.52 249.21 199.846 Q245.518 197.172 239.056 197.172 Q232.595 197.172 228.935 199.846 Q225.243 202.52 225.243 207.167 Q225.243 211.814 228.935 214.487 Q232.595 217.129 239.056 217.129 Z" fill="#000000" fill-rule="evenodd" fill-opacity="1" /><path clip-path="url(#clip942)" d="
M473.311 64.3513 L488.732 64.3513 L504.152 64.3513 L519.573 64.3513 L534.994 64.3513 L550.414 64.3513 L565.835 64.3513 L581.255 64.3513 L596.676 64.3513 L612.097 64.3513 
  L627.517 64.3513 L642.938 64.3513 L658.359 64.3513 L673.779 64.3513 L689.2 64.3513 L704.621 64.3513 L720.041 64.3513 L735.462 64.3513 L750.883 64.3513 L766.303 64.3513 
  L781.724 64.3513 L797.144 64.3513 L812.565 64.3513 L827.986 64.3513 L843.406 64.3513 L858.827 64.3513 L874.248 64.3513 L889.668 64.3513 L905.089 64.3513 L920.51 64.3513 
  L935.93 64.3513 L951.351 64.3513 L966.772 64.3513 L982.192 64.3513 L997.613 64.3513 L1013.03 64.3513 L1028.45 64.3513 L1043.87 64.3513 L1059.3 64.3513 L1074.72 64.3513 
  L1090.14 64.3513 L1105.56 64.3513 L1120.98 64.3513 L1136.4 64.3513 L1151.82 64.3513 L1167.24 64.3513 L1182.66 64.3513 L1198.08 64.3513 L1213.5 64.3513 L1228.92 64.3513 
  L1244.34 64.3513 L1259.76 64.3513 L1275.18 64.3513 L1290.6 64.3513 L1306.03 64.3513 L1321.45 64.3513 L1336.87 64.3513 L1352.29 64.3513 L1367.71 64.3513 L1383.13 64.3513 
  L1398.55 64.3513 L1398.55 634.593 L1383.13 634.593 L1367.71 634.593 L1352.29 634.593 L1336.87 634.593 L1321.45 634.593 L1306.03 634.593 L1290.6 634.593 L1275.18 634.593 
  L1259.76 634.593 L1244.34 634.593 L1228.92 634.593 L1213.5 634.593 L1198.08 634.593 L1182.66 634.593 L1167.24 634.593 L1151.82 634.593 L1136.4 634.593 L1120.98 634.593 
  L1105.56 634.593 L1090.14 634.593 L1074.72 634.593 L1059.3 634.593 L1043.87 634.593 L1028.45 634.593 L1013.03 634.593 L997.613 634.593 L982.192 634.593 L966.772 634.593 
  L951.351 634.593 L935.93 634.593 L920.51 634.593 L905.089 634.593 L889.668 634.593 L874.248 634.593 L858.827 634.593 L843.406 634.593 L827.986 634.593 L812.565 634.593 
  L797.144 634.593 L781.724 634.593 L766.303 634.593 L750.883 634.593 L735.462 634.593 L720.041 634.593 L704.621 634.593 L689.2 634.593 L673.779 634.593 L658.359 634.593 
  L642.938 634.593 L627.517 634.593 L612.097 634.593 L596.676 634.593 L581.255 634.593 L565.835 634.593 L550.414 634.593 L534.994 634.593 L519.573 634.593 L504.152 634.593 
  L488.732 634.593 L473.311 634.593  Z
  " fill="#009af9" fill-rule="evenodd" fill-opacity="0.81"/>
<polyline clip-path="url(#clip942)" style="stroke:#009af9; stroke-linecap:round; stroke-linejoin:round; stroke-width:0; stroke-opacity:1; fill:none" points="
  473.311,64.3513 488.732,64.3513 504.152,64.3513 519.573,64.3513 534.994,64.3513 550.414,64.3513 565.835,64.3513 581.255,64.3513 596.676,64.3513 612.097,64.3513 
  627.517,64.3513 642.938,64.3513 658.359,64.3513 673.779,64.3513 689.2,64.3513 704.621,64.3513 720.041,64.3513 735.462,64.3513 750.883,64.3513 766.303,64.3513 
  781.724,64.3513 797.144,64.3513 812.565,64.3513 827.986,64.3513 843.406,64.3513 858.827,64.3513 874.248,64.3513 889.668,64.3513 905.089,64.3513 920.51,64.3513 
  935.93,64.3513 951.351,64.3513 966.772,64.3513 982.192,64.3513 997.613,64.3513 1013.03,64.3513 1028.45,64.3513 1043.87,64.3513 1059.3,64.3513 1074.72,64.3513 
  1090.14,64.3513 1105.56,64.3513 1120.98,64.3513 1136.4,64.3513 1151.82,64.3513 1167.24,64.3513 1182.66,64.3513 1198.08,64.3513 1213.5,64.3513 1228.92,64.3513 
  1244.34,64.3513 1259.76,64.3513 1275.18,64.3513 1290.6,64.3513 1306.03,64.3513 1321.45,64.3513 1336.87,64.3513 1352.29,64.3513 1367.71,64.3513 1383.13,64.3513 
  1398.55,64.3513 
  "/>
<polyline clip-path="url(#clip942)" style="stroke:#c271d2; stroke-linecap:round; stroke-linejoin:round; stroke-width:12; stroke-opacity:1; fill:none" points="
  473.311,64.3513 488.732,64.3513 504.152,64.3513 519.573,64.3513 534.994,64.3513 550.414,64.3513 565.835,64.3513 581.255,64.3513 596.676,64.3513 612.097,64.3513 
  627.517,64.3513 642.938,64.3513 658.359,64.3513 673.779,64.3513 689.2,64.3513 704.621,64.3513 720.041,64.3513 735.462,64.3513 750.883,64.3513 766.303,64.3513 
  781.724,64.3513 797.144,64.3513 812.565,64.3513 827.986,64.3513 843.406,64.3513 858.827,64.3513 874.248,64.3513 889.668,64.3513 905.089,64.3513 920.51,64.3513 
  935.93,64.3513 951.351,64.3513 966.772,64.3513 982.192,64.3513 997.613,64.3513 1013.03,64.3513 1028.45,64.3513 1043.87,64.3513 1059.3,64.3513 1074.72,64.3513 
  1090.14,64.3513 1105.56,64.3513 1120.98,64.3513 1136.4,64.3513 1151.82,64.3513 1167.24,64.3513 1182.66,64.3513 1198.08,64.3513 1213.5,64.3513 1228.92,64.3513 
  1244.34,64.3513 1259.76,64.3513 1275.18,64.3513 1290.6,64.3513 1306.03,64.3513 1321.45,64.3513 1336.87,64.3513 1352.29,64.3513 1367.71,64.3513 1383.13,64.3513 
  1398.55,64.3513 
  "/>
<polyline clip-path="url(#clip942)" style="stroke:#c271d2; stroke-linecap:round; stroke-linejoin:round; stroke-width:12; stroke-opacity:1; fill:none" points="
  288.263,634.593 303.684,634.593 319.105,634.593 334.525,634.593 349.946,634.593 365.366,634.593 380.787,634.593 396.208,634.593 411.628,634.593 427.049,634.593 
  442.47,634.593 457.89,634.593 473.311,634.593 
  "/>
<polyline clip-path="url(#clip942)" style="stroke:#c271d2; stroke-linecap:round; stroke-linejoin:round; stroke-width:12; stroke-opacity:1; fill:none" points="
  1398.55,634.593 1413.97,634.593 1429.39,634.593 1444.81,634.593 1460.23,634.593 1475.65,634.593 1491.07,634.593 1506.49,634.593 1521.91,634.593 1537.34,634.593 
  1552.76,634.593 1568.18,634.593 1583.6,634.593 
  "/>
<polyline clip-path="url(#clip942)" style="stroke:#ffffff; stroke-linecap:round; stroke-linejoin:round; stroke-width:4; stroke-opacity:1; fill:none" points="
  935.93,1256.16 935.93,-557.212 
  "/>
<path clip-path="url(#clip940)" d="M923.595 577.568 L878.861 577.568 L878.861 572.244 L899 572.244 Q903.195 572.244 905.337 570.248 Q907.478 568.251 907.478 564.345 Q907.478 560.063 905.047 557.922 Q902.617 555.751 897.756 555.751 L878.861 555.751 L878.861 550.427 L903.803 550.427 Q905.539 550.427 906.378 549.936 Q907.188 549.415 907.188 548.344 Q907.188 548.084 907.044 547.621 Q906.87 547.158 906.523 546.348 L910.805 546.348 Q911.471 547.534 911.789 548.605 Q912.107 549.646 912.107 550.659 Q912.107 552.655 910.979 553.842 Q909.85 555.028 907.536 555.462 Q909.822 556.909 910.979 559.021 Q912.107 561.104 912.107 563.94 Q912.107 566.891 910.979 568.975 Q909.85 571.029 907.594 572.244 L923.595 572.244 L923.595 577.568 Z" fill="#ffffff" fill-rule="evenodd" fill-opacity="1" /><path clip-path="url(#clip940)" d="M884.359 519.785 L884.359 482.691 L889.22 482.691 L889.22 519.785 L884.359 519.785 M896.164 519.785 L896.164 482.691 L901.083 482.691 L901.083 519.785 L896.164 519.785 Z" fill="#ffffff" fill-rule="evenodd" fill-opacity="1" /><path clip-path="url(#clip940)" d="M887.976 433.53 Q888.873 429.334 891.708 426.991 Q894.544 424.618 898.711 424.618 Q905.105 424.618 908.606 429.016 Q912.107 433.414 912.107 441.516 Q912.107 444.236 911.558 447.129 Q911.037 449.994 909.966 453.061 L904.324 453.061 Q905.742 450.63 906.465 447.737 Q907.188 444.843 907.188 441.69 Q907.188 436.192 905.018 433.327 Q902.848 430.434 898.711 430.434 Q894.891 430.434 892.75 433.125 Q890.58 435.787 890.58 440.561 L890.58 445.596 L885.777 445.596 L885.777 440.33 Q885.777 436.018 884.069 433.732 Q882.333 431.447 879.093 431.447 Q875.765 431.447 874 433.819 Q872.206 436.163 872.206 440.561 Q872.206 442.963 872.727 445.712 Q873.248 448.46 874.347 451.759 L869.139 451.759 Q868.213 448.431 867.75 445.538 Q867.287 442.615 867.287 440.04 Q867.287 433.385 870.325 429.508 Q873.334 425.631 878.485 425.631 Q882.073 425.631 884.561 427.685 Q887.021 429.739 887.976 433.53 Z" fill="#ffffff" fill-rule="evenodd" fill-opacity="1" /><path clip-path="url(#clip940)" d="M871.917 401.036 Q871.917 405.55 876.373 407.836 Q880.8 410.093 889.712 410.093 Q898.595 410.093 903.051 407.836 Q907.478 405.55 907.478 401.036 Q907.478 396.493 903.051 394.236 Q898.595 391.95 889.712 391.95 Q880.8 391.95 876.373 394.236 Q871.917 396.493 871.917 401.036 M867.287 401.036 Q867.287 393.773 873.045 389.954 Q878.774 386.105 889.712 386.105 Q900.62 386.105 906.378 389.954 Q912.107 393.773 912.107 401.036 Q912.107 408.299 906.378 412.147 Q900.62 415.966 889.712 415.966 Q878.774 415.966 873.045 412.147 Q867.287 408.299 867.287 401.036 Z" fill="#ffffff" fill-rule="evenodd" fill-opacity="1" /><path clip-path="url(#clip940)" d="M903.919 375.833 L903.919 369.728 L911.268 369.728 L911.268 375.833 L903.919 375.833 Z" fill="#ffffff" fill-rule="evenodd" fill-opacity="1" /><path clip-path="url(#clip940)" d="M871.917 344.497 Q871.917 349.011 876.373 351.297 Q880.8 353.553 889.712 353.553 Q898.595 353.553 903.051 351.297 Q907.478 349.011 907.478 344.497 Q907.478 339.954 903.051 337.697 Q898.595 335.411 889.712 335.411 Q880.8 335.411 876.373 337.697 Q871.917 339.954 871.917 344.497 M867.287 344.497 Q867.287 337.234 873.045 333.415 Q878.774 329.566 889.712 329.566 Q900.62 329.566 906.378 333.415 Q912.107 337.234 912.107 344.497 Q912.107 351.76 906.378 355.608 Q900.62 359.427 889.712 359.427 Q878.774 359.427 873.045 355.608 Q867.287 351.76 867.287 344.497 Z" fill="#ffffff" fill-rule="evenodd" fill-opacity="1" /></svg>
