<?xml version="1.0" encoding="utf-8"?>
<svg xmlns="http://www.w3.org/2000/svg" xmlns:xlink="http://www.w3.org/1999/xlink" width="400" height="200" viewBox="0 0 1600 800">
<defs>
  <clipPath id="clip100">
    <rect x="0" y="0" width="1600" height="800"/>
  </clipPath>
</defs>
<path clip-path="url(#clip100)" d="
M0 800 L1600 800 L1600 0 L0 0  Z
  " fill="#ffffff" fill-rule="evenodd" fill-opacity="1"/>
<defs>
  <clipPath id="clip101">
    <rect x="320" y="0" width="1121" height="800"/>
  </clipPath>
</defs>
<path clip-path="url(#clip100)" d="
M319.105 651.7 L1552.76 651.7 L1552.76 47.2441 L319.105 47.2441  Z
  " fill="#ffffff" fill-rule="evenodd" fill-opacity="1"/>
<defs>
  <clipPath id="clip102">
    <rect x="319" y="47" width="1235" height="605"/>
  </clipPath>
</defs>
<polyline clip-path="url(#clip102)" style="stroke:#000000; stroke-linecap:round; stroke-linejoin:round; stroke-width:2; stroke-opacity:0.1; fill:none" points="
  473.311,651.7 473.311,47.2441 
  "/>
<polyline clip-path="url(#clip102)" style="stroke:#000000; stroke-linecap:round; stroke-linejoin:round; stroke-width:2; stroke-opacity:0.1; fill:none" points="
  730.322,651.7 730.322,47.2441 
  "/>
<polyline clip-path="url(#clip102)" style="stroke:#000000; stroke-linecap:round; stroke-linejoin:round; stroke-width:2; stroke-opacity:0.1; fill:none" points="
  987.332,651.7 987.332,47.2441 
  "/>
<polyline clip-path="url(#clip102)" style="stroke:#000000; stroke-linecap:round; stroke-linejoin:round; stroke-width:2; stroke-opacity:0.1; fill:none" points="
  1244.34,651.7 1244.34,47.2441 
  "/>
<polyline clip-path="url(#clip102)" style="stroke:#000000; stroke-linecap:round; stroke-linejoin:round; stroke-width:2; stroke-opacity:0.1; fill:none" points="
  1501.35,651.7 1501.35,47.2441 
  "/>
<polyline clip-path="url(#clip100)" style="stroke:#000000; stroke-linecap:round; stroke-linejoin:round; stroke-width:4; stroke-opacity:1; fill:none" points="
  319.105,651.7 1552.76,651.7 
  "/>
<polyline clip-path="url(#clip100)" style="stroke:#000000; stroke-linecap:round; stroke-linejoin:round; stroke-width:4; stroke-opacity:1; fill:none" points="
  473.311,651.7 473.311,632.802 
  "/>
<polyline clip-path="url(#clip100)" style="stroke:#000000; stroke-linecap:round; stroke-linejoin:round; stroke-width:4; stroke-opacity:1; fill:none" points="
  730.322,651.7 730.322,632.802 
  "/>
<polyline clip-path="url(#clip100)" style="stroke:#000000; stroke-linecap:round; stroke-linejoin:round; stroke-width:4; stroke-opacity:1; fill:none" points="
  987.332,651.7 987.332,632.802 
  "/>
<polyline clip-path="url(#clip100)" style="stroke:#000000; stroke-linecap:round; stroke-linejoin:round; stroke-width:4; stroke-opacity:1; fill:none" points="
  1244.34,651.7 1244.34,632.802 
  "/>
<polyline clip-path="url(#clip100)" style="stroke:#000000; stroke-linecap:round; stroke-linejoin:round; stroke-width:4; stroke-opacity:1; fill:none" points="
  1501.35,651.7 1501.35,632.802 
  "/>
<path clip-path="url(#clip100)" d="M473.311 676.219 Q469.7 676.219 467.871 679.783 Q466.066 683.325 466.066 690.455 Q466.066 697.561 467.871 701.126 Q469.7 704.667 473.311 704.667 Q476.945 704.667 478.751 701.126 Q480.579 697.561 480.579 690.455 Q480.579 683.325 478.751 679.783 Q476.945 676.219 473.311 676.219 M473.311 672.515 Q479.121 672.515 482.177 677.121 Q485.255 681.705 485.255 690.455 Q485.255 699.181 482.177 703.788 Q479.121 708.371 473.311 708.371 Q467.501 708.371 464.422 703.788 Q461.367 699.181 461.367 690.455 Q461.367 681.705 464.422 677.121 Q467.501 672.515 473.311 672.515 Z" fill="#000000" fill-rule="evenodd" fill-opacity="1" /><path clip-path="url(#clip100)" d="M705.021 673.14 L723.377 673.14 L723.377 677.075 L709.303 677.075 L709.303 685.547 Q710.322 685.2 711.34 685.038 Q712.359 684.853 713.377 684.853 Q719.164 684.853 722.544 688.024 Q725.924 691.195 725.924 696.612 Q725.924 702.191 722.451 705.292 Q718.979 708.371 712.66 708.371 Q710.484 708.371 708.215 708.001 Q705.97 707.63 703.563 706.89 L703.563 702.191 Q705.646 703.325 707.868 703.88 Q710.09 704.436 712.567 704.436 Q716.572 704.436 718.91 702.33 Q721.248 700.223 721.248 696.612 Q721.248 693.001 718.91 690.894 Q716.572 688.788 712.567 688.788 Q710.692 688.788 708.817 689.205 Q706.965 689.621 705.021 690.501 L705.021 673.14 Z" fill="#000000" fill-rule="evenodd" fill-opacity="1" /><path clip-path="url(#clip100)" d="M745.136 676.219 Q741.525 676.219 739.697 679.783 Q737.891 683.325 737.891 690.455 Q737.891 697.561 739.697 701.126 Q741.525 704.667 745.136 704.667 Q748.771 704.667 750.576 701.126 Q752.405 697.561 752.405 690.455 Q752.405 683.325 750.576 679.783 Q748.771 676.219 745.136 676.219 M745.136 672.515 Q750.947 672.515 754.002 677.121 Q757.081 681.705 757.081 690.455 Q757.081 699.181 754.002 703.788 Q750.947 708.371 745.136 708.371 Q739.326 708.371 736.248 703.788 Q733.192 699.181 733.192 690.455 Q733.192 681.705 736.248 677.121 Q739.326 672.515 745.136 672.515 Z" fill="#000000" fill-rule="evenodd" fill-opacity="1" /><path clip-path="url(#clip100)" d="M946.939 703.765 L954.578 703.765 L954.578 677.399 L946.268 679.066 L946.268 674.807 L954.532 673.14 L959.208 673.14 L959.208 703.765 L966.846 703.765 L966.846 707.7 L946.939 707.7 L946.939 703.765 Z" fill="#000000" fill-rule="evenodd" fill-opacity="1" /><path clip-path="url(#clip100)" d="M986.291 676.219 Q982.68 676.219 980.851 679.783 Q979.045 683.325 979.045 690.455 Q979.045 697.561 980.851 701.126 Q982.68 704.667 986.291 704.667 Q989.925 704.667 991.73 701.126 Q993.559 697.561 993.559 690.455 Q993.559 683.325 991.73 679.783 Q989.925 676.219 986.291 676.219 M986.291 672.515 Q992.101 672.515 995.156 677.121 Q998.235 681.705 998.235 690.455 Q998.235 699.181 995.156 703.788 Q992.101 708.371 986.291 708.371 Q980.481 708.371 977.402 703.788 Q974.346 699.181 974.346 690.455 Q974.346 681.705 977.402 677.121 Q980.481 672.515 986.291 672.515 Z" fill="#000000" fill-rule="evenodd" fill-opacity="1" /><path clip-path="url(#clip100)" d="M1016.45 676.219 Q1012.84 676.219 1011.01 679.783 Q1009.21 683.325 1009.21 690.455 Q1009.21 697.561 1011.01 701.126 Q1012.84 704.667 1016.45 704.667 Q1020.09 704.667 1021.89 701.126 Q1023.72 697.561 1023.72 690.455 Q1023.72 683.325 1021.89 679.783 Q1020.09 676.219 1016.45 676.219 M1016.45 672.515 Q1022.26 672.515 1025.32 677.121 Q1028.4 681.705 1028.4 690.455 Q1028.4 699.181 1025.32 703.788 Q1022.26 708.371 1016.45 708.371 Q1010.64 708.371 1007.56 703.788 Q1004.51 699.181 1004.51 690.455 Q1004.51 681.705 1007.56 677.121 Q1010.64 672.515 1016.45 672.515 Z" fill="#000000" fill-rule="evenodd" fill-opacity="1" /><path clip-path="url(#clip100)" d="M1203.95 703.765 L1211.59 703.765 L1211.59 677.399 L1203.28 679.066 L1203.28 674.807 L1211.54 673.14 L1216.22 673.14 L1216.22 703.765 L1223.86 703.765 L1223.86 707.7 L1203.95 707.7 L1203.95 703.765 Z" fill="#000000" fill-rule="evenodd" fill-opacity="1" /><path clip-path="url(#clip100)" d="M1233.35 673.14 L1251.7 673.14 L1251.7 677.075 L1237.63 677.075 L1237.63 685.547 Q1238.65 685.2 1239.67 685.038 Q1240.69 684.853 1241.7 684.853 Q1247.49 684.853 1250.87 688.024 Q1254.25 691.195 1254.25 696.612 Q1254.25 702.191 1250.78 705.292 Q1247.31 708.371 1240.99 708.371 Q1238.81 708.371 1236.54 708.001 Q1234.3 707.63 1231.89 706.89 L1231.89 702.191 Q1233.97 703.325 1236.19 703.88 Q1238.42 704.436 1240.89 704.436 Q1244.9 704.436 1247.24 702.33 Q1249.57 700.223 1249.57 696.612 Q1249.57 693.001 1247.24 690.894 Q1244.9 688.788 1240.89 688.788 Q1239.02 688.788 1237.14 689.205 Q1235.29 689.621 1233.35 690.501 L1233.35 673.14 Z" fill="#000000" fill-rule="evenodd" fill-opacity="1" /><path clip-path="url(#clip100)" d="M1273.46 676.219 Q1269.85 676.219 1268.02 679.783 Q1266.22 683.325 1266.22 690.455 Q1266.22 697.561 1268.02 701.126 Q1269.85 704.667 1273.46 704.667 Q1277.1 704.667 1278.9 701.126 Q1280.73 697.561 1280.73 690.455 Q1280.73 683.325 1278.9 679.783 Q1277.1 676.219 1273.46 676.219 M1273.46 672.515 Q1279.27 672.515 1282.33 677.121 Q1285.41 681.705 1285.41 690.455 Q1285.41 699.181 1282.33 703.788 Q1279.27 708.371 1273.46 708.371 Q1267.65 708.371 1264.57 703.788 Q1261.52 699.181 1261.52 690.455 Q1261.52 681.705 1264.57 677.121 Q1267.65 672.515 1273.46 672.515 Z" fill="#000000" fill-rule="evenodd" fill-opacity="1" /><path clip-path="url(#clip100)" d="M1465.05 703.765 L1481.37 703.765 L1481.37 707.7 L1459.42 707.7 L1459.42 703.765 Q1462.08 701.01 1466.67 696.38 Q1471.27 691.728 1472.45 690.385 Q1474.7 687.862 1475.58 686.126 Q1476.48 684.367 1476.48 682.677 Q1476.48 679.922 1474.54 678.186 Q1472.62 676.45 1469.51 676.45 Q1467.31 676.45 1464.86 677.214 Q1462.43 677.978 1459.65 679.529 L1459.65 674.807 Q1462.48 673.672 1464.93 673.094 Q1467.38 672.515 1469.42 672.515 Q1474.79 672.515 1477.99 675.2 Q1481.18 677.885 1481.18 682.376 Q1481.18 684.506 1480.37 686.427 Q1479.58 688.325 1477.48 690.918 Q1476.9 691.589 1473.8 694.806 Q1470.69 698.001 1465.05 703.765 Z" fill="#000000" fill-rule="evenodd" fill-opacity="1" /><path clip-path="url(#clip100)" d="M1501.18 676.219 Q1497.57 676.219 1495.74 679.783 Q1493.93 683.325 1493.93 690.455 Q1493.93 697.561 1495.74 701.126 Q1497.57 704.667 1501.18 704.667 Q1504.81 704.667 1506.62 701.126 Q1508.45 697.561 1508.45 690.455 Q1508.45 683.325 1506.62 679.783 Q1504.81 676.219 1501.18 676.219 M1501.18 672.515 Q1506.99 672.515 1510.05 677.121 Q1513.12 681.705 1513.12 690.455 Q1513.12 699.181 1510.05 703.788 Q1506.99 708.371 1501.18 708.371 Q1495.37 708.371 1492.29 703.788 Q1489.24 699.181 1489.24 690.455 Q1489.24 681.705 1492.29 677.121 Q1495.37 672.515 1501.18 672.515 Z" fill="#000000" fill-rule="evenodd" fill-opacity="1" /><path clip-path="url(#clip100)" d="M1531.34 676.219 Q1527.73 676.219 1525.9 679.783 Q1524.1 683.325 1524.1 690.455 Q1524.1 697.561 1525.9 701.126 Q1527.73 704.667 1531.34 704.667 Q1534.98 704.667 1536.78 701.126 Q1538.61 697.561 1538.61 690.455 Q1538.61 683.325 1536.78 679.783 Q1534.98 676.219 1531.34 676.219 M1531.34 672.515 Q1537.15 672.515 1540.21 677.121 Q1543.29 681.705 1543.29 690.455 Q1543.29 699.181 1540.21 703.788 Q1537.15 708.371 1531.34 708.371 Q1525.53 708.371 1522.45 703.788 Q1519.4 699.181 1519.4 690.455 Q1519.4 681.705 1522.45 677.121 Q1525.53 672.515 1531.34 672.515 Z" fill="#000000" fill-rule="evenodd" fill-opacity="1" /><path clip-path="url(#clip100)" d="M717.475 742.327 L717.475 779.28 L725.241 779.28 Q735.076 779.28 739.628 774.824 Q744.211 770.368 744.211 760.756 Q744.211 751.208 739.628 746.783 Q735.076 742.327 725.241 742.327 L717.475 742.327 M711.046 737.044 L724.255 737.044 Q738.068 737.044 744.529 742.805 Q750.991 748.534 750.991 760.756 Q750.991 773.042 744.498 778.803 Q738.005 784.564 724.255 784.564 L711.046 784.564 L711.046 737.044 Z" fill="#000000" fill-rule="evenodd" fill-opacity="1" /><path clip-path="url(#clip100)" d="M777.185 766.644 Q770.088 766.644 767.35 768.268 Q764.613 769.891 764.613 773.806 Q764.613 776.925 766.65 778.771 Q768.719 780.585 772.252 780.585 Q777.122 780.585 780.05 777.148 Q783.01 773.678 783.01 767.949 L783.01 766.644 L777.185 766.644 M788.866 764.225 L788.866 784.564 L783.01 784.564 L783.01 779.153 Q781.005 782.4 778.013 783.959 Q775.021 785.487 770.692 785.487 Q765.218 785.487 761.971 782.431 Q758.757 779.344 758.757 774.188 Q758.757 768.172 762.767 765.117 Q766.809 762.061 774.798 762.061 L783.01 762.061 L783.01 761.488 Q783.01 757.446 780.336 755.25 Q777.695 753.022 772.889 753.022 Q769.833 753.022 766.937 753.754 Q764.04 754.486 761.367 755.95 L761.367 750.539 Q764.581 749.298 767.605 748.693 Q770.629 748.057 773.493 748.057 Q781.228 748.057 785.047 752.067 Q788.866 756.077 788.866 764.225 Z" fill="#000000" fill-rule="evenodd" fill-opacity="1" /><path clip-path="url(#clip100)" d="M800.93 748.916 L806.786 748.916 L806.786 784.564 L800.93 784.564 L800.93 748.916 M800.93 735.039 L806.786 735.039 L806.786 742.455 L800.93 742.455 L800.93 735.039 Z" fill="#000000" fill-rule="evenodd" fill-opacity="1" /><path clip-path="url(#clip100)" d="M819.04 735.039 L824.896 735.039 L824.896 784.564 L819.04 784.564 L819.04 735.039 Z" fill="#000000" fill-rule="evenodd" fill-opacity="1" /><path clip-path="url(#clip100)" d="M851.982 787.874 Q849.5 794.24 847.145 796.181 Q844.789 798.123 840.842 798.123 L836.164 798.123 L836.164 793.221 L839.601 793.221 Q842.02 793.221 843.357 792.075 Q844.694 790.93 846.317 786.665 L847.367 783.991 L832.949 748.916 L839.156 748.916 L850.296 776.798 L861.436 748.916 L867.642 748.916 L851.982 787.874 Z" fill="#000000" fill-rule="evenodd" fill-opacity="1" /><path clip-path="url(#clip100)" d="M903.131 742.327 L903.131 779.28 L910.897 779.28 Q920.732 779.28 925.284 774.824 Q929.867 770.368 929.867 760.756 Q929.867 751.208 925.284 746.783 Q920.732 742.327 910.897 742.327 L903.131 742.327 M896.702 737.044 L909.91 737.044 Q923.724 737.044 930.185 742.805 Q936.646 748.534 936.646 760.756 Q936.646 773.042 930.153 778.803 Q923.66 784.564 909.91 784.564 L896.702 784.564 L896.702 737.044 Z" fill="#000000" fill-rule="evenodd" fill-opacity="1" /><path clip-path="url(#clip100)" d="M977.132 765.276 L977.132 768.14 L950.205 768.14 Q950.587 774.188 953.834 777.371 Q957.112 780.522 962.937 780.522 Q966.311 780.522 969.462 779.694 Q972.644 778.867 975.764 777.211 L975.764 782.75 Q972.613 784.086 969.302 784.787 Q965.992 785.487 962.587 785.487 Q954.057 785.487 949.06 780.522 Q944.094 775.556 944.094 767.09 Q944.094 758.337 948.805 753.213 Q953.547 748.057 961.568 748.057 Q968.761 748.057 972.931 752.703 Q977.132 757.319 977.132 765.276 M971.276 763.557 Q971.212 758.751 968.57 755.886 Q965.96 753.022 961.632 753.022 Q956.73 753.022 953.77 755.791 Q950.842 758.56 950.396 763.589 L971.276 763.557 Z" fill="#000000" fill-rule="evenodd" fill-opacity="1" /><path clip-path="url(#clip100)" d="M1014.5 755.759 Q1016.7 751.812 1019.75 749.934 Q1022.81 748.057 1026.94 748.057 Q1032.51 748.057 1035.54 751.971 Q1038.56 755.855 1038.56 763.048 L1038.56 784.564 L1032.67 784.564 L1032.67 763.239 Q1032.67 758.114 1030.86 755.632 Q1029.04 753.149 1025.32 753.149 Q1020.77 753.149 1018.13 756.173 Q1015.49 759.197 1015.49 764.416 L1015.49 784.564 L1009.6 784.564 L1009.6 763.239 Q1009.6 758.083 1007.78 755.632 Q1005.97 753.149 1002.18 753.149 Q997.694 753.149 995.052 756.205 Q992.41 759.228 992.41 764.416 L992.41 784.564 L986.522 784.564 L986.522 748.916 L992.41 748.916 L992.41 754.454 Q994.415 751.176 997.216 749.616 Q1000.02 748.057 1003.87 748.057 Q1007.75 748.057 1010.46 750.03 Q1013.19 752.003 1014.5 755.759 Z" fill="#000000" fill-rule="evenodd" fill-opacity="1" /><path clip-path="url(#clip100)" d="M1066.44 766.644 Q1059.35 766.644 1056.61 768.268 Q1053.87 769.891 1053.87 773.806 Q1053.87 776.925 1055.91 778.771 Q1057.98 780.585 1061.51 780.585 Q1066.38 780.585 1069.31 777.148 Q1072.27 773.678 1072.27 767.949 L1072.27 766.644 L1066.44 766.644 M1078.12 764.225 L1078.12 784.564 L1072.27 784.564 L1072.27 779.153 Q1070.26 782.4 1067.27 783.959 Q1064.28 785.487 1059.95 785.487 Q1054.48 785.487 1051.23 782.431 Q1048.01 779.344 1048.01 774.188 Q1048.01 768.172 1052.02 765.117 Q1056.07 762.061 1064.06 762.061 L1072.27 762.061 L1072.27 761.488 Q1072.27 757.446 1069.59 755.25 Q1066.95 753.022 1062.15 753.022 Q1059.09 753.022 1056.19 753.754 Q1053.3 754.486 1050.62 755.95 L1050.62 750.539 Q1053.84 749.298 1056.86 748.693 Q1059.89 748.057 1062.75 748.057 Q1070.49 748.057 1074.3 752.067 Q1078.12 756.077 1078.12 764.225 Z" fill="#000000" fill-rule="evenodd" fill-opacity="1" /><path clip-path="url(#clip100)" d="M1119.82 763.048 L1119.82 784.564 L1113.96 784.564 L1113.96 763.239 Q1113.96 758.178 1111.99 755.664 Q1110.02 753.149 1106.07 753.149 Q1101.33 753.149 1098.59 756.173 Q1095.85 759.197 1095.85 764.416 L1095.85 784.564 L1089.96 784.564 L1089.96 748.916 L1095.85 748.916 L1095.85 754.454 Q1097.95 751.239 1100.79 749.648 Q1103.65 748.057 1107.37 748.057 Q1113.52 748.057 1116.67 751.876 Q1119.82 755.664 1119.82 763.048 Z" fill="#000000" fill-rule="evenodd" fill-opacity="1" /><path clip-path="url(#clip100)" d="M1154.96 754.327 L1154.96 735.039 L1160.81 735.039 L1160.81 784.564 L1154.96 784.564 L1154.96 779.217 Q1153.11 782.4 1150.28 783.959 Q1147.48 785.487 1143.53 785.487 Q1137.07 785.487 1133 780.331 Q1128.95 775.174 1128.95 766.772 Q1128.95 758.369 1133 753.213 Q1137.07 748.057 1143.53 748.057 Q1147.48 748.057 1150.28 749.616 Q1153.11 751.144 1154.96 754.327 M1135 766.772 Q1135 773.233 1137.64 776.925 Q1140.32 780.585 1144.96 780.585 Q1149.61 780.585 1152.28 776.925 Q1154.96 773.233 1154.96 766.772 Q1154.96 760.311 1152.28 756.65 Q1149.61 752.958 1144.96 752.958 Q1140.32 752.958 1137.64 756.65 Q1135 760.311 1135 766.772 Z" fill="#000000" fill-rule="evenodd" fill-opacity="1" /><polyline clip-path="url(#clip100)" style="stroke:#000000; stroke-linecap:round; stroke-linejoin:round; stroke-width:4; stroke-opacity:1; fill:none" points="
  319.105,651.7 319.105,47.2441 
  "/>
<path clip-path="url(#clip100)" d="M209.329 507.628 L209.329 501.199 L251.438 501.199 L251.438 478.059 L256.849 478.059 L256.849 507.628 L209.329 507.628 Z" fill="#000000" fill-rule="evenodd" fill-opacity="1" /><path clip-path="url(#clip100)" d="M221.201 471.566 L221.201 465.71 L256.849 465.71 L256.849 471.566 L221.201 471.566 M207.323 471.566 L207.323 465.71 L214.739 465.71 L214.739 471.566 L207.323 471.566 Z" fill="#000000" fill-rule="evenodd" fill-opacity="1" /><path clip-path="url(#clip100)" d="M207.323 453.679 L207.323 447.79 L236.574 447.79 L221.201 430.316 L221.201 422.837 L237.879 441.743 L256.849 422.041 L256.849 429.68 L239.438 447.79 L256.849 447.79 L256.849 453.679 L207.323 453.679 Z" fill="#000000" fill-rule="evenodd" fill-opacity="1" /><path clip-path="url(#clip100)" d="M237.56 387.539 L240.425 387.539 L240.425 414.466 Q246.472 414.084 249.655 410.837 Q252.806 407.559 252.806 401.734 Q252.806 398.361 251.979 395.21 Q251.151 392.027 249.496 388.908 L255.034 388.908 Q256.371 392.059 257.071 395.369 Q257.772 398.679 257.772 402.085 Q257.772 410.615 252.806 415.612 Q247.841 420.577 239.375 420.577 Q230.622 420.577 225.497 415.866 Q220.341 411.124 220.341 403.103 Q220.341 395.91 224.988 391.74 Q229.603 387.539 237.56 387.539 M235.842 393.395 Q231.036 393.459 228.171 396.101 Q225.306 398.711 225.306 403.039 Q225.306 407.941 228.076 410.901 Q230.845 413.829 235.874 414.275 L235.842 393.395 Z" fill="#000000" fill-rule="evenodd" fill-opacity="1" /><path clip-path="url(#clip100)" d="M207.323 377.927 L207.323 372.07 L256.849 372.07 L256.849 377.927 L207.323 377.927 Z" fill="#000000" fill-rule="evenodd" fill-opacity="1" /><path clip-path="url(#clip100)" d="M221.201 359.816 L221.201 353.96 L256.849 353.96 L256.849 359.816 L221.201 359.816 M207.323 359.816 L207.323 353.96 L214.739 353.96 L214.739 359.816 L207.323 359.816 Z" fill="#000000" fill-rule="evenodd" fill-opacity="1" /><path clip-path="url(#clip100)" d="M235.332 312.073 L256.849 312.073 L256.849 317.93 L235.523 317.93 Q230.463 317.93 227.948 319.903 Q225.434 321.877 225.434 325.823 Q225.434 330.566 228.458 333.303 Q231.481 336.04 236.701 336.04 L256.849 336.04 L256.849 341.929 L207.323 341.929 L207.323 336.04 L226.739 336.04 Q223.524 333.94 221.933 331.107 Q220.341 328.242 220.341 324.518 Q220.341 318.375 224.161 315.224 Q227.948 312.073 235.332 312.073 Z" fill="#000000" fill-rule="evenodd" fill-opacity="1" /><path clip-path="url(#clip100)" d="M225.306 286.579 Q225.306 291.289 228.999 294.027 Q232.659 296.764 239.056 296.764 Q245.454 296.764 249.146 294.058 Q252.806 291.321 252.806 286.579 Q252.806 281.9 249.114 279.163 Q245.422 276.425 239.056 276.425 Q232.723 276.425 229.03 279.163 Q225.306 281.9 225.306 286.579 M220.341 286.579 Q220.341 278.94 225.306 274.579 Q230.272 270.219 239.056 270.219 Q247.809 270.219 252.806 274.579 Q257.772 278.94 257.772 286.579 Q257.772 294.249 252.806 298.61 Q247.809 302.939 239.056 302.939 Q230.272 302.939 225.306 298.61 Q220.341 294.249 220.341 286.579 Z" fill="#000000" fill-rule="evenodd" fill-opacity="1" /><path clip-path="url(#clip100)" d="M225.306 246.698 Q225.306 251.408 228.999 254.146 Q232.659 256.883 239.056 256.883 Q245.454 256.883 249.146 254.177 Q252.806 251.44 252.806 246.698 Q252.806 242.019 249.114 239.282 Q245.422 236.544 239.056 236.544 Q232.723 236.544 229.03 239.282 Q225.306 242.019 225.306 246.698 M220.341 246.698 Q220.341 239.059 225.306 234.698 Q230.272 230.338 239.056 230.338 Q247.809 230.338 252.806 234.698 Q257.772 239.059 257.772 246.698 Q257.772 254.368 252.806 258.729 Q247.809 263.058 239.056 263.058 Q230.272 263.058 225.306 258.729 Q220.341 254.368 220.341 246.698 Z" fill="#000000" fill-rule="evenodd" fill-opacity="1" /><path clip-path="url(#clip100)" d="M226.611 197.172 L207.323 197.172 L207.323 191.316 L256.849 191.316 L256.849 197.172 L251.501 197.172 Q254.684 199.018 256.244 201.851 Q257.772 204.652 257.772 208.599 Q257.772 215.06 252.615 219.134 Q247.459 223.176 239.056 223.176 Q230.654 223.176 225.497 219.134 Q220.341 215.06 220.341 208.599 Q220.341 204.652 221.901 201.851 Q223.429 199.018 226.611 197.172 M239.056 217.129 Q245.518 217.129 249.21 214.487 Q252.87 211.814 252.87 207.167 Q252.87 202.52 249.21 199.846 Q245.518 197.172 239.056 197.172 Q232.595 197.172 228.935 199.846 Q225.243 202.52 225.243 207.167 Q225.243 211.814 228.935 214.487 Q232.595 217.129 239.056 217.129 Z" fill="#000000" fill-rule="evenodd" fill-opacity="1" /><path clip-path="url(#clip102)" d="
M473.311 628.258 L478.451 627.595 L483.591 626.872 L488.732 626.084 L493.872 625.226 L499.012 624.292 L504.152 623.278 L509.292 622.178 L514.433 620.987 L519.573 619.697 
  L524.713 618.303 L529.853 616.799 L534.994 615.177 L540.134 613.431 L545.274 611.554 L550.414 609.538 L555.554 607.376 L560.695 605.06 L565.835 602.582 L570.975 599.935 
  L576.115 597.111 L581.255 594.102 L586.396 590.9 L591.536 587.497 L596.676 583.886 L601.816 580.058 L606.957 576.006 L612.097 571.723 L617.237 567.202 L622.377 562.436 
  L627.517 557.419 L632.658 552.144 L637.798 546.607 L642.938 540.802 L648.078 534.726 L653.218 528.373 L658.359 521.743 L663.499 514.831 L668.639 507.637 L673.779 500.16 
  L678.92 492.402 L684.06 484.362 L689.2 476.044 L694.34 467.452 L699.48 458.589 L704.621 449.462 L709.761 440.079 L714.901 430.446 L720.041 420.575 L725.181 410.475 
  L730.322 400.159 L735.462 389.641 L740.602 378.935 L745.742 368.058 L750.883 357.026 L756.023 345.859 L761.163 334.576 L766.303 323.198 L771.443 311.748 L776.584 300.249 
  L781.724 288.724 L786.864 277.199 L792.004 265.701 L797.144 254.255 L802.285 242.89 L807.425 231.633 L812.565 220.512 L817.705 209.558 L822.846 198.798 L827.986 188.262 
  L833.126 177.979 L838.266 167.978 L843.406 158.287 L848.547 148.935 L853.687 139.949 L858.827 131.356 L863.967 123.183 L869.107 115.454 L874.248 108.194 L879.388 101.424 
  L884.528 95.1675 L889.668 89.4434 L894.809 84.2704 L899.949 79.6652 L905.089 75.6429 L910.229 72.2166 L915.369 69.3977 L920.51 67.1954 L925.65 65.6171 L930.79 64.668 
  L935.93 64.3513 L941.07 64.668 L946.211 65.6171 L951.351 67.1954 L956.491 69.3977 L961.631 72.2166 L966.772 75.6429 L971.912 79.6652 L977.052 84.2704 L982.192 89.4434 
  L987.332 95.1675 L992.473 101.424 L997.613 108.194 L1002.75 115.454 L1007.89 123.183 L1013.03 131.356 L1018.17 139.949 L1023.31 148.935 L1028.45 158.287 L1033.59 167.978 
  L1038.73 177.979 L1043.87 188.262 L1049.01 198.798 L1054.16 209.558 L1059.3 220.512 L1064.44 231.633 L1069.58 242.89 L1074.72 254.255 L1079.86 265.701 L1085 277.199 
  L1090.14 288.724 L1095.28 300.249 L1100.42 311.748 L1105.56 323.198 L1110.7 334.576 L1115.84 345.859 L1120.98 357.026 L1126.12 368.058 L1131.26 378.935 L1136.4 389.641 
  L1141.54 400.159 L1146.68 410.475 L1151.82 420.575 L1156.96 430.446 L1162.1 440.079 L1167.24 449.462 L1172.38 458.589 L1177.52 467.452 L1182.66 476.044 L1187.8 484.362 
  L1192.94 492.402 L1198.08 500.16 L1203.22 507.637 L1208.36 514.831 L1213.5 521.743 L1218.64 528.373 L1223.78 534.726 L1228.92 540.802 L1234.06 546.607 L1239.2 552.144 
  L1244.34 557.419 L1249.48 562.436 L1254.62 567.202 L1259.76 571.723 L1264.9 576.006 L1270.04 580.058 L1275.18 583.886 L1280.32 587.497 L1285.46 590.9 L1290.6 594.102 
  L1295.75 597.111 L1300.89 599.935 L1306.03 602.582 L1311.17 605.06 L1316.31 607.376 L1321.45 609.538 L1326.59 611.554 L1331.73 613.431 L1336.87 615.177 L1342.01 616.799 
  L1347.15 618.303 L1352.29 619.697 L1357.43 620.987 L1362.57 622.178 L1367.71 623.278 L1372.85 624.292 L1377.99 625.226 L1383.13 626.084 L1388.27 626.872 L1393.41 627.595 
  L1398.55 628.258 L1398.55 634.593 L1393.41 634.593 L1388.27 634.593 L1383.13 634.593 L1377.99 634.593 L1372.85 634.593 L1367.71 634.593 L1362.57 634.593 L1357.43 634.593 
  L1352.29 634.593 L1347.15 634.593 L1342.01 634.593 L1336.87 634.593 L1331.73 634.593 L1326.59 634.593 L1321.45 634.593 L1316.31 634.593 L1311.17 634.593 L1306.03 634.593 
  L1300.89 634.593 L1295.75 634.593 L1290.6 634.593 L1285.46 634.593 L1280.32 634.593 L1275.18 634.593 L1270.04 634.593 L1264.9 634.593 L1259.76 634.593 L1254.62 634.593 
  L1249.48 634.593 L1244.34 634.593 L1239.2 634.593 L1234.06 634.593 L1228.92 634.593 L1223.78 634.593 L1218.64 634.593 L1213.5 634.593 L1208.36 634.593 L1203.22 634.593 
  L1198.08 634.593 L1192.94 634.593 L1187.8 634.593 L1182.66 634.593 L1177.52 634.593 L1172.38 634.593 L1167.24 634.593 L1162.1 634.593 L1156.96 634.593 L1151.82 634.593 
  L1146.68 634.593 L1141.54 634.593 L1136.4 634.593 L1131.26 634.593 L1126.12 634.593 L1120.98 634.593 L1115.84 634.593 L1110.7 634.593 L1105.56 634.593 L1100.42 634.593 
  L1095.28 634.593 L1090.14 634.593 L1085 634.593 L1079.86 634.593 L1074.72 634.593 L1069.58 634.593 L1064.44 634.593 L1059.3 634.593 L1054.16 634.593 L1049.01 634.593 
  L1043.87 634.593 L1038.73 634.593 L1033.59 634.593 L1028.45 634.593 L1023.31 634.593 L1018.17 634.593 L1013.03 634.593 L1007.89 634.593 L1002.75 634.593 L997.613 634.593 
  L992.473 634.593 L987.332 634.593 L982.192 634.593 L977.052 634.593 L971.912 634.593 L966.772 634.593 L961.631 634.593 L956.491 634.593 L951.351 634.593 L946.211 634.593 
  L941.07 634.593 L935.93 634.593 L930.79 634.593 L925.65 634.593 L920.51 634.593 L915.369 634.593 L910.229 634.593 L905.089 634.593 L899.949 634.593 L894.809 634.593 
  L889.668 634.593 L884.528 634.593 L879.388 634.593 L874.248 634.593 L869.107 634.593 L863.967 634.593 L858.827 634.593 L853.687 634.593 L848.547 634.593 L843.406 634.593 
  L838.266 634.593 L833.126 634.593 L827.986 634.593 L822.846 634.593 L817.705 634.593 L812.565 634.593 L807.425 634.593 L802.285 634.593 L797.144 634.593 L792.004 634.593 
  L786.864 634.593 L781.724 634.593 L776.584 634.593 L771.443 634.593 L766.303 634.593 L761.163 634.593 L756.023 634.593 L750.883 634.593 L745.742 634.593 L740.602 634.593 
  L735.462 634.593 L730.322 634.593 L725.181 634.593 L720.041 634.593 L714.901 634.593 L709.761 634.593 L704.621 634.593 L699.48 634.593 L694.34 634.593 L689.2 634.593 
  L684.06 634.593 L678.92 634.593 L673.779 634.593 L668.639 634.593 L663.499 634.593 L658.359 634.593 L653.218 634.593 L648.078 634.593 L642.938 634.593 L637.798 634.593 
  L632.658 634.593 L627.517 634.593 L622.377 634.593 L617.237 634.593 L612.097 634.593 L606.957 634.593 L601.816 634.593 L596.676 634.593 L591.536 634.593 L586.396 634.593 
  L581.255 634.593 L576.115 634.593 L570.975 634.593 L565.835 634.593 L560.695 634.593 L555.554 634.593 L550.414 634.593 L545.274 634.593 L540.134 634.593 L534.994 634.593 
  L529.853 634.593 L524.713 634.593 L519.573 634.593 L514.433 634.593 L509.292 634.593 L504.152 634.593 L499.012 634.593 L493.872 634.593 L488.732 634.593 L483.591 634.593 
  L478.451 634.593 L473.311 634.593  Z
  " fill="#009af9" fill-rule="evenodd" fill-opacity="0.81"/>
<polyline clip-path="url(#clip102)" style="stroke:#009af9; stroke-linecap:round; stroke-linejoin:round; stroke-width:0; stroke-opacity:1; fill:none" points="
  473.311,628.258 478.451,627.595 483.591,626.872 488.732,626.084 493.872,625.226 499.012,624.292 504.152,623.278 509.292,622.178 514.433,620.987 519.573,619.697 
  524.713,618.303 529.853,616.799 534.994,615.177 540.134,613.431 545.274,611.554 550.414,609.538 555.554,607.376 560.695,605.06 565.835,602.582 570.975,599.935 
  576.115,597.111 581.255,594.102 586.396,590.9 591.536,587.497 596.676,583.886 601.816,580.058 606.957,576.006 612.097,571.723 617.237,567.202 622.377,562.436 
  627.517,557.419 632.658,552.144 637.798,546.607 642.938,540.802 648.078,534.726 653.218,528.373 658.359,521.743 663.499,514.831 668.639,507.637 673.779,500.16 
  678.92,492.402 684.06,484.362 689.2,476.044 694.34,467.452 699.48,458.589 704.621,449.462 709.761,440.079 714.901,430.446 720.041,420.575 725.181,410.475 
  730.322,400.159 735.462,389.641 740.602,378.935 745.742,368.058 750.883,357.026 756.023,345.859 761.163,334.576 766.303,323.198 771.443,311.748 776.584,300.249 
  781.724,288.724 786.864,277.199 792.004,265.701 797.144,254.255 802.285,242.89 807.425,231.633 812.565,220.512 817.705,209.558 822.846,198.798 827.986,188.262 
  833.126,177.979 838.266,167.978 843.406,158.287 848.547,148.935 853.687,139.949 858.827,131.356 863.967,123.183 869.107,115.454 874.248,108.194 879.388,101.424 
  884.528,95.1675 889.668,89.4434 894.809,84.2704 899.949,79.6652 905.089,75.6429 910.229,72.2166 915.369,69.3977 920.51,67.1954 925.65,65.6171 930.79,64.668 
  935.93,64.3513 941.07,64.668 946.211,65.6171 951.351,67.1954 956.491,69.3977 961.631,72.2166 966.772,75.6429 971.912,79.6652 977.052,84.2704 982.192,89.4434 
  987.332,95.1675 992.473,101.424 997.613,108.194 1002.75,115.454 1007.89,123.183 1013.03,131.356 1018.17,139.949 1023.31,148.935 1028.45,158.287 1033.59,167.978 
  1038.73,177.979 1043.87,188.262 1049.01,198.798 1054.16,209.558 1059.3,220.512 1064.44,231.633 1069.58,242.89 1074.72,254.255 1079.86,265.701 1085,277.199 
  1090.14,288.724 1095.28,300.249 1100.42,311.748 1105.56,323.198 1110.7,334.576 1115.84,345.859 1120.98,357.026 1126.12,368.058 1131.26,378.935 1136.4,389.641 
  1141.54,400.159 1146.68,410.475 1151.82,420.575 1156.96,430.446 1162.1,440.079 1167.24,449.462 1172.38,458.589 1177.52,467.452 1182.66,476.044 1187.8,484.362 
  1192.94,492.402 1198.08,500.16 1203.22,507.637 1208.36,514.831 1213.5,521.743 1218.64,528.373 1223.78,534.726 1228.92,540.802 1234.06,546.607 1239.2,552.144 
  1244.34,557.419 1249.48,562.436 1254.62,567.202 1259.76,571.723 1264.9,576.006 1270.04,580.058 1275.18,583.886 1280.32,587.497 1285.46,590.9 1290.6,594.102 
  1295.75,597.111 1300.89,599.935 1306.03,602.582 1311.17,605.06 1316.31,607.376 1321.45,609.538 1326.59,611.554 1331.73,613.431 1336.87,615.177 1342.01,616.799 
  1347.15,618.303 1352.29,619.697 1357.43,620.987 1362.57,622.178 1367.71,623.278 1372.85,624.292 1377.99,625.226 1383.13,626.084 1388.27,626.872 1393.41,627.595 
  1398.55,628.258 
  "/>
<polyline clip-path="url(#clip102)" style="stroke:#c271d2; stroke-linecap:round; stroke-linejoin:round; stroke-width:12; stroke-opacity:1; fill:none" points="
  473.311,628.258 478.451,627.595 483.591,626.872 488.732,626.084 493.872,625.226 499.012,624.292 504.152,623.278 509.292,622.178 514.433,620.987 519.573,619.697 
  524.713,618.303 529.853,616.799 534.994,615.177 540.134,613.431 545.274,611.554 550.414,609.538 555.554,607.376 560.695,605.06 565.835,602.582 570.975,599.935 
  576.115,597.111 581.255,594.102 586.396,590.9 591.536,587.497 596.676,583.886 601.816,580.058 606.957,576.006 612.097,571.723 617.237,567.202 622.377,562.436 
  627.517,557.419 632.658,552.144 637.798,546.607 642.938,540.802 648.078,534.726 653.218,528.373 658.359,521.743 663.499,514.831 668.639,507.637 673.779,500.16 
  678.92,492.402 684.06,484.362 689.2,476.044 694.34,467.452 699.48,458.589 704.621,449.462 709.761,440.079 714.901,430.446 720.041,420.575 725.181,410.475 
  730.322,400.159 735.462,389.641 740.602,378.935 745.742,368.058 750.883,357.026 756.023,345.859 761.163,334.576 766.303,323.198 771.443,311.748 776.584,300.249 
  781.724,288.724 786.864,277.199 792.004,265.701 797.144,254.255 802.285,242.89 807.425,231.633 812.565,220.512 817.705,209.558 822.846,198.798 827.986,188.262 
  833.126,177.979 838.266,167.978 843.406,158.287 848.547,148.935 853.687,139.949 858.827,131.356 863.967,123.183 869.107,115.454 874.248,108.194 879.388,101.424 
  884.528,95.1675 889.668,89.4434 894.809,84.2704 899.949,79.6652 905.089,75.6429 910.229,72.2166 915.369,69.3977 920.51,67.1954 925.65,65.6171 930.79,64.668 
  935.93,64.3513 941.07,64.668 946.211,65.6171 951.351,67.1954 956.491,69.3977 961.631,72.2166 966.772,75.6429 971.912,79.6652 977.052,84.2704 982.192,89.4434 
  987.332,95.1675 992.473,101.424 997.613,108.194 1002.75,115.454 1007.89,123.183 1013.03,131.356 1018.17,139.949 1023.31,148.935 1028.45,158.287 1033.59,167.978 
  1038.73,177.979 1043.87,188.262 1049.01,198.798 1054.16,209.558 1059.3,220.512 1064.44,231.633 1069.58,242.89 1074.72,254.255 1079.86,265.701 1085,277.199 
  1090.14,288.724 1095.28,300.249 1100.42,311.748 1105.56,323.198 1110.7,334.576 1115.84,345.859 1120.98,357.026 1126.12,368.058 1131.26,378.935 1136.4,389.641 
  1141.54,400.159 1146.68,410.475 1151.82,420.575 1156.96,430.446 1162.1,440.079 1167.24,449.462 1172.38,458.589 1177.52,467.452 1182.66,476.044 1187.8,484.362 
  1192.94,492.402 1198.08,500.16 1203.22,507.637 1208.36,514.831 1213.5,521.743 1218.64,528.373 1223.78,534.726 1228.92,540.802 1234.06,546.607 1239.2,552.144 
  1244.34,557.419 1249.48,562.436 1254.62,567.202 1259.76,571.723 1264.9,576.006 1270.04,580.058 1275.18,583.886 1280.32,587.497 1285.46,590.9 1290.6,594.102 
  1295.75,597.111 1300.89,599.935 1306.03,602.582 1311.17,605.06 1316.31,607.376 1321.45,609.538 1326.59,611.554 1331.73,613.431 1336.87,615.177 1342.01,616.799 
  1347.15,618.303 1352.29,619.697 1357.43,620.987 1362.57,622.178 1367.71,623.278 1372.85,624.292 1377.99,625.226 1383.13,626.084 1388.27,626.872 1393.41,627.595 
  1398.55,628.258 
  "/>
<polyline clip-path="url(#clip102)" style="stroke:#c271d2; stroke-linecap:round; stroke-linejoin:round; stroke-width:12; stroke-opacity:1; fill:none" points="
  288.263,634.593 293.403,634.593 298.544,634.593 303.684,634.593 308.824,634.593 313.964,634.593 319.105,634.593 324.245,634.593 329.385,634.593 334.525,634.593 
  339.665,634.593 344.806,634.593 349.946,634.593 355.086,634.593 360.226,634.593 365.366,634.593 370.507,634.593 375.647,634.593 380.787,634.593 385.927,634.593 
  391.068,634.593 396.208,634.593 401.348,634.593 406.488,634.593 411.628,634.593 416.769,634.593 421.909,634.593 427.049,634.593 432.189,634.593 437.329,634.593 
  442.47,634.593 447.61,634.593 452.75,634.593 457.89,634.593 463.031,634.593 468.171,634.593 473.311,634.593 
  "/>
<polyline clip-path="url(#clip102)" style="stroke:#c271d2; stroke-linecap:round; stroke-linejoin:round; stroke-width:12; stroke-opacity:1; fill:none" points="
  1398.55,634.593 1403.69,634.593 1408.83,634.593 1413.97,634.593 1419.11,634.593 1424.25,634.593 1429.39,634.593 1434.53,634.593 1439.67,634.593 1444.81,634.593 
  1449.95,634.593 1455.09,634.593 1460.23,634.593 1465.37,634.593 1470.51,634.593 1475.65,634.593 1480.79,634.593 1485.93,634.593 1491.07,634.593 1496.21,634.593 
  1501.35,634.593 1506.49,634.593 1511.63,634.593 1516.77,634.593 1521.91,634.593 1527.05,634.593 1532.2,634.593 1537.34,634.593 1542.48,634.593 1547.62,634.593 
  1552.76,634.593 1557.9,634.593 1563.04,634.593 1568.18,634.593 1573.32,634.593 1578.46,634.593 1583.6,634.593 
  "/>
<polyline clip-path="url(#clip102)" style="stroke:#ffffff; stroke-linecap:round; stroke-linejoin:round; stroke-width:4; stroke-opacity:1; fill:none" points="
  935.93,1256.16 935.93,-557.212 
  "/>
<path clip-path="url(#clip100)" d="M923.595 577.568 L878.861 577.568 L878.861 572.244 L899 572.244 Q903.195 572.244 905.337 570.248 Q907.478 568.251 907.478 564.345 Q907.478 560.063 905.047 557.922 Q902.617 555.751 897.756 555.751 L878.861 555.751 L878.861 550.427 L903.803 550.427 Q905.539 550.427 906.378 549.936 Q907.188 549.415 907.188 548.344 Q907.188 548.084 907.044 547.621 Q906.87 547.158 906.523 546.348 L910.805 546.348 Q911.471 547.534 911.789 548.605 Q912.107 549.646 912.107 550.659 Q912.107 552.655 910.979 553.842 Q909.85 555.028 907.536 555.462 Q909.822 556.909 910.979 559.021 Q912.107 561.104 912.107 563.94 Q912.107 566.891 910.979 568.975 Q909.85 571.029 907.594 572.244 L923.595 572.244 L923.595 577.568 Z" fill="#ffffff" fill-rule="evenodd" fill-opacity="1" /><path clip-path="url(#clip100)" d="M884.359 519.785 L884.359 482.691 L889.22 482.691 L889.22 519.785 L884.359 519.785 M896.164 519.785 L896.164 482.691 L901.083 482.691 L901.083 519.785 L896.164 519.785 Z" fill="#ffffff" fill-rule="evenodd" fill-opacity="1" /><path clip-path="url(#clip100)" d="M910.371 451.065 L905.047 451.065 Q906.089 448.865 906.639 446.609 Q907.188 444.352 907.188 442.181 Q907.188 436.394 903.311 433.356 Q899.405 430.289 891.477 429.855 Q893.965 431.533 895.296 434.109 Q896.627 436.684 896.627 439.809 Q896.627 446.29 892.721 450.081 Q888.786 453.842 881.986 453.842 Q875.331 453.842 871.309 449.907 Q867.287 445.972 867.287 439.433 Q867.287 431.938 873.045 428.003 Q878.774 424.039 889.712 424.039 Q899.926 424.039 906.031 428.9 Q912.107 433.732 912.107 441.921 Q912.107 444.12 911.673 446.377 Q911.239 448.634 910.371 451.065 M892.055 439.433 Q892.055 435.497 889.364 433.212 Q886.674 430.897 881.986 430.897 Q877.328 430.897 874.637 433.212 Q871.917 435.497 871.917 439.433 Q871.917 443.368 874.637 445.683 Q877.328 447.968 881.986 447.968 Q886.674 447.968 889.364 445.683 Q892.055 443.368 892.055 439.433 Z" fill="#ffffff" fill-rule="evenodd" fill-opacity="1" /><path clip-path="url(#clip100)" d="M871.917 401.036 Q871.917 405.55 876.373 407.836 Q880.8 410.093 889.712 410.093 Q898.595 410.093 903.051 407.836 Q907.478 405.55 907.478 401.036 Q907.478 396.493 903.051 394.236 Q898.595 391.95 889.712 391.95 Q880.8 391.95 876.373 394.236 Q871.917 396.493 871.917 401.036 M867.287 401.036 Q867.287 393.773 873.045 389.954 Q878.774 386.105 889.712 386.105 Q900.62 386.105 906.378 389.954 Q912.107 393.773 912.107 401.036 Q912.107 408.299 906.378 412.147 Q900.62 415.966 889.712 415.966 Q878.774 415.966 873.045 412.147 Q867.287 408.299 867.287 401.036 Z" fill="#ffffff" fill-rule="evenodd" fill-opacity="1" /><path clip-path="url(#clip100)" d="M903.919 375.833 L903.919 369.728 L911.268 369.728 L911.268 375.833 L903.919 375.833 Z" fill="#ffffff" fill-rule="evenodd" fill-opacity="1" /><path clip-path="url(#clip100)" d="M871.917 344.497 Q871.917 349.011 876.373 351.297 Q880.8 353.553 889.712 353.553 Q898.595 353.553 903.051 351.297 Q907.478 349.011 907.478 344.497 Q907.478 339.954 903.051 337.697 Q898.595 335.411 889.712 335.411 Q880.8 335.411 876.373 337.697 Q871.917 339.954 871.917 344.497 M867.287 344.497 Q867.287 337.234 873.045 333.415 Q878.774 329.566 889.712 329.566 Q900.62 329.566 906.378 333.415 Q912.107 337.234 912.107 344.497 Q912.107 351.76 906.378 355.608 Q900.62 359.427 889.712 359.427 Q878.774 359.427 873.045 355.608 Q867.287 351.76 867.287 344.497 Z" fill="#ffffff" fill-rule="evenodd" fill-opacity="1" /></svg>
