<?xml version="1.0" encoding="utf-8"?>
<svg xmlns="http://www.w3.org/2000/svg" xmlns:xlink="http://www.w3.org/1999/xlink" width="700" height="500" viewBox="0 0 2800 2000">
<defs>
  <clipPath id="clip080">
    <rect x="0" y="0" width="2800" height="2000"/>
  </clipPath>
</defs>
<path clip-path="url(#clip080)" d="
M0 2000 L2800 2000 L2800 0 L0 0  Z
  " fill="#ffffff" fill-rule="evenodd" fill-opacity="1"/>
<defs>
  <clipPath id="clip081">
    <rect x="560" y="0" width="1961" height="1961"/>
  </clipPath>
</defs>
<path clip-path="url(#clip080)" d="
M292.926 1787.41 L2768.5 1787.41 L2768.5 31.4961 L292.926 31.4961  Z
  " fill="#ffffff" fill-rule="evenodd" fill-opacity="1"/>
<defs>
  <clipPath id="clip082">
    <rect x="292" y="31" width="2477" height="1757"/>
  </clipPath>
</defs>
<polyline clip-path="url(#clip082)" style="stroke:#000000; stroke-linecap:butt; stroke-linejoin:round; stroke-width:2; stroke-opacity:0.1; fill:none" points="
  364.286,1787.41 364.286,31.4961 
  "/>
<polyline clip-path="url(#clip082)" style="stroke:#000000; stroke-linecap:butt; stroke-linejoin:round; stroke-width:2; stroke-opacity:0.1; fill:none" points="
  1012.3,1787.41 1012.3,31.4961 
  "/>
<polyline clip-path="url(#clip082)" style="stroke:#000000; stroke-linecap:butt; stroke-linejoin:round; stroke-width:2; stroke-opacity:0.1; fill:none" points="
  1660.32,1787.41 1660.32,31.4961 
  "/>
<polyline clip-path="url(#clip082)" style="stroke:#000000; stroke-linecap:butt; stroke-linejoin:round; stroke-width:2; stroke-opacity:0.1; fill:none" points="
  2308.33,1787.41 2308.33,31.4961 
  "/>
<polyline clip-path="url(#clip080)" style="stroke:#000000; stroke-linecap:butt; stroke-linejoin:round; stroke-width:4; stroke-opacity:1; fill:none" points="
  292.926,1787.41 2768.5,1787.41 
  "/>
<polyline clip-path="url(#clip080)" style="stroke:#000000; stroke-linecap:butt; stroke-linejoin:round; stroke-width:4; stroke-opacity:1; fill:none" points="
  364.286,1787.41 364.286,1768.51 
  "/>
<polyline clip-path="url(#clip080)" style="stroke:#000000; stroke-linecap:butt; stroke-linejoin:round; stroke-width:4; stroke-opacity:1; fill:none" points="
  1012.3,1787.41 1012.3,1768.51 
  "/>
<polyline clip-path="url(#clip080)" style="stroke:#000000; stroke-linecap:butt; stroke-linejoin:round; stroke-width:4; stroke-opacity:1; fill:none" points="
  1660.32,1787.41 1660.32,1768.51 
  "/>
<polyline clip-path="url(#clip080)" style="stroke:#000000; stroke-linecap:butt; stroke-linejoin:round; stroke-width:4; stroke-opacity:1; fill:none" points="
  2308.33,1787.41 2308.33,1768.51 
  "/>
<path clip-path="url(#clip080)" d="M364.286 1824.79 Q358.869 1824.79 356.126 1830.14 Q353.418 1835.45 353.418 1846.15 Q353.418 1856.81 356.126 1862.15 Q358.869 1867.47 364.286 1867.47 Q369.737 1867.47 372.445 1862.15 Q375.188 1856.81 375.188 1846.15 Q375.188 1835.45 372.445 1830.14 Q369.737 1824.79 364.286 1824.79 M364.286 1819.24 Q373.001 1819.24 377.584 1826.15 Q382.202 1833.02 382.202 1846.15 Q382.202 1859.24 377.584 1866.15 Q373.001 1873.02 364.286 1873.02 Q355.57 1873.02 350.952 1866.15 Q346.369 1859.24 346.369 1846.15 Q346.369 1833.02 350.952 1826.15 Q355.57 1819.24 364.286 1819.24 Z" fill="#000000" fill-rule="evenodd" fill-opacity="1" /><path clip-path="url(#clip080)" d="M974.351 1820.18 L1001.89 1820.18 L1001.89 1826.08 L980.774 1826.08 L980.774 1838.79 Q982.302 1838.27 983.83 1838.02 Q985.358 1837.75 986.885 1837.75 Q995.566 1837.75 1000.64 1842.5 Q1005.7 1847.26 1005.7 1855.38 Q1005.7 1863.75 1000.5 1868.4 Q995.288 1873.02 985.809 1873.02 Q982.545 1873.02 979.142 1872.47 Q975.774 1871.91 972.163 1870.8 L972.163 1863.75 Q975.288 1865.45 978.622 1866.29 Q981.955 1867.12 985.67 1867.12 Q991.677 1867.12 995.184 1863.96 Q998.691 1860.8 998.691 1855.38 Q998.691 1849.97 995.184 1846.81 Q991.677 1843.65 985.67 1843.65 Q982.858 1843.65 980.045 1844.27 Q977.267 1844.9 974.351 1846.22 L974.351 1820.18 Z" fill="#000000" fill-rule="evenodd" fill-opacity="1" /><path clip-path="url(#clip080)" d="M1034.52 1824.79 Q1029.11 1824.79 1026.36 1830.14 Q1023.66 1835.45 1023.66 1846.15 Q1023.66 1856.81 1026.36 1862.15 Q1029.11 1867.47 1034.52 1867.47 Q1039.98 1867.47 1042.68 1862.15 Q1045.43 1856.81 1045.43 1846.15 Q1045.43 1835.45 1042.68 1830.14 Q1039.98 1824.79 1034.52 1824.79 M1034.52 1819.24 Q1043.24 1819.24 1047.82 1826.15 Q1052.44 1833.02 1052.44 1846.15 Q1052.44 1859.24 1047.82 1866.15 Q1043.24 1873.02 1034.52 1873.02 Q1025.81 1873.02 1021.19 1866.15 Q1016.61 1859.24 1016.61 1846.15 Q1016.61 1833.02 1021.19 1826.15 Q1025.81 1819.24 1034.52 1819.24 Z" fill="#000000" fill-rule="evenodd" fill-opacity="1" /><path clip-path="url(#clip080)" d="M1599.73 1866.11 L1611.19 1866.11 L1611.19 1826.56 L1598.72 1829.06 L1598.72 1822.68 L1611.12 1820.18 L1618.13 1820.18 L1618.13 1866.11 L1629.59 1866.11 L1629.59 1872.02 L1599.73 1872.02 L1599.73 1866.11 Z" fill="#000000" fill-rule="evenodd" fill-opacity="1" /><path clip-path="url(#clip080)" d="M1658.76 1824.79 Q1653.34 1824.79 1650.6 1830.14 Q1647.89 1835.45 1647.89 1846.15 Q1647.89 1856.81 1650.6 1862.15 Q1653.34 1867.47 1658.76 1867.47 Q1664.21 1867.47 1666.92 1862.15 Q1669.66 1856.81 1669.66 1846.15 Q1669.66 1835.45 1666.92 1830.14 Q1664.21 1824.79 1658.76 1824.79 M1658.76 1819.24 Q1667.47 1819.24 1672.05 1826.15 Q1676.67 1833.02 1676.67 1846.15 Q1676.67 1859.24 1672.05 1866.15 Q1667.47 1873.02 1658.76 1873.02 Q1650.04 1873.02 1645.42 1866.15 Q1640.84 1859.24 1640.84 1846.15 Q1640.84 1833.02 1645.42 1826.15 Q1650.04 1819.24 1658.76 1819.24 Z" fill="#000000" fill-rule="evenodd" fill-opacity="1" /><path clip-path="url(#clip080)" d="M1704 1824.79 Q1698.58 1824.79 1695.84 1830.14 Q1693.13 1835.45 1693.13 1846.15 Q1693.13 1856.81 1695.84 1862.15 Q1698.58 1867.47 1704 1867.47 Q1709.45 1867.47 1712.16 1862.15 Q1714.9 1856.81 1714.9 1846.15 Q1714.9 1835.45 1712.16 1830.14 Q1709.45 1824.79 1704 1824.79 M1704 1819.24 Q1712.71 1819.24 1717.3 1826.15 Q1721.92 1833.02 1721.92 1846.15 Q1721.92 1859.24 1717.3 1866.15 Q1712.71 1873.02 1704 1873.02 Q1695.28 1873.02 1690.67 1866.15 Q1686.08 1859.24 1686.08 1846.15 Q1686.08 1833.02 1690.67 1826.15 Q1695.28 1819.24 1704 1819.24 Z" fill="#000000" fill-rule="evenodd" fill-opacity="1" /><path clip-path="url(#clip080)" d="M2247.74 1866.11 L2259.2 1866.11 L2259.2 1826.56 L2246.74 1829.06 L2246.74 1822.68 L2259.13 1820.18 L2266.15 1820.18 L2266.15 1866.11 L2277.61 1866.11 L2277.61 1872.02 L2247.74 1872.02 L2247.74 1866.11 Z" fill="#000000" fill-rule="evenodd" fill-opacity="1" /><path clip-path="url(#clip080)" d="M2291.84 1820.18 L2319.38 1820.18 L2319.38 1826.08 L2298.27 1826.08 L2298.27 1838.79 Q2299.79 1838.27 2301.32 1838.02 Q2302.85 1837.75 2304.38 1837.75 Q2313.06 1837.75 2318.13 1842.5 Q2323.2 1847.26 2323.2 1855.38 Q2323.2 1863.75 2317.99 1868.4 Q2312.78 1873.02 2303.3 1873.02 Q2300.04 1873.02 2296.63 1872.47 Q2293.27 1871.91 2289.65 1870.8 L2289.65 1863.75 Q2292.78 1865.45 2296.11 1866.29 Q2299.45 1867.12 2303.16 1867.12 Q2309.17 1867.12 2312.67 1863.96 Q2316.18 1860.8 2316.18 1855.38 Q2316.18 1849.97 2312.67 1846.81 Q2309.17 1843.65 2303.16 1843.65 Q2300.35 1843.65 2297.54 1844.27 Q2294.76 1844.9 2291.84 1846.22 L2291.84 1820.18 Z" fill="#000000" fill-rule="evenodd" fill-opacity="1" /><path clip-path="url(#clip080)" d="M2352.01 1824.79 Q2346.6 1824.79 2343.86 1830.14 Q2341.15 1835.45 2341.15 1846.15 Q2341.15 1856.81 2343.86 1862.15 Q2346.6 1867.47 2352.01 1867.47 Q2357.47 1867.47 2360.17 1862.15 Q2362.92 1856.81 2362.92 1846.15 Q2362.92 1835.45 2360.17 1830.14 Q2357.47 1824.79 2352.01 1824.79 M2352.01 1819.24 Q2360.73 1819.24 2365.31 1826.15 Q2369.93 1833.02 2369.93 1846.15 Q2369.93 1859.24 2365.31 1866.15 Q2360.73 1873.02 2352.01 1873.02 Q2343.3 1873.02 2338.68 1866.15 Q2334.1 1859.24 2334.1 1846.15 Q2334.1 1833.02 2338.68 1826.15 Q2343.3 1819.24 2352.01 1819.24 Z" fill="#000000" fill-rule="evenodd" fill-opacity="1" /><path clip-path="url(#clip080)" d="M1334.21 1926.32 L1334.21 1936.18 Q1329.49 1931.78 1324.12 1929.6 Q1318.79 1927.43 1312.78 1927.43 Q1300.92 1927.43 1294.63 1934.7 Q1288.33 1941.92 1288.33 1955.62 Q1288.33 1969.28 1294.63 1976.55 Q1300.92 1983.77 1312.78 1983.77 Q1318.79 1983.77 1324.12 1981.59 Q1329.49 1979.42 1334.21 1975.02 L1334.21 1984.79 Q1329.3 1988.12 1323.79 1989.79 Q1318.33 1991.45 1312.22 1991.45 Q1296.53 1991.45 1287.5 1981.87 Q1278.47 1972.24 1278.47 1955.62 Q1278.47 1938.95 1287.5 1929.37 Q1296.53 1919.74 1312.22 1919.74 Q1318.42 1919.74 1323.89 1921.41 Q1329.4 1923.03 1334.21 1926.32 Z" fill="#000000" fill-rule="evenodd" fill-opacity="1" /><path clip-path="url(#clip080)" d="M1371.85 1964.05 Q1361.53 1964.05 1357.54 1966.41 Q1353.56 1968.77 1353.56 1974.46 Q1353.56 1979 1356.53 1981.69 Q1359.54 1984.32 1364.67 1984.32 Q1371.76 1984.32 1376.02 1979.32 Q1380.32 1974.28 1380.32 1965.95 L1380.32 1964.05 L1371.85 1964.05 M1388.84 1960.53 L1388.84 1990.11 L1380.32 1990.11 L1380.32 1982.24 Q1377.41 1986.96 1373.05 1989.23 Q1368.7 1991.45 1362.41 1991.45 Q1354.44 1991.45 1349.72 1987.01 Q1345.04 1982.52 1345.04 1975.02 Q1345.04 1966.27 1350.88 1961.82 Q1356.76 1957.38 1368.38 1957.38 L1380.32 1957.38 L1380.32 1956.55 Q1380.32 1950.67 1376.43 1947.47 Q1372.59 1944.23 1365.6 1944.23 Q1361.16 1944.23 1356.94 1945.3 Q1352.73 1946.36 1348.84 1948.49 L1348.84 1940.62 Q1353.52 1938.82 1357.92 1937.94 Q1362.31 1937.01 1366.48 1937.01 Q1377.73 1937.01 1383.29 1942.84 Q1388.84 1948.68 1388.84 1960.53 Z" fill="#000000" fill-rule="evenodd" fill-opacity="1" /><path clip-path="url(#clip080)" d="M1406.06 1918.08 L1414.63 1918.08 L1414.63 1960.62 L1440.04 1938.26 L1450.92 1938.26 L1423.42 1962.52 L1452.08 1990.11 L1440.97 1990.11 L1414.63 1964.79 L1414.63 1990.11 L1406.06 1990.11 L1406.06 1918.08 Z" fill="#000000" fill-rule="evenodd" fill-opacity="1" /><path clip-path="url(#clip080)" d="M1502.27 1962.06 L1502.27 1966.22 L1463.1 1966.22 Q1463.66 1975.02 1468.38 1979.65 Q1473.15 1984.23 1481.62 1984.23 Q1486.53 1984.23 1491.11 1983.03 Q1495.74 1981.82 1500.28 1979.42 L1500.28 1987.47 Q1495.69 1989.42 1490.88 1990.44 Q1486.06 1991.45 1481.11 1991.45 Q1468.7 1991.45 1461.43 1984.23 Q1454.21 1977.01 1454.21 1964.7 Q1454.21 1951.96 1461.06 1944.51 Q1467.96 1937.01 1479.63 1937.01 Q1490.09 1937.01 1496.16 1943.77 Q1502.27 1950.48 1502.27 1962.06 M1493.75 1959.56 Q1493.66 1952.57 1489.81 1948.4 Q1486.02 1944.23 1479.72 1944.23 Q1472.59 1944.23 1468.28 1948.26 Q1464.03 1952.29 1463.38 1959.6 L1493.75 1959.56 Z" fill="#000000" fill-rule="evenodd" fill-opacity="1" /><path clip-path="url(#clip080)" d="M1549.3 1939.79 L1549.3 1947.84 Q1545.69 1945.99 1541.8 1945.07 Q1537.91 1944.14 1533.75 1944.14 Q1527.4 1944.14 1524.21 1946.08 Q1521.06 1948.03 1521.06 1951.92 Q1521.06 1954.88 1523.33 1956.59 Q1525.6 1958.26 1532.45 1959.79 L1535.37 1960.44 Q1544.44 1962.38 1548.24 1965.95 Q1552.08 1969.46 1552.08 1975.81 Q1552.08 1983.03 1546.34 1987.24 Q1540.65 1991.45 1530.65 1991.45 Q1526.48 1991.45 1521.94 1990.62 Q1517.45 1989.83 1512.45 1988.21 L1512.45 1979.42 Q1517.17 1981.87 1521.76 1983.12 Q1526.34 1984.32 1530.83 1984.32 Q1536.85 1984.32 1540.09 1982.29 Q1543.33 1980.2 1543.33 1976.45 Q1543.33 1972.98 1540.97 1971.13 Q1538.65 1969.28 1530.74 1967.57 L1527.78 1966.87 Q1519.86 1965.2 1516.34 1961.78 Q1512.82 1958.31 1512.82 1952.29 Q1512.82 1944.97 1518.01 1940.99 Q1523.19 1937.01 1532.73 1937.01 Q1537.45 1937.01 1541.62 1937.7 Q1545.78 1938.4 1549.3 1939.79 Z" fill="#000000" fill-rule="evenodd" fill-opacity="1" /><path clip-path="url(#clip080)" d="M1637.59 1923.26 L1637.59 1932.38 Q1632.27 1929.83 1627.54 1928.58 Q1622.82 1927.33 1618.42 1927.33 Q1610.78 1927.33 1606.62 1930.3 Q1602.5 1933.26 1602.5 1938.72 Q1602.5 1943.31 1605.23 1945.67 Q1608.01 1947.98 1615.69 1949.42 L1621.34 1950.58 Q1631.8 1952.57 1636.76 1957.61 Q1641.76 1962.61 1641.76 1971.04 Q1641.76 1981.08 1635 1986.27 Q1628.28 1991.45 1615.27 1991.45 Q1610.37 1991.45 1604.81 1990.34 Q1599.3 1989.23 1593.38 1987.06 L1593.38 1977.43 Q1599.07 1980.62 1604.53 1982.24 Q1610 1983.86 1615.27 1983.86 Q1623.28 1983.86 1627.64 1980.71 Q1631.99 1977.57 1631.99 1971.73 Q1631.99 1966.64 1628.84 1963.77 Q1625.74 1960.9 1618.61 1959.46 L1612.91 1958.35 Q1602.45 1956.27 1597.77 1951.83 Q1593.1 1947.38 1593.1 1939.46 Q1593.1 1930.3 1599.53 1925.02 Q1606.02 1919.74 1617.36 1919.74 Q1622.22 1919.74 1627.27 1920.62 Q1632.31 1921.5 1637.59 1923.26 Z" fill="#000000" fill-rule="evenodd" fill-opacity="1" /><path clip-path="url(#clip080)" d="M1676.06 1944.23 Q1669.21 1944.23 1665.23 1949.6 Q1661.25 1954.93 1661.25 1964.23 Q1661.25 1973.54 1665.18 1978.91 Q1669.16 1984.23 1676.06 1984.23 Q1682.87 1984.23 1686.85 1978.86 Q1690.83 1973.49 1690.83 1964.23 Q1690.83 1955.02 1686.85 1949.65 Q1682.87 1944.23 1676.06 1944.23 M1676.06 1937.01 Q1687.17 1937.01 1693.52 1944.23 Q1699.86 1951.45 1699.86 1964.23 Q1699.86 1976.96 1693.52 1984.23 Q1687.17 1991.45 1676.06 1991.45 Q1664.9 1991.45 1658.56 1984.23 Q1652.27 1976.96 1652.27 1964.23 Q1652.27 1951.45 1658.56 1944.23 Q1664.9 1937.01 1676.06 1937.01 Z" fill="#000000" fill-rule="evenodd" fill-opacity="1" /><path clip-path="url(#clip080)" d="M1713.98 1918.08 L1722.5 1918.08 L1722.5 1990.11 L1713.98 1990.11 L1713.98 1918.08 Z" fill="#000000" fill-rule="evenodd" fill-opacity="1" /><path clip-path="url(#clip080)" d="M1774.44 1946.13 L1774.44 1918.08 L1782.96 1918.08 L1782.96 1990.11 L1774.44 1990.11 L1774.44 1982.33 Q1771.76 1986.96 1767.64 1989.23 Q1763.56 1991.45 1757.82 1991.45 Q1748.42 1991.45 1742.5 1983.95 Q1736.62 1976.45 1736.62 1964.23 Q1736.62 1952.01 1742.5 1944.51 Q1748.42 1937.01 1757.82 1937.01 Q1763.56 1937.01 1767.64 1939.28 Q1771.76 1941.5 1774.44 1946.13 M1745.41 1964.23 Q1745.41 1973.63 1749.26 1979 Q1753.14 1984.32 1759.9 1984.32 Q1766.66 1984.32 1770.55 1979 Q1774.44 1973.63 1774.44 1964.23 Q1774.44 1954.83 1770.55 1949.51 Q1766.66 1944.14 1759.9 1944.14 Q1753.14 1944.14 1749.26 1949.51 Q1745.41 1954.83 1745.41 1964.23 Z" fill="#000000" fill-rule="evenodd" fill-opacity="1" /><polyline clip-path="url(#clip082)" style="stroke:#000000; stroke-linecap:butt; stroke-linejoin:round; stroke-width:2; stroke-opacity:0.1; fill:none" points="
  292.926,1737.71 2768.5,1737.71 
  "/>
<polyline clip-path="url(#clip082)" style="stroke:#000000; stroke-linecap:butt; stroke-linejoin:round; stroke-width:2; stroke-opacity:0.1; fill:none" points="
  292.926,1636.09 2768.5,1636.09 
  "/>
<polyline clip-path="url(#clip082)" style="stroke:#000000; stroke-linecap:butt; stroke-linejoin:round; stroke-width:2; stroke-opacity:0.1; fill:none" points="
  292.926,1534.46 2768.5,1534.46 
  "/>
<polyline clip-path="url(#clip082)" style="stroke:#000000; stroke-linecap:butt; stroke-linejoin:round; stroke-width:2; stroke-opacity:0.1; fill:none" points="
  292.926,1432.83 2768.5,1432.83 
  "/>
<polyline clip-path="url(#clip082)" style="stroke:#000000; stroke-linecap:butt; stroke-linejoin:round; stroke-width:2; stroke-opacity:0.1; fill:none" points="
  292.926,1331.2 2768.5,1331.2 
  "/>
<polyline clip-path="url(#clip082)" style="stroke:#000000; stroke-linecap:butt; stroke-linejoin:round; stroke-width:2; stroke-opacity:0.1; fill:none" points="
  292.926,1229.58 2768.5,1229.58 
  "/>
<polyline clip-path="url(#clip082)" style="stroke:#000000; stroke-linecap:butt; stroke-linejoin:round; stroke-width:2; stroke-opacity:0.1; fill:none" points="
  292.926,1127.95 2768.5,1127.95 
  "/>
<polyline clip-path="url(#clip082)" style="stroke:#000000; stroke-linecap:butt; stroke-linejoin:round; stroke-width:2; stroke-opacity:0.1; fill:none" points="
  292.926,1026.32 2768.5,1026.32 
  "/>
<polyline clip-path="url(#clip082)" style="stroke:#000000; stroke-linecap:butt; stroke-linejoin:round; stroke-width:2; stroke-opacity:0.1; fill:none" points="
  292.926,924.696 2768.5,924.696 
  "/>
<polyline clip-path="url(#clip082)" style="stroke:#000000; stroke-linecap:butt; stroke-linejoin:round; stroke-width:2; stroke-opacity:0.1; fill:none" points="
  292.926,823.069 2768.5,823.069 
  "/>
<polyline clip-path="url(#clip082)" style="stroke:#000000; stroke-linecap:butt; stroke-linejoin:round; stroke-width:2; stroke-opacity:0.1; fill:none" points="
  292.926,721.442 2768.5,721.442 
  "/>
<polyline clip-path="url(#clip082)" style="stroke:#000000; stroke-linecap:butt; stroke-linejoin:round; stroke-width:2; stroke-opacity:0.1; fill:none" points="
  292.926,619.815 2768.5,619.815 
  "/>
<polyline clip-path="url(#clip082)" style="stroke:#000000; stroke-linecap:butt; stroke-linejoin:round; stroke-width:2; stroke-opacity:0.1; fill:none" points="
  292.926,518.188 2768.5,518.188 
  "/>
<polyline clip-path="url(#clip082)" style="stroke:#000000; stroke-linecap:butt; stroke-linejoin:round; stroke-width:2; stroke-opacity:0.1; fill:none" points="
  292.926,416.561 2768.5,416.561 
  "/>
<polyline clip-path="url(#clip082)" style="stroke:#000000; stroke-linecap:butt; stroke-linejoin:round; stroke-width:2; stroke-opacity:0.1; fill:none" points="
  292.926,314.934 2768.5,314.934 
  "/>
<polyline clip-path="url(#clip082)" style="stroke:#000000; stroke-linecap:butt; stroke-linejoin:round; stroke-width:2; stroke-opacity:0.1; fill:none" points="
  292.926,213.307 2768.5,213.307 
  "/>
<polyline clip-path="url(#clip082)" style="stroke:#000000; stroke-linecap:butt; stroke-linejoin:round; stroke-width:2; stroke-opacity:0.1; fill:none" points="
  292.926,111.68 2768.5,111.68 
  "/>
<polyline clip-path="url(#clip080)" style="stroke:#000000; stroke-linecap:butt; stroke-linejoin:round; stroke-width:4; stroke-opacity:1; fill:none" points="
  292.926,1787.41 292.926,31.4961 
  "/>
<polyline clip-path="url(#clip080)" style="stroke:#000000; stroke-linecap:butt; stroke-linejoin:round; stroke-width:4; stroke-opacity:1; fill:none" points="
  292.926,1737.71 311.824,1737.71 
  "/>
<polyline clip-path="url(#clip080)" style="stroke:#000000; stroke-linecap:butt; stroke-linejoin:round; stroke-width:4; stroke-opacity:1; fill:none" points="
  292.926,1636.09 311.824,1636.09 
  "/>
<polyline clip-path="url(#clip080)" style="stroke:#000000; stroke-linecap:butt; stroke-linejoin:round; stroke-width:4; stroke-opacity:1; fill:none" points="
  292.926,1534.46 311.824,1534.46 
  "/>
<polyline clip-path="url(#clip080)" style="stroke:#000000; stroke-linecap:butt; stroke-linejoin:round; stroke-width:4; stroke-opacity:1; fill:none" points="
  292.926,1432.83 311.824,1432.83 
  "/>
<polyline clip-path="url(#clip080)" style="stroke:#000000; stroke-linecap:butt; stroke-linejoin:round; stroke-width:4; stroke-opacity:1; fill:none" points="
  292.926,1331.2 311.824,1331.2 
  "/>
<polyline clip-path="url(#clip080)" style="stroke:#000000; stroke-linecap:butt; stroke-linejoin:round; stroke-width:4; stroke-opacity:1; fill:none" points="
  292.926,1229.58 311.824,1229.58 
  "/>
<polyline clip-path="url(#clip080)" style="stroke:#000000; stroke-linecap:butt; stroke-linejoin:round; stroke-width:4; stroke-opacity:1; fill:none" points="
  292.926,1127.95 311.824,1127.95 
  "/>
<polyline clip-path="url(#clip080)" style="stroke:#000000; stroke-linecap:butt; stroke-linejoin:round; stroke-width:4; stroke-opacity:1; fill:none" points="
  292.926,1026.32 311.824,1026.32 
  "/>
<polyline clip-path="url(#clip080)" style="stroke:#000000; stroke-linecap:butt; stroke-linejoin:round; stroke-width:4; stroke-opacity:1; fill:none" points="
  292.926,924.696 311.824,924.696 
  "/>
<polyline clip-path="url(#clip080)" style="stroke:#000000; stroke-linecap:butt; stroke-linejoin:round; stroke-width:4; stroke-opacity:1; fill:none" points="
  292.926,823.069 311.824,823.069 
  "/>
<polyline clip-path="url(#clip080)" style="stroke:#000000; stroke-linecap:butt; stroke-linejoin:round; stroke-width:4; stroke-opacity:1; fill:none" points="
  292.926,721.442 311.824,721.442 
  "/>
<polyline clip-path="url(#clip080)" style="stroke:#000000; stroke-linecap:butt; stroke-linejoin:round; stroke-width:4; stroke-opacity:1; fill:none" points="
  292.926,619.815 311.824,619.815 
  "/>
<polyline clip-path="url(#clip080)" style="stroke:#000000; stroke-linecap:butt; stroke-linejoin:round; stroke-width:4; stroke-opacity:1; fill:none" points="
  292.926,518.188 311.824,518.188 
  "/>
<polyline clip-path="url(#clip080)" style="stroke:#000000; stroke-linecap:butt; stroke-linejoin:round; stroke-width:4; stroke-opacity:1; fill:none" points="
  292.926,416.561 311.824,416.561 
  "/>
<polyline clip-path="url(#clip080)" style="stroke:#000000; stroke-linecap:butt; stroke-linejoin:round; stroke-width:4; stroke-opacity:1; fill:none" points="
  292.926,314.934 311.824,314.934 
  "/>
<polyline clip-path="url(#clip080)" style="stroke:#000000; stroke-linecap:butt; stroke-linejoin:round; stroke-width:4; stroke-opacity:1; fill:none" points="
  292.926,213.307 311.824,213.307 
  "/>
<polyline clip-path="url(#clip080)" style="stroke:#000000; stroke-linecap:butt; stroke-linejoin:round; stroke-width:4; stroke-opacity:1; fill:none" points="
  292.926,111.68 311.824,111.68 
  "/>
<path clip-path="url(#clip080)" d="M233.009 1716.41 Q227.593 1716.41 224.85 1721.76 Q222.141 1727.07 222.141 1737.76 Q222.141 1748.42 224.85 1753.77 Q227.593 1759.08 233.009 1759.08 Q238.461 1759.08 241.169 1753.77 Q243.912 1748.42 243.912 1737.76 Q243.912 1727.07 241.169 1721.76 Q238.461 1716.41 233.009 1716.41 M233.009 1710.85 Q241.725 1710.85 246.308 1717.76 Q250.926 1724.64 250.926 1737.76 Q250.926 1750.85 246.308 1757.76 Q241.725 1764.64 233.009 1764.64 Q224.294 1764.64 219.676 1757.76 Q215.093 1750.85 215.093 1737.76 Q215.093 1724.64 219.676 1717.76 Q224.294 1710.85 233.009 1710.85 Z" fill="#000000" fill-rule="evenodd" fill-opacity="1" /><path clip-path="url(#clip080)" d="M173.982 1656.1 L185.44 1656.1 L185.44 1616.55 L172.975 1619.05 L172.975 1612.67 L185.371 1610.17 L192.385 1610.17 L192.385 1656.1 L203.843 1656.1 L203.843 1662.01 L173.982 1662.01 L173.982 1656.1 Z" fill="#000000" fill-rule="evenodd" fill-opacity="1" /><path clip-path="url(#clip080)" d="M233.009 1614.78 Q227.593 1614.78 224.85 1620.13 Q222.141 1625.44 222.141 1636.14 Q222.141 1646.8 224.85 1652.14 Q227.593 1657.46 233.009 1657.46 Q238.461 1657.46 241.169 1652.14 Q243.912 1646.8 243.912 1636.14 Q243.912 1625.44 241.169 1620.13 Q238.461 1614.78 233.009 1614.78 M233.009 1609.23 Q241.725 1609.23 246.308 1616.14 Q250.926 1623.01 250.926 1636.14 Q250.926 1649.23 246.308 1656.14 Q241.725 1663.01 233.009 1663.01 Q224.294 1663.01 219.676 1656.14 Q215.093 1649.23 215.093 1636.14 Q215.093 1623.01 219.676 1616.14 Q224.294 1609.23 233.009 1609.23 Z" fill="#000000" fill-rule="evenodd" fill-opacity="1" /><path clip-path="url(#clip080)" d="M178.808 1554.48 L203.287 1554.48 L203.287 1560.38 L170.371 1560.38 L170.371 1554.48 Q174.364 1550.34 181.239 1543.4 Q188.149 1536.42 189.919 1534.41 Q193.287 1530.62 194.607 1528.02 Q195.961 1525.38 195.961 1522.84 Q195.961 1518.71 193.044 1516.11 Q190.163 1513.5 185.51 1513.5 Q182.211 1513.5 178.531 1514.65 Q174.885 1515.8 170.718 1518.12 L170.718 1511.04 Q174.954 1509.34 178.635 1508.47 Q182.315 1507.6 185.371 1507.6 Q193.426 1507.6 198.218 1511.63 Q203.01 1515.66 203.01 1522.39 Q203.01 1525.59 201.794 1528.47 Q200.614 1531.32 197.454 1535.2 Q196.586 1536.21 191.933 1541.04 Q187.281 1545.83 178.808 1554.48 Z" fill="#000000" fill-rule="evenodd" fill-opacity="1" /><path clip-path="url(#clip080)" d="M233.009 1513.16 Q227.593 1513.16 224.85 1518.5 Q222.141 1523.82 222.141 1534.51 Q222.141 1545.17 224.85 1550.52 Q227.593 1555.83 233.009 1555.83 Q238.461 1555.83 241.169 1550.52 Q243.912 1545.17 243.912 1534.51 Q243.912 1523.82 241.169 1518.5 Q238.461 1513.16 233.009 1513.16 M233.009 1507.6 Q241.725 1507.6 246.308 1514.51 Q250.926 1521.39 250.926 1534.51 Q250.926 1547.6 246.308 1554.51 Q241.725 1561.39 233.009 1561.39 Q224.294 1561.39 219.676 1554.51 Q215.093 1547.6 215.093 1534.51 Q215.093 1521.39 219.676 1514.51 Q224.294 1507.6 233.009 1507.6 Z" fill="#000000" fill-rule="evenodd" fill-opacity="1" /><path clip-path="url(#clip080)" d="M194.017 1430.8 Q199.051 1431.88 201.864 1435.28 Q204.711 1438.68 204.711 1443.68 Q204.711 1451.36 199.433 1455.56 Q194.156 1459.76 184.433 1459.76 Q181.169 1459.76 177.697 1459.1 Q174.26 1458.47 170.579 1457.19 L170.579 1450.42 Q173.496 1452.12 176.968 1452.99 Q180.44 1453.86 184.225 1453.86 Q190.822 1453.86 194.26 1451.25 Q197.732 1448.65 197.732 1443.68 Q197.732 1439.1 194.503 1436.53 Q191.308 1433.92 185.579 1433.92 L179.538 1433.92 L179.538 1428.16 L185.857 1428.16 Q191.031 1428.16 193.774 1426.11 Q196.517 1424.03 196.517 1420.14 Q196.517 1416.15 193.669 1414.03 Q190.857 1411.88 185.579 1411.88 Q182.697 1411.88 179.399 1412.5 Q176.1 1413.13 172.142 1414.45 L172.142 1408.2 Q176.135 1407.08 179.607 1406.53 Q183.114 1405.97 186.204 1405.97 Q194.19 1405.97 198.843 1409.62 Q203.496 1413.23 203.496 1419.41 Q203.496 1423.72 201.031 1426.7 Q198.565 1429.65 194.017 1430.8 Z" fill="#000000" fill-rule="evenodd" fill-opacity="1" /><path clip-path="url(#clip080)" d="M233.009 1411.53 Q227.593 1411.53 224.85 1416.88 Q222.141 1422.19 222.141 1432.88 Q222.141 1443.54 224.85 1448.89 Q227.593 1454.2 233.009 1454.2 Q238.461 1454.2 241.169 1448.89 Q243.912 1443.54 243.912 1432.88 Q243.912 1422.19 241.169 1416.88 Q238.461 1411.53 233.009 1411.53 M233.009 1405.97 Q241.725 1405.97 246.308 1412.88 Q250.926 1419.76 250.926 1432.88 Q250.926 1445.97 246.308 1452.88 Q241.725 1459.76 233.009 1459.76 Q224.294 1459.76 219.676 1452.88 Q215.093 1445.97 215.093 1432.88 Q215.093 1419.76 219.676 1412.88 Q224.294 1405.97 233.009 1405.97 Z" fill="#000000" fill-rule="evenodd" fill-opacity="1" /><path clip-path="url(#clip080)" d="M192.037 1311.4 L174.329 1339.07 L192.037 1339.07 L192.037 1311.4 M190.197 1305.28 L199.017 1305.28 L199.017 1339.07 L206.412 1339.07 L206.412 1344.9 L199.017 1344.9 L199.017 1357.12 L192.037 1357.12 L192.037 1344.9 L168.635 1344.9 L168.635 1338.13 L190.197 1305.28 Z" fill="#000000" fill-rule="evenodd" fill-opacity="1" /><path clip-path="url(#clip080)" d="M233.009 1309.9 Q227.593 1309.9 224.85 1315.25 Q222.141 1320.56 222.141 1331.26 Q222.141 1341.92 224.85 1347.26 Q227.593 1352.58 233.009 1352.58 Q238.461 1352.58 241.169 1347.26 Q243.912 1341.92 243.912 1331.26 Q243.912 1320.56 241.169 1315.25 Q238.461 1309.9 233.009 1309.9 M233.009 1304.35 Q241.725 1304.35 246.308 1311.26 Q250.926 1318.13 250.926 1331.26 Q250.926 1344.35 246.308 1351.26 Q241.725 1358.13 233.009 1358.13 Q224.294 1358.13 219.676 1351.26 Q215.093 1344.35 215.093 1331.26 Q215.093 1318.13 219.676 1311.26 Q224.294 1304.35 233.009 1304.35 Z" fill="#000000" fill-rule="evenodd" fill-opacity="1" /><path clip-path="url(#clip080)" d="M172.836 1203.66 L200.371 1203.66 L200.371 1209.56 L179.26 1209.56 L179.26 1222.27 Q180.788 1221.75 182.315 1221.5 Q183.843 1221.23 185.371 1221.23 Q194.051 1221.23 199.121 1225.98 Q204.19 1230.74 204.19 1238.87 Q204.19 1247.23 198.982 1251.89 Q193.774 1256.5 184.294 1256.5 Q181.031 1256.5 177.628 1255.95 Q174.26 1255.39 170.649 1254.28 L170.649 1247.23 Q173.774 1248.93 177.107 1249.77 Q180.44 1250.6 184.156 1250.6 Q190.163 1250.6 193.669 1247.44 Q197.176 1244.28 197.176 1238.87 Q197.176 1233.45 193.669 1230.29 Q190.163 1227.13 184.156 1227.13 Q181.343 1227.13 178.531 1227.75 Q175.753 1228.38 172.836 1229.7 L172.836 1203.66 Z" fill="#000000" fill-rule="evenodd" fill-opacity="1" /><path clip-path="url(#clip080)" d="M233.009 1208.28 Q227.593 1208.28 224.85 1213.62 Q222.141 1218.93 222.141 1229.63 Q222.141 1240.29 224.85 1245.64 Q227.593 1250.95 233.009 1250.95 Q238.461 1250.95 241.169 1245.64 Q243.912 1240.29 243.912 1229.63 Q243.912 1218.93 241.169 1213.62 Q238.461 1208.28 233.009 1208.28 M233.009 1202.72 Q241.725 1202.72 246.308 1209.63 Q250.926 1216.5 250.926 1229.63 Q250.926 1242.72 246.308 1249.63 Q241.725 1256.5 233.009 1256.5 Q224.294 1256.5 219.676 1249.63 Q215.093 1242.72 215.093 1229.63 Q215.093 1216.5 219.676 1209.63 Q224.294 1202.72 233.009 1202.72 Z" fill="#000000" fill-rule="evenodd" fill-opacity="1" /><path clip-path="url(#clip080)" d="M188.635 1125.15 Q183.913 1125.15 181.135 1128.38 Q178.392 1131.61 178.392 1137.24 Q178.392 1142.83 181.135 1146.09 Q183.913 1149.32 188.635 1149.32 Q193.357 1149.32 196.1 1146.09 Q198.878 1142.83 198.878 1137.24 Q198.878 1131.61 196.1 1128.38 Q193.357 1125.15 188.635 1125.15 M202.558 1103.18 L202.558 1109.56 Q199.919 1108.31 197.211 1107.66 Q194.537 1107 191.899 1107 Q184.954 1107 181.274 1111.68 Q177.628 1116.37 177.107 1125.85 Q179.156 1122.83 182.246 1121.23 Q185.336 1119.6 189.051 1119.6 Q196.864 1119.6 201.378 1124.36 Q205.926 1129.08 205.926 1137.24 Q205.926 1145.22 201.204 1150.05 Q196.482 1154.88 188.635 1154.88 Q179.642 1154.88 174.885 1148 Q170.128 1141.09 170.128 1128 Q170.128 1115.71 175.961 1108.42 Q181.794 1101.09 191.621 1101.09 Q194.26 1101.09 196.933 1101.61 Q199.642 1102.13 202.558 1103.18 Z" fill="#000000" fill-rule="evenodd" fill-opacity="1" /><path clip-path="url(#clip080)" d="M233.009 1106.65 Q227.593 1106.65 224.85 1112 Q222.141 1117.31 222.141 1128 Q222.141 1138.66 224.85 1144.01 Q227.593 1149.32 233.009 1149.32 Q238.461 1149.32 241.169 1144.01 Q243.912 1138.66 243.912 1128 Q243.912 1117.31 241.169 1112 Q238.461 1106.65 233.009 1106.65 M233.009 1101.09 Q241.725 1101.09 246.308 1108 Q250.926 1114.88 250.926 1128 Q250.926 1141.09 246.308 1148 Q241.725 1154.88 233.009 1154.88 Q224.294 1154.88 219.676 1148 Q215.093 1141.09 215.093 1128 Q215.093 1114.88 219.676 1108 Q224.294 1101.09 233.009 1101.09 Z" fill="#000000" fill-rule="evenodd" fill-opacity="1" /><path clip-path="url(#clip080)" d="M170.996 1000.4 L204.329 1000.4 L204.329 1003.39 L185.51 1052.24 L178.183 1052.24 L195.892 1006.31 L170.996 1006.31 L170.996 1000.4 Z" fill="#000000" fill-rule="evenodd" fill-opacity="1" /><path clip-path="url(#clip080)" d="M233.009 1005.02 Q227.593 1005.02 224.85 1010.37 Q222.141 1015.68 222.141 1026.38 Q222.141 1037.03 224.85 1042.38 Q227.593 1047.69 233.009 1047.69 Q238.461 1047.69 241.169 1042.38 Q243.912 1037.03 243.912 1026.38 Q243.912 1015.68 241.169 1010.37 Q238.461 1005.02 233.009 1005.02 M233.009 999.466 Q241.725 999.466 246.308 1006.38 Q250.926 1013.25 250.926 1026.38 Q250.926 1039.47 246.308 1046.38 Q241.725 1053.25 233.009 1053.25 Q224.294 1053.25 219.676 1046.38 Q215.093 1039.47 215.093 1026.38 Q215.093 1013.25 219.676 1006.38 Q224.294 999.466 233.009 999.466 Z" fill="#000000" fill-rule="evenodd" fill-opacity="1" /><path clip-path="url(#clip080)" d="M187.767 925.998 Q182.767 925.998 179.885 928.672 Q177.038 931.345 177.038 936.033 Q177.038 940.72 179.885 943.394 Q182.767 946.067 187.767 946.067 Q192.767 946.067 195.649 943.394 Q198.531 940.686 198.531 936.033 Q198.531 931.345 195.649 928.672 Q192.801 925.998 187.767 925.998 M180.753 923.012 Q176.239 921.901 173.704 918.811 Q171.204 915.72 171.204 911.276 Q171.204 905.061 175.614 901.45 Q180.058 897.839 187.767 897.839 Q195.51 897.839 199.919 901.45 Q204.329 905.061 204.329 911.276 Q204.329 915.72 201.794 918.811 Q199.294 921.901 194.815 923.012 Q199.885 924.193 202.697 927.63 Q205.544 931.068 205.544 936.033 Q205.544 943.567 200.926 947.595 Q196.343 951.623 187.767 951.623 Q179.19 951.623 174.572 947.595 Q169.989 943.567 169.989 936.033 Q169.989 931.068 172.836 927.63 Q175.683 924.193 180.753 923.012 M178.183 911.936 Q178.183 915.963 180.683 918.22 Q183.218 920.477 187.767 920.477 Q192.281 920.477 194.815 918.22 Q197.385 915.963 197.385 911.936 Q197.385 907.908 194.815 905.651 Q192.281 903.394 187.767 903.394 Q183.218 903.394 180.683 905.651 Q178.183 907.908 178.183 911.936 Z" fill="#000000" fill-rule="evenodd" fill-opacity="1" /><path clip-path="url(#clip080)" d="M233.009 903.394 Q227.593 903.394 224.85 908.741 Q222.141 914.054 222.141 924.748 Q222.141 935.408 224.85 940.755 Q227.593 946.067 233.009 946.067 Q238.461 946.067 241.169 940.755 Q243.912 935.408 243.912 924.748 Q243.912 914.054 241.169 908.741 Q238.461 903.394 233.009 903.394 M233.009 897.839 Q241.725 897.839 246.308 904.748 Q250.926 911.623 250.926 924.748 Q250.926 937.838 246.308 944.748 Q241.725 951.623 233.009 951.623 Q224.294 951.623 219.676 944.748 Q215.093 937.838 215.093 924.748 Q215.093 911.623 219.676 904.748 Q224.294 897.839 233.009 897.839 Z" fill="#000000" fill-rule="evenodd" fill-opacity="1" /><path clip-path="url(#clip080)" d="M172.975 847.913 L172.975 841.524 Q175.614 842.774 178.322 843.433 Q181.031 844.093 183.635 844.093 Q190.579 844.093 194.225 839.44 Q197.906 834.753 198.426 825.239 Q196.412 828.225 193.322 829.822 Q190.232 831.42 186.482 831.42 Q178.704 831.42 174.156 826.732 Q169.642 822.01 169.642 813.85 Q169.642 805.864 174.364 801.038 Q179.086 796.211 186.933 796.211 Q195.926 796.211 200.649 803.121 Q205.405 809.996 205.405 823.121 Q205.405 835.378 199.572 842.704 Q193.774 849.996 183.947 849.996 Q181.308 849.996 178.6 849.475 Q175.892 848.954 172.975 847.913 M186.933 825.934 Q191.656 825.934 194.399 822.704 Q197.176 819.475 197.176 813.85 Q197.176 808.26 194.399 805.031 Q191.656 801.767 186.933 801.767 Q182.211 801.767 179.433 805.031 Q176.69 808.26 176.69 813.85 Q176.69 819.475 179.433 822.704 Q182.211 825.934 186.933 825.934 Z" fill="#000000" fill-rule="evenodd" fill-opacity="1" /><path clip-path="url(#clip080)" d="M233.009 801.767 Q227.593 801.767 224.85 807.114 Q222.141 812.427 222.141 823.121 Q222.141 833.781 224.85 839.128 Q227.593 844.44 233.009 844.44 Q238.461 844.44 241.169 839.128 Q243.912 833.781 243.912 823.121 Q243.912 812.427 241.169 807.114 Q238.461 801.767 233.009 801.767 M233.009 796.211 Q241.725 796.211 246.308 803.121 Q250.926 809.996 250.926 823.121 Q250.926 836.211 246.308 843.121 Q241.725 849.996 233.009 849.996 Q224.294 849.996 219.676 843.121 Q215.093 836.211 215.093 823.121 Q215.093 809.996 219.676 803.121 Q224.294 796.211 233.009 796.211 Z" fill="#000000" fill-rule="evenodd" fill-opacity="1" /><path clip-path="url(#clip080)" d="M128.739 741.459 L140.197 741.459 L140.197 701.911 L127.732 704.411 L127.732 698.022 L140.128 695.522 L147.142 695.522 L147.142 741.459 L158.6 741.459 L158.6 747.362 L128.739 747.362 L128.739 741.459 Z" fill="#000000" fill-rule="evenodd" fill-opacity="1" /><path clip-path="url(#clip080)" d="M187.767 700.14 Q182.35 700.14 179.607 705.487 Q176.899 710.8 176.899 721.494 Q176.899 732.154 179.607 737.501 Q182.35 742.813 187.767 742.813 Q193.218 742.813 195.926 737.501 Q198.669 732.154 198.669 721.494 Q198.669 710.8 195.926 705.487 Q193.218 700.14 187.767 700.14 M187.767 694.584 Q196.482 694.584 201.065 701.494 Q205.683 708.369 205.683 721.494 Q205.683 734.584 201.065 741.494 Q196.482 748.369 187.767 748.369 Q179.051 748.369 174.433 741.494 Q169.85 734.584 169.85 721.494 Q169.85 708.369 174.433 701.494 Q179.051 694.584 187.767 694.584 Z" fill="#000000" fill-rule="evenodd" fill-opacity="1" /><path clip-path="url(#clip080)" d="M233.009 700.14 Q227.593 700.14 224.85 705.487 Q222.141 710.8 222.141 721.494 Q222.141 732.154 224.85 737.501 Q227.593 742.813 233.009 742.813 Q238.461 742.813 241.169 737.501 Q243.912 732.154 243.912 721.494 Q243.912 710.8 241.169 705.487 Q238.461 700.14 233.009 700.14 M233.009 694.584 Q241.725 694.584 246.308 701.494 Q250.926 708.369 250.926 721.494 Q250.926 734.584 246.308 741.494 Q241.725 748.369 233.009 748.369 Q224.294 748.369 219.676 741.494 Q215.093 734.584 215.093 721.494 Q215.093 708.369 219.676 701.494 Q224.294 694.584 233.009 694.584 Z" fill="#000000" fill-rule="evenodd" fill-opacity="1" /><path clip-path="url(#clip080)" d="M128.739 639.832 L140.197 639.832 L140.197 600.284 L127.732 602.784 L127.732 596.395 L140.128 593.895 L147.142 593.895 L147.142 639.832 L158.6 639.832 L158.6 645.735 L128.739 645.735 L128.739 639.832 Z" fill="#000000" fill-rule="evenodd" fill-opacity="1" /><path clip-path="url(#clip080)" d="M173.982 639.832 L185.44 639.832 L185.44 600.284 L172.975 602.784 L172.975 596.395 L185.371 593.895 L192.385 593.895 L192.385 639.832 L203.843 639.832 L203.843 645.735 L173.982 645.735 L173.982 639.832 Z" fill="#000000" fill-rule="evenodd" fill-opacity="1" /><path clip-path="url(#clip080)" d="M233.009 598.513 Q227.593 598.513 224.85 603.86 Q222.141 609.173 222.141 619.867 Q222.141 630.527 224.85 635.874 Q227.593 641.186 233.009 641.186 Q238.461 641.186 241.169 635.874 Q243.912 630.527 243.912 619.867 Q243.912 609.173 241.169 603.86 Q238.461 598.513 233.009 598.513 M233.009 592.957 Q241.725 592.957 246.308 599.867 Q250.926 606.742 250.926 619.867 Q250.926 632.957 246.308 639.867 Q241.725 646.742 233.009 646.742 Q224.294 646.742 219.676 639.867 Q215.093 632.957 215.093 619.867 Q215.093 606.742 219.676 599.867 Q224.294 592.957 233.009 592.957 Z" fill="#000000" fill-rule="evenodd" fill-opacity="1" /><path clip-path="url(#clip080)" d="M128.739 538.205 L140.197 538.205 L140.197 498.657 L127.732 501.157 L127.732 494.768 L140.128 492.268 L147.142 492.268 L147.142 538.205 L158.6 538.205 L158.6 544.108 L128.739 544.108 L128.739 538.205 Z" fill="#000000" fill-rule="evenodd" fill-opacity="1" /><path clip-path="url(#clip080)" d="M178.808 538.205 L203.287 538.205 L203.287 544.108 L170.371 544.108 L170.371 538.205 Q174.364 534.073 181.239 527.129 Q188.149 520.15 189.919 518.136 Q193.287 514.351 194.607 511.747 Q195.961 509.108 195.961 506.573 Q195.961 502.441 193.044 499.837 Q190.163 497.233 185.51 497.233 Q182.211 497.233 178.531 498.379 Q174.885 499.525 170.718 501.851 L170.718 494.768 Q174.954 493.067 178.635 492.198 Q182.315 491.33 185.371 491.33 Q193.426 491.33 198.218 495.358 Q203.01 499.386 203.01 506.122 Q203.01 509.316 201.794 512.198 Q200.614 515.046 197.454 518.934 Q196.586 519.941 191.933 524.768 Q187.281 529.559 178.808 538.205 Z" fill="#000000" fill-rule="evenodd" fill-opacity="1" /><path clip-path="url(#clip080)" d="M233.009 496.886 Q227.593 496.886 224.85 502.233 Q222.141 507.546 222.141 518.24 Q222.141 528.9 224.85 534.247 Q227.593 539.559 233.009 539.559 Q238.461 539.559 241.169 534.247 Q243.912 528.9 243.912 518.24 Q243.912 507.546 241.169 502.233 Q238.461 496.886 233.009 496.886 M233.009 491.33 Q241.725 491.33 246.308 498.24 Q250.926 505.115 250.926 518.24 Q250.926 531.33 246.308 538.24 Q241.725 545.115 233.009 545.115 Q224.294 545.115 219.676 538.24 Q215.093 531.33 215.093 518.24 Q215.093 505.115 219.676 498.24 Q224.294 491.33 233.009 491.33 Z" fill="#000000" fill-rule="evenodd" fill-opacity="1" /><path clip-path="url(#clip080)" d="M128.739 436.578 L140.197 436.578 L140.197 397.03 L127.732 399.53 L127.732 393.141 L140.128 390.641 L147.142 390.641 L147.142 436.578 L158.6 436.578 L158.6 442.481 L128.739 442.481 L128.739 436.578 Z" fill="#000000" fill-rule="evenodd" fill-opacity="1" /><path clip-path="url(#clip080)" d="M194.017 414.53 Q199.051 415.606 201.864 419.009 Q204.711 422.412 204.711 427.412 Q204.711 435.085 199.433 439.286 Q194.156 443.488 184.433 443.488 Q181.169 443.488 177.697 442.828 Q174.26 442.203 170.579 440.918 L170.579 434.148 Q173.496 435.849 176.968 436.717 Q180.44 437.585 184.225 437.585 Q190.822 437.585 194.26 434.981 Q197.732 432.377 197.732 427.412 Q197.732 422.828 194.503 420.259 Q191.308 417.655 185.579 417.655 L179.538 417.655 L179.538 411.891 L185.857 411.891 Q191.031 411.891 193.774 409.842 Q196.517 407.759 196.517 403.87 Q196.517 399.877 193.669 397.759 Q190.857 395.606 185.579 395.606 Q182.697 395.606 179.399 396.231 Q176.1 396.856 172.142 398.176 L172.142 391.926 Q176.135 390.814 179.607 390.259 Q183.114 389.703 186.204 389.703 Q194.19 389.703 198.843 393.349 Q203.496 396.96 203.496 403.141 Q203.496 407.446 201.031 410.432 Q198.565 413.384 194.017 414.53 Z" fill="#000000" fill-rule="evenodd" fill-opacity="1" /><path clip-path="url(#clip080)" d="M233.009 395.259 Q227.593 395.259 224.85 400.606 Q222.141 405.919 222.141 416.613 Q222.141 427.273 224.85 432.62 Q227.593 437.932 233.009 437.932 Q238.461 437.932 241.169 432.62 Q243.912 427.273 243.912 416.613 Q243.912 405.919 241.169 400.606 Q238.461 395.259 233.009 395.259 M233.009 389.703 Q241.725 389.703 246.308 396.613 Q250.926 403.488 250.926 416.613 Q250.926 429.703 246.308 436.613 Q241.725 443.488 233.009 443.488 Q224.294 443.488 219.676 436.613 Q215.093 429.703 215.093 416.613 Q215.093 403.488 219.676 396.613 Q224.294 389.703 233.009 389.703 Z" fill="#000000" fill-rule="evenodd" fill-opacity="1" /><path clip-path="url(#clip080)" d="M128.739 334.951 L140.197 334.951 L140.197 295.403 L127.732 297.903 L127.732 291.514 L140.128 289.014 L147.142 289.014 L147.142 334.951 L158.6 334.951 L158.6 340.854 L128.739 340.854 L128.739 334.951 Z" fill="#000000" fill-rule="evenodd" fill-opacity="1" /><path clip-path="url(#clip080)" d="M192.037 295.125 L174.329 322.798 L192.037 322.798 L192.037 295.125 M190.197 289.014 L199.017 289.014 L199.017 322.798 L206.412 322.798 L206.412 328.632 L199.017 328.632 L199.017 340.854 L192.037 340.854 L192.037 328.632 L168.635 328.632 L168.635 321.861 L190.197 289.014 Z" fill="#000000" fill-rule="evenodd" fill-opacity="1" /><path clip-path="url(#clip080)" d="M233.009 293.632 Q227.593 293.632 224.85 298.979 Q222.141 304.292 222.141 314.986 Q222.141 325.646 224.85 330.993 Q227.593 336.305 233.009 336.305 Q238.461 336.305 241.169 330.993 Q243.912 325.646 243.912 314.986 Q243.912 304.292 241.169 298.979 Q238.461 293.632 233.009 293.632 M233.009 288.076 Q241.725 288.076 246.308 294.986 Q250.926 301.861 250.926 314.986 Q250.926 328.076 246.308 334.986 Q241.725 341.861 233.009 341.861 Q224.294 341.861 219.676 334.986 Q215.093 328.076 215.093 314.986 Q215.093 301.861 219.676 294.986 Q224.294 288.076 233.009 288.076 Z" fill="#000000" fill-rule="evenodd" fill-opacity="1" /><path clip-path="url(#clip080)" d="M128.739 233.324 L140.197 233.324 L140.197 193.776 L127.732 196.276 L127.732 189.887 L140.128 187.387 L147.142 187.387 L147.142 233.324 L158.6 233.324 L158.6 239.227 L128.739 239.227 L128.739 233.324 Z" fill="#000000" fill-rule="evenodd" fill-opacity="1" /><path clip-path="url(#clip080)" d="M172.836 187.387 L200.371 187.387 L200.371 193.29 L179.26 193.29 L179.26 205.998 Q180.788 205.477 182.315 205.234 Q183.843 204.956 185.371 204.956 Q194.051 204.956 199.121 209.713 Q204.19 214.47 204.19 222.595 Q204.19 230.963 198.982 235.616 Q193.774 240.234 184.294 240.234 Q181.031 240.234 177.628 239.678 Q174.26 239.123 170.649 238.012 L170.649 230.963 Q173.774 232.664 177.107 233.498 Q180.44 234.331 184.156 234.331 Q190.163 234.331 193.669 231.171 Q197.176 228.012 197.176 222.595 Q197.176 217.178 193.669 214.019 Q190.163 210.859 184.156 210.859 Q181.343 210.859 178.531 211.484 Q175.753 212.109 172.836 213.428 L172.836 187.387 Z" fill="#000000" fill-rule="evenodd" fill-opacity="1" /><path clip-path="url(#clip080)" d="M233.009 192.005 Q227.593 192.005 224.85 197.352 Q222.141 202.665 222.141 213.359 Q222.141 224.019 224.85 229.366 Q227.593 234.678 233.009 234.678 Q238.461 234.678 241.169 229.366 Q243.912 224.019 243.912 213.359 Q243.912 202.665 241.169 197.352 Q238.461 192.005 233.009 192.005 M233.009 186.449 Q241.725 186.449 246.308 193.359 Q250.926 200.234 250.926 213.359 Q250.926 226.449 246.308 233.359 Q241.725 240.234 233.009 240.234 Q224.294 240.234 219.676 233.359 Q215.093 226.449 215.093 213.359 Q215.093 200.234 219.676 193.359 Q224.294 186.449 233.009 186.449 Z" fill="#000000" fill-rule="evenodd" fill-opacity="1" /><path clip-path="url(#clip080)" d="M128.739 131.697 L140.197 131.697 L140.197 92.1486 L127.732 94.6486 L127.732 88.2598 L140.128 85.7598 L147.142 85.7598 L147.142 131.697 L158.6 131.697 L158.6 137.6 L128.739 137.6 L128.739 131.697 Z" fill="#000000" fill-rule="evenodd" fill-opacity="1" /><path clip-path="url(#clip080)" d="M188.635 108.885 Q183.913 108.885 181.135 112.114 Q178.392 115.343 178.392 120.968 Q178.392 126.558 181.135 129.822 Q183.913 133.051 188.635 133.051 Q193.357 133.051 196.1 129.822 Q198.878 126.558 198.878 120.968 Q198.878 115.343 196.1 112.114 Q193.357 108.885 188.635 108.885 M202.558 86.9056 L202.558 93.2945 Q199.919 92.0445 197.211 91.3848 Q194.537 90.725 191.899 90.725 Q184.954 90.725 181.274 95.4125 Q177.628 100.1 177.107 109.579 Q179.156 106.558 182.246 104.961 Q185.336 103.329 189.051 103.329 Q196.864 103.329 201.378 108.086 Q205.926 112.808 205.926 120.968 Q205.926 128.954 201.204 133.78 Q196.482 138.607 188.635 138.607 Q179.642 138.607 174.885 131.732 Q170.128 124.822 170.128 111.732 Q170.128 99.4403 175.961 92.1486 Q181.794 84.8223 191.621 84.8223 Q194.26 84.8223 196.933 85.3431 Q199.642 85.864 202.558 86.9056 Z" fill="#000000" fill-rule="evenodd" fill-opacity="1" /><path clip-path="url(#clip080)" d="M233.009 90.3778 Q227.593 90.3778 224.85 95.725 Q222.141 101.037 222.141 111.732 Q222.141 122.392 224.85 127.739 Q227.593 133.051 233.009 133.051 Q238.461 133.051 241.169 127.739 Q243.912 122.392 243.912 111.732 Q243.912 101.037 241.169 95.725 Q238.461 90.3778 233.009 90.3778 M233.009 84.8223 Q241.725 84.8223 246.308 91.732 Q250.926 98.6069 250.926 111.732 Q250.926 124.822 246.308 131.732 Q241.725 138.607 233.009 138.607 Q224.294 138.607 219.676 131.732 Q215.093 124.822 215.093 111.732 Q215.093 98.6069 219.676 91.732 Q224.294 84.8223 233.009 84.8223 Z" fill="#000000" fill-rule="evenodd" fill-opacity="1" /><path clip-path="url(#clip082)" d="
M429.087 1697.06 L429.087 1737.71 L558.691 1737.71 L558.691 1697.06 L429.087 1697.06 L429.087 1697.06  Z
  " fill="#009af9" fill-rule="evenodd" fill-opacity="1"/>
<polyline clip-path="url(#clip082)" style="stroke:#000000; stroke-linecap:butt; stroke-linejoin:round; stroke-width:4; stroke-opacity:1; fill:none" points="
  429.087,1697.06 429.087,1737.71 558.691,1737.71 558.691,1697.06 429.087,1697.06 
  "/>
<path clip-path="url(#clip082)" d="
M558.691 1595.43 L558.691 1737.71 L688.294 1737.71 L688.294 1595.43 L558.691 1595.43 L558.691 1595.43  Z
  " fill="#009af9" fill-rule="evenodd" fill-opacity="1"/>
<polyline clip-path="url(#clip082)" style="stroke:#000000; stroke-linecap:butt; stroke-linejoin:round; stroke-width:4; stroke-opacity:1; fill:none" points="
  558.691,1595.43 558.691,1737.71 688.294,1737.71 688.294,1595.43 558.691,1595.43 
  "/>
<path clip-path="url(#clip082)" d="
M688.294 1534.46 L688.294 1737.71 L817.897 1737.71 L817.897 1534.46 L688.294 1534.46 L688.294 1534.46  Z
  " fill="#009af9" fill-rule="evenodd" fill-opacity="1"/>
<polyline clip-path="url(#clip082)" style="stroke:#000000; stroke-linecap:butt; stroke-linejoin:round; stroke-width:4; stroke-opacity:1; fill:none" points="
  688.294,1534.46 688.294,1737.71 817.897,1737.71 817.897,1534.46 688.294,1534.46 
  "/>
<path clip-path="url(#clip082)" d="
M817.897 1524.3 L817.897 1737.71 L947.5 1737.71 L947.5 1524.3 L817.897 1524.3 L817.897 1524.3  Z
  " fill="#009af9" fill-rule="evenodd" fill-opacity="1"/>
<polyline clip-path="url(#clip082)" style="stroke:#000000; stroke-linecap:butt; stroke-linejoin:round; stroke-width:4; stroke-opacity:1; fill:none" points="
  817.897,1524.3 817.897,1737.71 947.5,1737.71 947.5,1524.3 817.897,1524.3 
  "/>
<path clip-path="url(#clip082)" d="
M947.5 1575.11 L947.5 1737.71 L1077.1 1737.71 L1077.1 1575.11 L947.5 1575.11 L947.5 1575.11  Z
  " fill="#009af9" fill-rule="evenodd" fill-opacity="1"/>
<polyline clip-path="url(#clip082)" style="stroke:#000000; stroke-linecap:butt; stroke-linejoin:round; stroke-width:4; stroke-opacity:1; fill:none" points="
  947.5,1575.11 947.5,1737.71 1077.1,1737.71 1077.1,1575.11 947.5,1575.11 
  "/>
<path clip-path="url(#clip082)" d="
M1077.1 1463.32 L1077.1 1737.71 L1206.71 1737.71 L1206.71 1463.32 L1077.1 1463.32 L1077.1 1463.32  Z
  " fill="#009af9" fill-rule="evenodd" fill-opacity="1"/>
<polyline clip-path="url(#clip082)" style="stroke:#000000; stroke-linecap:butt; stroke-linejoin:round; stroke-width:4; stroke-opacity:1; fill:none" points="
  1077.1,1463.32 1077.1,1737.71 1206.71,1737.71 1206.71,1463.32 1077.1,1463.32 
  "/>
<path clip-path="url(#clip082)" d="
M1206.71 1442.99 L1206.71 1737.71 L1336.31 1737.71 L1336.31 1442.99 L1206.71 1442.99 L1206.71 1442.99  Z
  " fill="#009af9" fill-rule="evenodd" fill-opacity="1"/>
<polyline clip-path="url(#clip082)" style="stroke:#000000; stroke-linecap:butt; stroke-linejoin:round; stroke-width:4; stroke-opacity:1; fill:none" points="
  1206.71,1442.99 1206.71,1737.71 1336.31,1737.71 1336.31,1442.99 1206.71,1442.99 
  "/>
<path clip-path="url(#clip082)" d="
M1336.31 1473.48 L1336.31 1737.71 L1465.91 1737.71 L1465.91 1473.48 L1336.31 1473.48 L1336.31 1473.48  Z
  " fill="#009af9" fill-rule="evenodd" fill-opacity="1"/>
<polyline clip-path="url(#clip082)" style="stroke:#000000; stroke-linecap:butt; stroke-linejoin:round; stroke-width:4; stroke-opacity:1; fill:none" points="
  1336.31,1473.48 1336.31,1737.71 1465.91,1737.71 1465.91,1473.48 1336.31,1473.48 
  "/>
<path clip-path="url(#clip082)" d="
M1465.91 1402.34 L1465.91 1737.71 L1595.52 1737.71 L1595.52 1402.34 L1465.91 1402.34 L1465.91 1402.34  Z
  " fill="#009af9" fill-rule="evenodd" fill-opacity="1"/>
<polyline clip-path="url(#clip082)" style="stroke:#000000; stroke-linecap:butt; stroke-linejoin:round; stroke-width:4; stroke-opacity:1; fill:none" points="
  1465.91,1402.34 1465.91,1737.71 1595.52,1737.71 1595.52,1402.34 1465.91,1402.34 
  "/>
<path clip-path="url(#clip082)" d="
M1595.52 81.1917 L1595.52 1737.71 L1725.12 1737.71 L1725.12 81.1917 L1595.52 81.1917 L1595.52 81.1917  Z
  " fill="#009af9" fill-rule="evenodd" fill-opacity="1"/>
<polyline clip-path="url(#clip082)" style="stroke:#000000; stroke-linecap:butt; stroke-linejoin:round; stroke-width:4; stroke-opacity:1; fill:none" points="
  1595.52,81.1917 1595.52,1737.71 1725.12,1737.71 1725.12,81.1917 1595.52,81.1917 
  "/>
<path clip-path="url(#clip082)" d="
M1725.12 1737.71 L1725.12 1737.71 L1854.72 1737.71 L1854.72 1737.71 L1725.12 1737.71 L1725.12 1737.71  Z
  " fill="#009af9" fill-rule="evenodd" fill-opacity="1"/>
<polyline clip-path="url(#clip082)" style="stroke:#000000; stroke-linecap:butt; stroke-linejoin:round; stroke-width:4; stroke-opacity:1; fill:none" points="
  1725.12,1737.71 1725.12,1737.71 1854.72,1737.71 1725.12,1737.71 
  "/>
<path clip-path="url(#clip082)" d="
M1854.72 1737.71 L1854.72 1737.71 L1984.33 1737.71 L1984.33 1737.71 L1854.72 1737.71 L1854.72 1737.71  Z
  " fill="#009af9" fill-rule="evenodd" fill-opacity="1"/>
<polyline clip-path="url(#clip082)" style="stroke:#000000; stroke-linecap:butt; stroke-linejoin:round; stroke-width:4; stroke-opacity:1; fill:none" points="
  1854.72,1737.71 1854.72,1737.71 1984.33,1737.71 1854.72,1737.71 
  "/>
<path clip-path="url(#clip082)" d="
M1984.33 1737.71 L1984.33 1737.71 L2113.93 1737.71 L2113.93 1737.71 L1984.33 1737.71 L1984.33 1737.71  Z
  " fill="#009af9" fill-rule="evenodd" fill-opacity="1"/>
<polyline clip-path="url(#clip082)" style="stroke:#000000; stroke-linecap:butt; stroke-linejoin:round; stroke-width:4; stroke-opacity:1; fill:none" points="
  1984.33,1737.71 1984.33,1737.71 2113.93,1737.71 1984.33,1737.71 
  "/>
<path clip-path="url(#clip082)" d="
M2113.93 1737.71 L2113.93 1737.71 L2243.53 1737.71 L2243.53 1737.71 L2113.93 1737.71 L2113.93 1737.71  Z
  " fill="#009af9" fill-rule="evenodd" fill-opacity="1"/>
<polyline clip-path="url(#clip082)" style="stroke:#000000; stroke-linecap:butt; stroke-linejoin:round; stroke-width:4; stroke-opacity:1; fill:none" points="
  2113.93,1737.71 2113.93,1737.71 2243.53,1737.71 2113.93,1737.71 
  "/>
<path clip-path="url(#clip082)" d="
M2243.53 1737.71 L2243.53 1737.71 L2373.14 1737.71 L2373.14 1737.71 L2243.53 1737.71 L2243.53 1737.71  Z
  " fill="#009af9" fill-rule="evenodd" fill-opacity="1"/>
<polyline clip-path="url(#clip082)" style="stroke:#000000; stroke-linecap:butt; stroke-linejoin:round; stroke-width:4; stroke-opacity:1; fill:none" points="
  2243.53,1737.71 2243.53,1737.71 2373.14,1737.71 2243.53,1737.71 
  "/>
<path clip-path="url(#clip082)" d="
M2373.14 1737.71 L2373.14 1737.71 L2502.74 1737.71 L2502.74 1737.71 L2373.14 1737.71 L2373.14 1737.71  Z
  " fill="#009af9" fill-rule="evenodd" fill-opacity="1"/>
<polyline clip-path="url(#clip082)" style="stroke:#000000; stroke-linecap:butt; stroke-linejoin:round; stroke-width:4; stroke-opacity:1; fill:none" points="
  2373.14,1737.71 2373.14,1737.71 2502.74,1737.71 2373.14,1737.71 
  "/>
<path clip-path="url(#clip082)" d="
M2502.74 1737.71 L2502.74 1737.71 L2632.34 1737.71 L2632.34 1737.71 L2502.74 1737.71 L2502.74 1737.71  Z
  " fill="#009af9" fill-rule="evenodd" fill-opacity="1"/>
<polyline clip-path="url(#clip082)" style="stroke:#000000; stroke-linecap:butt; stroke-linejoin:round; stroke-width:4; stroke-opacity:1; fill:none" points="
  2502.74,1737.71 2502.74,1737.71 2632.34,1737.71 2502.74,1737.71 
  "/>
<circle clip-path="url(#clip082)" style="fill:#009af9; stroke:none; fill-opacity:0" cx="493.889" cy="1697.06" r="2"/>
<circle clip-path="url(#clip082)" style="fill:#009af9; stroke:none; fill-opacity:0" cx="623.492" cy="1595.43" r="2"/>
<circle clip-path="url(#clip082)" style="fill:#009af9; stroke:none; fill-opacity:0" cx="753.095" cy="1534.46" r="2"/>
<circle clip-path="url(#clip082)" style="fill:#009af9; stroke:none; fill-opacity:0" cx="882.699" cy="1524.3" r="2"/>
<circle clip-path="url(#clip082)" style="fill:#009af9; stroke:none; fill-opacity:0" cx="1012.3" cy="1575.11" r="2"/>
<circle clip-path="url(#clip082)" style="fill:#009af9; stroke:none; fill-opacity:0" cx="1141.91" cy="1463.32" r="2"/>
<circle clip-path="url(#clip082)" style="fill:#009af9; stroke:none; fill-opacity:0" cx="1271.51" cy="1442.99" r="2"/>
<circle clip-path="url(#clip082)" style="fill:#009af9; stroke:none; fill-opacity:0" cx="1401.11" cy="1473.48" r="2"/>
<circle clip-path="url(#clip082)" style="fill:#009af9; stroke:none; fill-opacity:0" cx="1530.72" cy="1402.34" r="2"/>
<circle clip-path="url(#clip082)" style="fill:#009af9; stroke:none; fill-opacity:0" cx="1660.32" cy="81.1917" r="2"/>
<circle clip-path="url(#clip082)" style="fill:#009af9; stroke:none; fill-opacity:0" cx="1789.92" cy="1737.71" r="2"/>
<circle clip-path="url(#clip082)" style="fill:#009af9; stroke:none; fill-opacity:0" cx="1919.52" cy="1737.71" r="2"/>
<circle clip-path="url(#clip082)" style="fill:#009af9; stroke:none; fill-opacity:0" cx="2049.13" cy="1737.71" r="2"/>
<circle clip-path="url(#clip082)" style="fill:#009af9; stroke:none; fill-opacity:0" cx="2178.73" cy="1737.71" r="2"/>
<circle clip-path="url(#clip082)" style="fill:#009af9; stroke:none; fill-opacity:0" cx="2308.33" cy="1737.71" r="2"/>
<circle clip-path="url(#clip082)" style="fill:#009af9; stroke:none; fill-opacity:0" cx="2437.94" cy="1737.71" r="2"/>
<circle clip-path="url(#clip082)" style="fill:#009af9; stroke:none; fill-opacity:0" cx="2567.54" cy="1737.71" r="2"/>
<path clip-path="url(#clip080)" d="
M1814.86 219.626 L2685.98 219.626 L2685.98 90.0265 L1814.86 90.0265  Z
  " fill="#ffffff" fill-rule="evenodd" fill-opacity="1"/>
<polyline clip-path="url(#clip080)" style="stroke:#000000; stroke-linecap:butt; stroke-linejoin:round; stroke-width:4; stroke-opacity:1; fill:none" points="
  1814.86,219.626 2685.98,219.626 2685.98,90.0265 1814.86,90.0265 1814.86,219.626 
  "/>
<path clip-path="url(#clip080)" d="
M1842.37 180.746 L2007.4 180.746 L2007.4 128.906 L1842.37 128.906 L1842.37 180.746  Z
  " fill="#009af9" fill-rule="evenodd" fill-opacity="1"/>
<polyline clip-path="url(#clip080)" style="stroke:#000000; stroke-linecap:butt; stroke-linejoin:round; stroke-width:4; stroke-opacity:1; fill:none" points="
  1842.37,180.746 2007.4,180.746 2007.4,128.906 1842.37,128.906 1842.37,180.746 
  "/>
<path clip-path="url(#clip080)" d="M2054.93 137.191 Q2048.57 137.191 2044.81 141.936 Q2041.07 146.681 2041.07 154.87 Q2041.07 163.03 2044.81 167.775 Q2048.57 172.52 2054.93 172.52 Q2061.3 172.52 2065 167.775 Q2068.74 163.03 2068.74 154.87 Q2068.74 146.681 2065 141.936 Q2061.3 137.191 2054.93 137.191 M2054.93 132.445 Q2064.02 132.445 2069.46 138.551 Q2074.9 144.627 2074.9 154.87 Q2074.9 165.084 2069.46 171.189 Q2064.02 177.266 2054.93 177.266 Q2045.82 177.266 2040.35 171.189 Q2034.91 165.113 2034.91 154.87 Q2034.91 144.627 2040.35 138.551 Q2045.82 132.445 2054.93 132.445 Z" fill="#000000" fill-rule="evenodd" fill-opacity="1" /><path clip-path="url(#clip080)" d="M2107.07 160.252 Q2107.07 154.378 2104.64 151.05 Q2102.24 147.694 2098.02 147.694 Q2093.79 147.694 2091.36 151.05 Q2088.96 154.378 2088.96 160.252 Q2088.96 166.126 2091.36 169.482 Q2093.79 172.81 2098.02 172.81 Q2102.24 172.81 2104.64 169.482 Q2107.07 166.126 2107.07 160.252 M2088.96 148.938 Q2090.64 146.045 2093.19 144.656 Q2095.76 143.238 2099.32 143.238 Q2105.22 143.238 2108.9 147.925 Q2112.6 152.613 2112.6 160.252 Q2112.6 167.891 2108.9 172.578 Q2105.22 177.266 2099.32 177.266 Q2095.76 177.266 2093.19 175.877 Q2090.64 174.459 2088.96 171.565 L2088.96 176.426 L2083.61 176.426 L2083.61 131.404 L2088.96 131.404 L2088.96 148.938 Z" fill="#000000" fill-rule="evenodd" fill-opacity="1" /><path clip-path="url(#clip080)" d="M2142.09 144.974 L2142.09 150.009 Q2139.83 148.851 2137.4 148.273 Q2134.97 147.694 2132.36 147.694 Q2128.4 147.694 2126.4 148.909 Q2124.44 150.125 2124.44 152.555 Q2124.44 154.407 2125.85 155.477 Q2127.27 156.519 2131.55 157.474 L2133.38 157.879 Q2139.05 159.094 2141.42 161.322 Q2143.82 163.521 2143.82 167.486 Q2143.82 171.999 2140.23 174.632 Q2136.67 177.266 2130.42 177.266 Q2127.82 177.266 2124.98 176.745 Q2122.18 176.253 2119.05 175.24 L2119.05 169.742 Q2122 171.276 2124.87 172.057 Q2127.73 172.81 2130.54 172.81 Q2134.3 172.81 2136.33 171.536 Q2138.35 170.234 2138.35 167.891 Q2138.35 165.72 2136.88 164.563 Q2135.43 163.406 2130.48 162.335 L2128.63 161.901 Q2123.68 160.859 2121.48 158.718 Q2119.28 156.548 2119.28 152.787 Q2119.28 148.215 2122.53 145.726 Q2125.77 143.238 2131.73 143.238 Q2134.68 143.238 2137.28 143.672 Q2139.89 144.106 2142.09 144.974 Z" fill="#000000" fill-rule="evenodd" fill-opacity="1" /><path clip-path="url(#clip080)" d="M2180.02 158.892 L2180.02 161.496 L2155.54 161.496 Q2155.89 166.994 2158.84 169.887 Q2161.82 172.752 2167.11 172.752 Q2170.18 172.752 2173.05 171.999 Q2175.94 171.247 2178.78 169.742 L2178.78 174.777 Q2175.91 175.992 2172.9 176.629 Q2169.89 177.266 2166.8 177.266 Q2159.04 177.266 2154.5 172.752 Q2149.98 168.238 2149.98 160.541 Q2149.98 152.584 2154.27 147.925 Q2158.58 143.238 2165.87 143.238 Q2172.41 143.238 2176.2 147.462 Q2180.02 151.658 2180.02 158.892 M2174.7 157.329 Q2174.64 152.96 2172.24 150.356 Q2169.86 147.752 2165.93 147.752 Q2161.47 147.752 2158.78 150.269 Q2156.12 152.787 2155.71 157.358 L2174.7 157.329 Z" fill="#000000" fill-rule="evenodd" fill-opacity="1" /><path clip-path="url(#clip080)" d="M2207.54 148.996 Q2206.64 148.475 2205.57 148.244 Q2204.53 147.983 2203.25 147.983 Q2198.74 147.983 2196.31 150.935 Q2193.91 153.857 2193.91 159.355 L2193.91 176.426 L2188.56 176.426 L2188.56 144.019 L2193.91 144.019 L2193.91 149.054 Q2195.59 146.103 2198.28 144.685 Q2200.97 143.238 2204.82 143.238 Q2205.37 143.238 2206.03 143.325 Q2206.7 143.383 2207.51 143.527 L2207.54 148.996 Z" fill="#000000" fill-rule="evenodd" fill-opacity="1" /><path clip-path="url(#clip080)" d="M2209.3 144.019 L2214.94 144.019 L2225.07 171.218 L2235.2 144.019 L2240.84 144.019 L2228.69 176.426 L2221.45 176.426 L2209.3 144.019 Z" fill="#000000" fill-rule="evenodd" fill-opacity="1" /><path clip-path="url(#clip080)" d="M2275.91 158.892 L2275.91 161.496 L2251.43 161.496 Q2251.78 166.994 2254.73 169.887 Q2257.71 172.752 2263.01 172.752 Q2266.07 172.752 2268.94 171.999 Q2271.83 171.247 2274.67 169.742 L2274.67 174.777 Q2271.8 175.992 2268.79 176.629 Q2265.78 177.266 2262.69 177.266 Q2254.93 177.266 2250.39 172.752 Q2245.88 168.238 2245.88 160.541 Q2245.88 152.584 2250.16 147.925 Q2254.47 143.238 2261.76 143.238 Q2268.3 143.238 2272.09 147.462 Q2275.91 151.658 2275.91 158.892 M2270.59 157.329 Q2270.53 152.96 2268.13 150.356 Q2265.75 147.752 2261.82 147.752 Q2257.36 147.752 2254.67 150.269 Q2252.01 152.787 2251.6 157.358 L2270.59 157.329 Z" fill="#000000" fill-rule="evenodd" fill-opacity="1" /><path clip-path="url(#clip080)" d="M2305.97 148.938 L2305.97 131.404 L2311.3 131.404 L2311.3 176.426 L2305.97 176.426 L2305.97 171.565 Q2304.3 174.459 2301.72 175.877 Q2299.17 177.266 2295.59 177.266 Q2289.71 177.266 2286.01 172.578 Q2282.33 167.891 2282.33 160.252 Q2282.33 152.613 2286.01 147.925 Q2289.71 143.238 2295.59 143.238 Q2299.17 143.238 2301.72 144.656 Q2304.3 146.045 2305.97 148.938 M2287.83 160.252 Q2287.83 166.126 2290.23 169.482 Q2292.66 172.81 2296.89 172.81 Q2301.11 172.81 2303.54 169.482 Q2305.97 166.126 2305.97 160.252 Q2305.97 154.378 2303.54 151.05 Q2301.11 147.694 2296.89 147.694 Q2292.66 147.694 2290.23 151.05 Q2287.83 154.378 2287.83 160.252 Z" fill="#000000" fill-rule="evenodd" fill-opacity="1" /><path clip-path="url(#clip080)" d="M2357.51 131.404 L2357.51 135.831 L2352.41 135.831 Q2349.55 135.831 2348.42 136.988 Q2347.32 138.145 2347.32 141.155 L2347.32 144.019 L2356.09 144.019 L2356.09 148.157 L2347.32 148.157 L2347.32 176.426 L2341.97 176.426 L2341.97 148.157 L2336.88 148.157 L2336.88 144.019 L2341.97 144.019 L2341.97 141.762 Q2341.97 136.351 2344.49 133.892 Q2347 131.404 2352.47 131.404 L2357.51 131.404 Z" fill="#000000" fill-rule="evenodd" fill-opacity="1" /><path clip-path="url(#clip080)" d="M2380.74 148.996 Q2379.84 148.475 2378.77 148.244 Q2377.73 147.983 2376.46 147.983 Q2371.95 147.983 2369.51 150.935 Q2367.11 153.857 2367.11 159.355 L2367.11 176.426 L2361.76 176.426 L2361.76 144.019 L2367.11 144.019 L2367.11 149.054 Q2368.79 146.103 2371.48 144.685 Q2374.17 143.238 2378.02 143.238 Q2378.57 143.238 2379.24 143.325 Q2379.9 143.383 2380.71 143.527 L2380.74 148.996 Z" fill="#000000" fill-rule="evenodd" fill-opacity="1" /><path clip-path="url(#clip080)" d="M2412.74 158.892 L2412.74 161.496 L2388.26 161.496 Q2388.61 166.994 2391.56 169.887 Q2394.54 172.752 2399.84 172.752 Q2402.91 172.752 2405.77 171.999 Q2408.66 171.247 2411.5 169.742 L2411.5 174.777 Q2408.64 175.992 2405.63 176.629 Q2402.62 177.266 2399.52 177.266 Q2391.77 177.266 2387.22 172.752 Q2382.71 168.238 2382.71 160.541 Q2382.71 152.584 2386.99 147.925 Q2391.3 143.238 2398.59 143.238 Q2405.13 143.238 2408.92 147.462 Q2412.74 151.658 2412.74 158.892 M2407.42 157.329 Q2407.36 152.96 2404.96 150.356 Q2402.59 147.752 2398.65 147.752 Q2394.2 147.752 2391.51 150.269 Q2388.84 152.787 2388.44 157.358 L2407.42 157.329 Z" fill="#000000" fill-rule="evenodd" fill-opacity="1" /><path clip-path="url(#clip080)" d="M2424.67 160.252 Q2424.67 166.126 2427.07 169.482 Q2429.5 172.81 2433.72 172.81 Q2437.95 172.81 2440.38 169.482 Q2442.81 166.126 2442.81 160.252 Q2442.81 154.378 2440.38 151.05 Q2437.95 147.694 2433.72 147.694 Q2429.5 147.694 2427.07 151.05 Q2424.67 154.378 2424.67 160.252 M2442.81 171.565 Q2441.13 174.459 2438.55 175.877 Q2436.01 177.266 2432.42 177.266 Q2426.55 177.266 2422.84 172.578 Q2419.17 167.891 2419.17 160.252 Q2419.17 152.613 2422.84 147.925 Q2426.55 143.238 2432.42 143.238 Q2436.01 143.238 2438.55 144.656 Q2441.13 146.045 2442.81 148.938 L2442.81 144.019 L2448.13 144.019 L2448.13 188.753 L2442.81 188.753 L2442.81 171.565 Z" fill="#000000" fill-rule="evenodd" fill-opacity="1" /><path clip-path="url(#clip080)" d="M2458.55 163.637 L2458.55 144.019 L2463.87 144.019 L2463.87 163.435 Q2463.87 168.035 2465.67 170.35 Q2467.46 172.636 2471.05 172.636 Q2475.36 172.636 2477.85 169.887 Q2480.37 167.138 2480.37 162.393 L2480.37 144.019 L2485.69 144.019 L2485.69 176.426 L2480.37 176.426 L2480.37 171.45 Q2478.43 174.401 2475.85 175.848 Q2473.3 177.266 2469.92 177.266 Q2464.33 177.266 2461.44 173.793 Q2458.55 170.321 2458.55 163.637 M2471.94 143.238 L2471.94 143.238 Z" fill="#000000" fill-rule="evenodd" fill-opacity="1" /><path clip-path="url(#clip080)" d="M2524.38 158.892 L2524.38 161.496 L2499.9 161.496 Q2500.24 166.994 2503.19 169.887 Q2506.18 172.752 2511.47 172.752 Q2514.54 172.752 2517.4 171.999 Q2520.3 171.247 2523.13 169.742 L2523.13 174.777 Q2520.27 175.992 2517.26 176.629 Q2514.25 177.266 2511.15 177.266 Q2503.4 177.266 2498.85 172.752 Q2494.34 168.238 2494.34 160.541 Q2494.34 152.584 2498.62 147.925 Q2502.93 143.238 2510.23 143.238 Q2516.77 143.238 2520.56 147.462 Q2524.38 151.658 2524.38 158.892 M2519.05 157.329 Q2518.99 152.96 2516.59 150.356 Q2514.22 147.752 2510.28 147.752 Q2505.83 147.752 2503.14 150.269 Q2500.47 152.787 2500.07 157.358 L2519.05 157.329 Z" fill="#000000" fill-rule="evenodd" fill-opacity="1" /><path clip-path="url(#clip080)" d="M2560.05 156.866 L2560.05 176.426 L2554.73 176.426 L2554.73 157.04 Q2554.73 152.439 2552.93 150.153 Q2551.14 147.868 2547.55 147.868 Q2543.24 147.868 2540.75 150.616 Q2538.26 153.365 2538.26 158.111 L2538.26 176.426 L2532.91 176.426 L2532.91 144.019 L2538.26 144.019 L2538.26 149.054 Q2540.17 146.131 2542.75 144.685 Q2545.35 143.238 2548.74 143.238 Q2554.32 143.238 2557.19 146.71 Q2560.05 150.153 2560.05 156.866 Z" fill="#000000" fill-rule="evenodd" fill-opacity="1" /><path clip-path="url(#clip080)" d="M2593.99 145.263 L2593.99 150.24 Q2591.74 148.996 2589.45 148.388 Q2587.19 147.752 2584.88 147.752 Q2579.7 147.752 2576.83 151.05 Q2573.97 154.32 2573.97 160.252 Q2573.97 166.183 2576.83 169.482 Q2579.7 172.752 2584.88 172.752 Q2587.19 172.752 2589.45 172.144 Q2591.74 171.508 2593.99 170.263 L2593.99 175.182 Q2591.76 176.224 2589.36 176.745 Q2586.99 177.266 2584.3 177.266 Q2576.98 177.266 2572.67 172.665 Q2568.36 168.064 2568.36 160.252 Q2568.36 152.324 2572.7 147.781 Q2577.07 143.238 2584.65 143.238 Q2587.11 143.238 2589.45 143.759 Q2591.79 144.251 2593.99 145.263 Z" fill="#000000" fill-rule="evenodd" fill-opacity="1" /><path clip-path="url(#clip080)" d="M2616.74 179.436 Q2614.48 185.223 2612.34 186.988 Q2610.2 188.753 2606.61 188.753 L2602.36 188.753 L2602.36 184.297 L2605.48 184.297 Q2607.68 184.297 2608.89 183.255 Q2610.11 182.213 2611.59 178.336 L2612.54 175.906 L2599.43 144.019 L2605.07 144.019 L2615.2 169.366 L2625.33 144.019 L2630.97 144.019 L2616.74 179.436 Z" fill="#000000" fill-rule="evenodd" fill-opacity="1" /></svg>
