<?xml version="1.0" encoding="utf-8"?>
<svg xmlns="http://www.w3.org/2000/svg" xmlns:xlink="http://www.w3.org/1999/xlink" width="400" height="200" viewBox="0 0 1600 800">
<defs>
  <clipPath id="clip820">
    <rect x="0" y="0" width="1600" height="800"/>
  </clipPath>
</defs>
<path clip-path="url(#clip820)" d="
M0 800 L1600 800 L1600 0 L0 0  Z
  " fill="#ffffff" fill-rule="evenodd" fill-opacity="1"/>
<defs>
  <clipPath id="clip821">
    <rect x="320" y="0" width="1121" height="800"/>
  </clipPath>
</defs>
<path clip-path="url(#clip820)" d="
M47.2441 703.088 L1552.76 703.088 L1552.76 47.2441 L47.2441 47.2441  Z
  " fill="#ffffff" fill-rule="evenodd" fill-opacity="1"/>
<defs>
  <clipPath id="clip822">
    <rect x="47" y="47" width="1507" height="657"/>
  </clipPath>
</defs>
<polyline clip-path="url(#clip822)" style="stroke:#000000; stroke-linecap:round; stroke-linejoin:round; stroke-width:2; stroke-opacity:0.1; fill:none" points="
  89.8529,703.088 89.8529,47.2441 
  "/>
<polyline clip-path="url(#clip822)" style="stroke:#000000; stroke-linecap:round; stroke-linejoin:round; stroke-width:2; stroke-opacity:0.1; fill:none" points="
  373.912,703.088 373.912,47.2441 
  "/>
<polyline clip-path="url(#clip822)" style="stroke:#000000; stroke-linecap:round; stroke-linejoin:round; stroke-width:2; stroke-opacity:0.1; fill:none" points="
  657.971,703.088 657.971,47.2441 
  "/>
<polyline clip-path="url(#clip822)" style="stroke:#000000; stroke-linecap:round; stroke-linejoin:round; stroke-width:2; stroke-opacity:0.1; fill:none" points="
  942.029,703.088 942.029,47.2441 
  "/>
<polyline clip-path="url(#clip822)" style="stroke:#000000; stroke-linecap:round; stroke-linejoin:round; stroke-width:2; stroke-opacity:0.1; fill:none" points="
  1226.09,703.088 1226.09,47.2441 
  "/>
<polyline clip-path="url(#clip822)" style="stroke:#000000; stroke-linecap:round; stroke-linejoin:round; stroke-width:2; stroke-opacity:0.1; fill:none" points="
  1510.15,703.088 1510.15,47.2441 
  "/>
<polyline clip-path="url(#clip820)" style="stroke:#000000; stroke-linecap:round; stroke-linejoin:round; stroke-width:4; stroke-opacity:1; fill:none" points="
  47.2441,703.088 1552.76,703.088 
  "/>
<polyline clip-path="url(#clip820)" style="stroke:#000000; stroke-linecap:round; stroke-linejoin:round; stroke-width:4; stroke-opacity:1; fill:none" points="
  89.8529,703.088 89.8529,684.19 
  "/>
<polyline clip-path="url(#clip820)" style="stroke:#000000; stroke-linecap:round; stroke-linejoin:round; stroke-width:4; stroke-opacity:1; fill:none" points="
  373.912,703.088 373.912,684.19 
  "/>
<polyline clip-path="url(#clip820)" style="stroke:#000000; stroke-linecap:round; stroke-linejoin:round; stroke-width:4; stroke-opacity:1; fill:none" points="
  657.971,703.088 657.971,684.19 
  "/>
<polyline clip-path="url(#clip820)" style="stroke:#000000; stroke-linecap:round; stroke-linejoin:round; stroke-width:4; stroke-opacity:1; fill:none" points="
  942.029,703.088 942.029,684.19 
  "/>
<polyline clip-path="url(#clip820)" style="stroke:#000000; stroke-linecap:round; stroke-linejoin:round; stroke-width:4; stroke-opacity:1; fill:none" points="
  1226.09,703.088 1226.09,684.19 
  "/>
<polyline clip-path="url(#clip820)" style="stroke:#000000; stroke-linecap:round; stroke-linejoin:round; stroke-width:4; stroke-opacity:1; fill:none" points="
  1510.15,703.088 1510.15,684.19 
  "/>
<path clip-path="url(#clip820)" d="M89.8529 727.607 Q86.2418 727.607 84.4131 731.171 Q82.6076 734.713 82.6076 741.843 Q82.6076 748.949 84.4131 752.514 Q86.2418 756.055 89.8529 756.055 Q93.4872 756.055 95.2927 752.514 Q97.1214 748.949 97.1214 741.843 Q97.1214 734.713 95.2927 731.171 Q93.4872 727.607 89.8529 727.607 M89.8529 723.903 Q95.6631 723.903 98.7186 728.509 Q101.797 733.093 101.797 741.843 Q101.797 750.569 98.7186 755.176 Q95.6631 759.759 89.8529 759.759 Q84.0428 759.759 80.9641 755.176 Q77.9085 750.569 77.9085 741.843 Q77.9085 733.093 80.9641 728.509 Q84.0428 723.903 89.8529 723.903 Z" fill="#000000" fill-rule="evenodd" fill-opacity="1" /><path clip-path="url(#clip820)" d="M364.294 755.153 L371.933 755.153 L371.933 728.787 L363.622 730.454 L363.622 726.195 L371.886 724.528 L376.562 724.528 L376.562 755.153 L384.201 755.153 L384.201 759.088 L364.294 759.088 L364.294 755.153 Z" fill="#000000" fill-rule="evenodd" fill-opacity="1" /><path clip-path="url(#clip820)" d="M652.623 755.153 L668.943 755.153 L668.943 759.088 L646.998 759.088 L646.998 755.153 Q649.66 752.398 654.244 747.768 Q658.85 743.116 660.031 741.773 Q662.276 739.25 663.156 737.514 Q664.059 735.755 664.059 734.065 Q664.059 731.31 662.114 729.574 Q660.193 727.838 657.091 727.838 Q654.892 727.838 652.438 728.602 Q650.008 729.366 647.23 730.917 L647.23 726.195 Q650.054 725.06 652.508 724.482 Q654.961 723.903 656.998 723.903 Q662.369 723.903 665.563 726.588 Q668.758 729.273 668.758 733.764 Q668.758 735.894 667.947 737.815 Q667.16 739.713 665.054 742.306 Q664.475 742.977 661.373 746.194 Q658.272 749.389 652.623 755.153 Z" fill="#000000" fill-rule="evenodd" fill-opacity="1" /><path clip-path="url(#clip820)" d="M946.277 740.454 Q949.634 741.171 951.509 743.44 Q953.407 745.708 953.407 749.042 Q953.407 754.157 949.888 756.958 Q946.37 759.759 939.888 759.759 Q937.712 759.759 935.398 759.319 Q933.106 758.903 930.652 758.046 L930.652 753.532 Q932.597 754.667 934.911 755.245 Q937.226 755.824 939.749 755.824 Q944.147 755.824 946.439 754.088 Q948.754 752.352 948.754 749.042 Q948.754 745.986 946.601 744.273 Q944.472 742.537 940.652 742.537 L936.624 742.537 L936.624 738.694 L940.837 738.694 Q944.286 738.694 946.115 737.329 Q947.944 735.94 947.944 733.347 Q947.944 730.685 946.046 729.273 Q944.171 727.838 940.652 727.838 Q938.731 727.838 936.532 728.255 Q934.333 728.671 931.694 729.551 L931.694 725.384 Q934.356 724.644 936.671 724.273 Q939.009 723.903 941.069 723.903 Q946.393 723.903 949.495 726.333 Q952.596 728.741 952.596 732.861 Q952.596 735.732 950.953 737.722 Q949.309 739.69 946.277 740.454 Z" fill="#000000" fill-rule="evenodd" fill-opacity="1" /><path clip-path="url(#clip820)" d="M1229.1 728.602 L1217.29 747.051 L1229.1 747.051 L1229.1 728.602 M1227.87 724.528 L1233.75 724.528 L1233.75 747.051 L1238.68 747.051 L1238.68 750.94 L1233.75 750.94 L1233.75 759.088 L1229.1 759.088 L1229.1 750.94 L1213.5 750.94 L1213.5 746.426 L1227.87 724.528 Z" fill="#000000" fill-rule="evenodd" fill-opacity="1" /><path clip-path="url(#clip820)" d="M1500.42 724.528 L1518.78 724.528 L1518.78 728.463 L1504.71 728.463 L1504.71 736.935 Q1505.73 736.588 1506.74 736.426 Q1507.76 736.241 1508.78 736.241 Q1514.57 736.241 1517.95 739.412 Q1521.33 742.583 1521.33 748 Q1521.33 753.579 1517.86 756.68 Q1514.38 759.759 1508.06 759.759 Q1505.89 759.759 1503.62 759.389 Q1501.37 759.018 1498.97 758.278 L1498.97 753.579 Q1501.05 754.713 1503.27 755.268 Q1505.49 755.824 1507.97 755.824 Q1511.98 755.824 1514.31 753.718 Q1516.65 751.611 1516.65 748 Q1516.65 744.389 1514.31 742.282 Q1511.98 740.176 1507.97 740.176 Q1506.1 740.176 1504.22 740.593 Q1502.37 741.009 1500.42 741.889 L1500.42 724.528 Z" fill="#000000" fill-rule="evenodd" fill-opacity="1" /><path clip-path="url(#clip822)" d="
M89.8529 679.312 L89.8529 679.312 L89.8529 505.514 L89.8529 505.514 L89.8529 679.312 L89.8529 679.312  Z
  " fill="#808080" fill-rule="evenodd" fill-opacity="0.3"/>
<polyline clip-path="url(#clip822)" style="stroke:#000000; stroke-linecap:round; stroke-linejoin:round; stroke-width:4; stroke-opacity:0.3; fill:none" points="
  89.8529,679.312 89.8529,679.312 89.8529,505.514 89.8529,679.312 
  "/>
<circle clip-path="url(#clip822)" style="fill:#808080; stroke:none; fill-opacity:0" cx="89.8529" cy="592.413" r="2"/>
<path clip-path="url(#clip822)" d="
M373.912 462.065 L89.8529 462.065 L89.8529 288.267 L373.912 288.267 L373.912 462.065 L373.912 462.065  Z
  " fill="#ff0000" fill-rule="evenodd" fill-opacity="0.3"/>
<polyline clip-path="url(#clip822)" style="stroke:#000000; stroke-linecap:round; stroke-linejoin:round; stroke-width:4; stroke-opacity:0.3; fill:none" points="
  373.912,462.065 89.8529,462.065 89.8529,288.267 373.912,288.267 373.912,462.065 
  "/>
<circle clip-path="url(#clip822)" style="fill:#ff0000; stroke:none; fill-opacity:0" cx="373.912" cy="375.166" r="2"/>
<path clip-path="url(#clip822)" d="
M1510.15 244.818 L89.8529 244.818 L89.8529 71.0196 L1510.15 71.0196 L1510.15 244.818 L1510.15 244.818  Z
  " fill="#008000" fill-rule="evenodd" fill-opacity="0.3"/>
<polyline clip-path="url(#clip822)" style="stroke:#000000; stroke-linecap:round; stroke-linejoin:round; stroke-width:4; stroke-opacity:0.3; fill:none" points="
  1510.15,244.818 89.8529,244.818 89.8529,71.0196 1510.15,71.0196 1510.15,244.818 
  "/>
<circle clip-path="url(#clip822)" style="fill:#008000; stroke:none; fill-opacity:0" cx="1510.15" cy="157.919" r="2"/>
<path clip-path="url(#clip820)" d="M118.259 127.679 L126.482 127.679 L126.482 164.42 Q126.482 174.142 130.006 178.436 Q133.531 182.69 141.43 182.69 Q149.289 182.69 152.813 178.436 Q156.337 174.142 156.337 164.42 L156.337 127.679 L164.561 127.679 L164.561 165.433 Q164.561 177.262 158.687 183.298 Q152.854 189.333 141.43 189.333 Q129.966 189.333 124.092 183.298 Q118.259 177.262 118.259 165.433 L118.259 127.679 Z" fill="#000000" fill-rule="evenodd" fill-opacity="1" /><path clip-path="url(#clip820)" d="M217.303 160.774 L217.303 188.159 L209.85 188.159 L209.85 161.018 Q209.85 154.577 207.338 151.376 Q204.827 148.176 199.804 148.176 Q193.768 148.176 190.284 152.025 Q186.8 155.873 186.8 162.516 L186.8 188.159 L179.306 188.159 L179.306 142.788 L186.8 142.788 L186.8 149.837 Q189.474 145.746 193.079 143.72 Q196.725 141.695 201.464 141.695 Q209.283 141.695 213.293 146.556 Q217.303 151.376 217.303 160.774 Z" fill="#000000" fill-rule="evenodd" fill-opacity="1" /><path clip-path="url(#clip820)" d="M232.17 142.788 L239.624 142.788 L239.624 188.159 L232.17 188.159 L232.17 142.788 M232.17 125.127 L239.624 125.127 L239.624 134.565 L232.17 134.565 L232.17 125.127 Z" fill="#000000" fill-rule="evenodd" fill-opacity="1" /><path clip-path="url(#clip820)" d="M262.593 129.907 L262.593 142.788 L277.945 142.788 L277.945 148.581 L262.593 148.581 L262.593 173.211 Q262.593 178.761 264.091 180.34 Q265.631 181.92 270.289 181.92 L277.945 181.92 L277.945 188.159 L270.289 188.159 Q261.661 188.159 258.38 184.958 Q255.098 181.718 255.098 173.211 L255.098 148.581 L249.63 148.581 L249.63 142.788 L255.098 142.788 L255.098 129.907 L262.593 129.907 Z" fill="#000000" fill-rule="evenodd" fill-opacity="1" /><path clip-path="url(#clip820)" d="M350.7 129.664 L350.7 137.644 Q346.041 135.416 341.909 134.322 Q337.777 133.228 333.929 133.228 Q327.245 133.228 323.599 135.821 Q319.994 138.413 319.994 143.194 Q319.994 147.204 322.384 149.27 Q324.814 151.295 331.539 152.551 L336.481 153.564 Q345.636 155.306 349.971 159.721 Q354.346 164.096 354.346 171.469 Q354.346 180.259 348.431 184.796 Q342.557 189.333 331.174 189.333 Q326.88 189.333 322.019 188.361 Q317.199 187.389 312.014 185.485 L312.014 177.059 Q316.996 179.854 321.776 181.272 Q326.556 182.69 331.174 182.69 Q338.182 182.69 341.99 179.935 Q345.798 177.181 345.798 172.077 Q345.798 167.621 343.043 165.109 Q340.329 162.597 334.091 161.342 L329.108 160.369 Q319.953 158.546 315.862 154.658 Q311.77 150.769 311.77 143.842 Q311.77 135.821 317.401 131.203 Q323.073 126.585 332.997 126.585 Q337.251 126.585 341.666 127.355 Q346.082 128.124 350.7 129.664 Z" fill="#000000" fill-rule="evenodd" fill-opacity="1" /><path clip-path="url(#clip820)" d="M405.589 163.61 L405.589 167.256 L371.319 167.256 Q371.805 174.953 375.937 179.004 Q380.109 183.014 387.522 183.014 Q391.816 183.014 395.827 181.961 Q399.878 180.907 403.848 178.801 L403.848 185.85 Q399.837 187.551 395.624 188.442 Q391.411 189.333 387.077 189.333 Q376.22 189.333 369.86 183.014 Q363.541 176.695 363.541 165.919 Q363.541 154.779 369.536 148.257 Q375.572 141.695 385.781 141.695 Q394.936 141.695 400.242 147.609 Q405.589 153.483 405.589 163.61 M398.136 161.423 Q398.055 155.306 394.693 151.66 Q391.371 148.014 385.862 148.014 Q379.623 148.014 375.856 151.538 Q372.129 155.063 371.562 161.463 L398.136 161.423 Z" fill="#000000" fill-rule="evenodd" fill-opacity="1" /><path clip-path="url(#clip820)" d="M417.823 125.127 L425.277 125.127 L425.277 188.159 L417.823 188.159 L417.823 125.127 Z" fill="#000000" fill-rule="evenodd" fill-opacity="1" /><path clip-path="url(#clip820)" d="M440.873 125.127 L448.326 125.127 L448.326 188.159 L440.873 188.159 L440.873 125.127 Z" fill="#000000" fill-rule="evenodd" fill-opacity="1" /><path clip-path="url(#clip820)" d="M463.922 142.788 L471.376 142.788 L471.376 188.159 L463.922 188.159 L463.922 142.788 M463.922 125.127 L471.376 125.127 L471.376 134.565 L463.922 134.565 L463.922 125.127 Z" fill="#000000" fill-rule="evenodd" fill-opacity="1" /><path clip-path="url(#clip820)" d="M524.686 160.774 L524.686 188.159 L517.232 188.159 L517.232 161.018 Q517.232 154.577 514.721 151.376 Q512.209 148.176 507.186 148.176 Q501.15 148.176 497.666 152.025 Q494.183 155.873 494.183 162.516 L494.183 188.159 L486.689 188.159 L486.689 142.788 L494.183 142.788 L494.183 149.837 Q496.856 145.746 500.462 143.72 Q504.107 141.695 508.847 141.695 Q516.665 141.695 520.676 146.556 Q524.686 151.376 524.686 160.774 Z" fill="#000000" fill-rule="evenodd" fill-opacity="1" /><path clip-path="url(#clip820)" d="M569.408 164.947 Q569.408 156.845 566.046 152.389 Q562.724 147.933 556.688 147.933 Q550.693 147.933 547.331 152.389 Q544.009 156.845 544.009 164.947 Q544.009 173.008 547.331 177.464 Q550.693 181.92 556.688 181.92 Q562.724 181.92 566.046 177.464 Q569.408 173.008 569.408 164.947 M576.862 182.528 Q576.862 194.113 571.717 199.744 Q566.572 205.415 555.959 205.415 Q552.03 205.415 548.546 204.808 Q545.062 204.241 541.781 203.025 L541.781 195.774 Q545.062 197.557 548.262 198.407 Q551.462 199.258 554.784 199.258 Q562.116 199.258 565.762 195.41 Q569.408 191.602 569.408 183.865 L569.408 180.178 Q567.099 184.189 563.494 186.174 Q559.888 188.159 554.865 188.159 Q546.52 188.159 541.416 181.799 Q536.312 175.439 536.312 164.947 Q536.312 154.415 541.416 148.055 Q546.52 141.695 554.865 141.695 Q559.888 141.695 563.494 143.68 Q567.099 145.665 569.408 149.675 L569.408 142.788 L576.862 142.788 L576.862 182.528 Z" fill="#000000" fill-rule="evenodd" fill-opacity="1" /><path clip-path="url(#clip820)" d="M627.093 134.403 L627.093 157.129 L637.382 157.129 Q643.094 157.129 646.213 154.172 Q649.332 151.214 649.332 145.746 Q649.332 140.317 646.213 137.36 Q643.094 134.403 637.382 134.403 L627.093 134.403 M618.91 127.679 L637.382 127.679 Q647.55 127.679 652.735 132.297 Q657.961 136.874 657.961 145.746 Q657.961 154.698 652.735 159.276 Q647.55 163.853 637.382 163.853 L627.093 163.853 L627.093 188.159 L618.91 188.159 L618.91 127.679 Z" fill="#000000" fill-rule="evenodd" fill-opacity="1" /><path clip-path="url(#clip820)" d="M693.447 149.756 Q692.191 149.027 690.692 148.703 Q689.234 148.338 687.451 148.338 Q681.132 148.338 677.729 152.47 Q674.367 156.562 674.367 164.258 L674.367 188.159 L666.873 188.159 L666.873 142.788 L674.367 142.788 L674.367 149.837 Q676.716 145.705 680.484 143.72 Q684.251 141.695 689.639 141.695 Q690.409 141.695 691.34 141.816 Q692.272 141.897 693.406 142.1 L693.447 149.756 Z" fill="#000000" fill-rule="evenodd" fill-opacity="1" /><path clip-path="url(#clip820)" d="M701.265 142.788 L708.719 142.788 L708.719 188.159 L701.265 188.159 L701.265 142.788 M701.265 125.127 L708.719 125.127 L708.719 134.565 L701.265 134.565 L701.265 125.127 Z" fill="#000000" fill-rule="evenodd" fill-opacity="1" /><path clip-path="url(#clip820)" d="M756.965 144.53 L756.965 151.498 Q753.805 149.756 750.605 148.905 Q747.445 148.014 744.205 148.014 Q736.953 148.014 732.943 152.632 Q728.933 157.21 728.933 165.514 Q728.933 173.818 732.943 178.436 Q736.953 183.014 744.205 183.014 Q747.445 183.014 750.605 182.163 Q753.805 181.272 756.965 179.53 L756.965 186.417 Q753.846 187.875 750.483 188.604 Q747.162 189.333 743.394 189.333 Q733.146 189.333 727.11 182.892 Q721.074 176.451 721.074 165.514 Q721.074 154.415 727.15 148.055 Q733.267 141.695 743.88 141.695 Q747.324 141.695 750.605 142.424 Q753.886 143.113 756.965 144.53 Z" fill="#000000" fill-rule="evenodd" fill-opacity="1" /><path clip-path="url(#clip820)" d="M808.735 163.61 L808.735 167.256 L774.465 167.256 Q774.951 174.953 779.083 179.004 Q783.255 183.014 790.668 183.014 Q794.962 183.014 798.973 181.961 Q803.024 180.907 806.994 178.801 L806.994 185.85 Q802.983 187.551 798.77 188.442 Q794.557 189.333 790.223 189.333 Q779.366 189.333 773.006 183.014 Q766.687 176.695 766.687 165.919 Q766.687 154.779 772.682 148.257 Q778.718 141.695 788.927 141.695 Q798.082 141.695 803.388 147.609 Q808.735 153.483 808.735 163.61 M801.282 161.423 Q801.201 155.306 797.838 151.66 Q794.517 148.014 789.008 148.014 Q782.769 148.014 779.002 151.538 Q775.275 155.063 774.708 161.463 L801.282 161.423 Z" fill="#000000" fill-rule="evenodd" fill-opacity="1" /><path clip-path="url(#clip820)" d="M118.259 344.926 L126.482 344.926 L126.482 381.668 Q126.482 391.39 130.006 395.684 Q133.531 399.937 141.43 399.937 Q149.289 399.937 152.813 395.684 Q156.337 391.39 156.337 381.668 L156.337 344.926 L164.561 344.926 L164.561 382.68 Q164.561 394.509 158.687 400.545 Q152.854 406.581 141.43 406.581 Q129.966 406.581 124.092 400.545 Q118.259 394.509 118.259 382.68 L118.259 344.926 Z" fill="#000000" fill-rule="evenodd" fill-opacity="1" /><path clip-path="url(#clip820)" d="M217.303 378.022 L217.303 405.406 L209.85 405.406 L209.85 378.265 Q209.85 371.824 207.338 368.624 Q204.827 365.424 199.804 365.424 Q193.768 365.424 190.284 369.272 Q186.8 373.12 186.8 379.764 L186.8 405.406 L179.306 405.406 L179.306 360.036 L186.8 360.036 L186.8 367.084 Q189.474 362.993 193.079 360.968 Q196.725 358.942 201.464 358.942 Q209.283 358.942 213.293 363.803 Q217.303 368.624 217.303 378.022 Z" fill="#000000" fill-rule="evenodd" fill-opacity="1" /><path clip-path="url(#clip820)" d="M232.17 360.036 L239.624 360.036 L239.624 405.406 L232.17 405.406 L232.17 360.036 M232.17 342.374 L239.624 342.374 L239.624 351.813 L232.17 351.813 L232.17 342.374 Z" fill="#000000" fill-rule="evenodd" fill-opacity="1" /><path clip-path="url(#clip820)" d="M262.593 347.154 L262.593 360.036 L277.945 360.036 L277.945 365.829 L262.593 365.829 L262.593 390.458 Q262.593 396.008 264.091 397.588 Q265.631 399.168 270.289 399.168 L277.945 399.168 L277.945 405.406 L270.289 405.406 Q261.661 405.406 258.38 402.206 Q255.098 398.965 255.098 390.458 L255.098 365.829 L249.63 365.829 L249.63 360.036 L255.098 360.036 L255.098 347.154 L262.593 347.154 Z" fill="#000000" fill-rule="evenodd" fill-opacity="1" /><path clip-path="url(#clip820)" d="M359.733 349.585 L359.733 358.213 Q355.601 354.365 350.902 352.461 Q346.244 350.557 340.978 350.557 Q330.607 350.557 325.098 356.917 Q319.589 363.236 319.589 375.227 Q319.589 387.177 325.098 393.537 Q330.607 399.856 340.978 399.856 Q346.244 399.856 350.902 397.952 Q355.601 396.048 359.733 392.2 L359.733 400.747 Q355.439 403.664 350.619 405.122 Q345.839 406.581 340.491 406.581 Q326.759 406.581 318.86 398.195 Q310.96 389.769 310.96 375.227 Q310.96 360.643 318.86 352.258 Q326.759 343.832 340.491 343.832 Q345.92 343.832 350.7 345.291 Q355.52 346.708 359.733 349.585 Z" fill="#000000" fill-rule="evenodd" fill-opacity="1" /><path clip-path="url(#clip820)" d="M389.629 365.262 Q383.634 365.262 380.15 369.961 Q376.666 374.619 376.666 382.761 Q376.666 390.904 380.109 395.603 Q383.593 400.261 389.629 400.261 Q395.584 400.261 399.067 395.562 Q402.551 390.863 402.551 382.761 Q402.551 374.7 399.067 370.001 Q395.584 365.262 389.629 365.262 M389.629 358.942 Q399.351 358.942 404.901 365.262 Q410.451 371.581 410.451 382.761 Q410.451 393.901 404.901 400.261 Q399.351 406.581 389.629 406.581 Q379.866 406.581 374.316 400.261 Q368.807 393.901 368.807 382.761 Q368.807 371.581 374.316 365.262 Q379.866 358.942 389.629 358.942 Z" fill="#000000" fill-rule="evenodd" fill-opacity="1" /><path clip-path="url(#clip820)" d="M451.729 361.373 L451.729 368.421 Q448.57 366.801 445.167 365.991 Q441.764 365.181 438.118 365.181 Q432.568 365.181 429.773 366.882 Q427.019 368.583 427.019 371.986 Q427.019 374.579 429.004 376.077 Q430.989 377.536 436.984 378.873 L439.536 379.44 Q447.476 381.141 450.798 384.26 Q454.16 387.339 454.16 392.889 Q454.16 399.208 449.137 402.894 Q444.154 406.581 435.404 406.581 Q431.758 406.581 427.788 405.852 Q423.859 405.163 419.484 403.745 L419.484 396.048 Q423.616 398.195 427.626 399.289 Q431.637 400.342 435.566 400.342 Q440.832 400.342 443.668 398.56 Q446.504 396.737 446.504 393.456 Q446.504 390.418 444.438 388.797 Q442.412 387.177 435.485 385.678 L432.893 385.07 Q425.965 383.612 422.887 380.614 Q419.808 377.576 419.808 372.31 Q419.808 365.91 424.345 362.426 Q428.882 358.942 437.227 358.942 Q441.359 358.942 445.005 359.55 Q448.651 360.157 451.729 361.373 Z" fill="#000000" fill-rule="evenodd" fill-opacity="1" /><path clip-path="url(#clip820)" d="M473.402 347.154 L473.402 360.036 L488.755 360.036 L488.755 365.829 L473.402 365.829 L473.402 390.458 Q473.402 396.008 474.9 397.588 Q476.44 399.168 481.098 399.168 L488.755 399.168 L488.755 405.406 L481.098 405.406 Q472.47 405.406 469.189 402.206 Q465.907 398.965 465.907 390.458 L465.907 365.829 L460.439 365.829 L460.439 360.036 L465.907 360.036 L465.907 347.154 L473.402 347.154 Z" fill="#000000" fill-rule="evenodd" fill-opacity="1" /><path clip-path="url(#clip820)" d="M118.259 562.173 L126.482 562.173 L126.482 598.915 Q126.482 608.637 130.006 612.931 Q133.531 617.185 141.43 617.185 Q149.289 617.185 152.813 612.931 Q156.337 608.637 156.337 598.915 L156.337 562.173 L164.561 562.173 L164.561 599.928 Q164.561 611.756 158.687 617.792 Q152.854 623.828 141.43 623.828 Q129.966 623.828 124.092 617.792 Q118.259 611.756 118.259 599.928 L118.259 562.173 Z" fill="#000000" fill-rule="evenodd" fill-opacity="1" /><path clip-path="url(#clip820)" d="M217.303 595.269 L217.303 622.653 L209.85 622.653 L209.85 595.512 Q209.85 589.071 207.338 585.871 Q204.827 582.671 199.804 582.671 Q193.768 582.671 190.284 586.519 Q186.8 590.368 186.8 597.011 L186.8 622.653 L179.306 622.653 L179.306 577.283 L186.8 577.283 L186.8 584.332 Q189.474 580.24 193.079 578.215 Q196.725 576.189 201.464 576.189 Q209.283 576.189 213.293 581.051 Q217.303 585.871 217.303 595.269 Z" fill="#000000" fill-rule="evenodd" fill-opacity="1" /><path clip-path="url(#clip820)" d="M232.17 577.283 L239.624 577.283 L239.624 622.653 L232.17 622.653 L232.17 577.283 M232.17 559.621 L239.624 559.621 L239.624 569.06 L232.17 569.06 L232.17 559.621 Z" fill="#000000" fill-rule="evenodd" fill-opacity="1" /><path clip-path="url(#clip820)" d="M262.593 564.401 L262.593 577.283 L277.945 577.283 L277.945 583.076 L262.593 583.076 L262.593 607.706 Q262.593 613.255 264.091 614.835 Q265.631 616.415 270.289 616.415 L277.945 616.415 L277.945 622.653 L270.289 622.653 Q261.661 622.653 258.38 619.453 Q255.098 616.212 255.098 607.706 L255.098 583.076 L249.63 583.076 L249.63 577.283 L255.098 577.283 L255.098 564.401 L262.593 564.401 Z" fill="#000000" fill-rule="evenodd" fill-opacity="1" /><path clip-path="url(#clip820)" d="M350.7 564.158 L350.7 572.139 Q346.041 569.911 341.909 568.817 Q337.777 567.723 333.929 567.723 Q327.245 567.723 323.599 570.316 Q319.994 572.908 319.994 577.688 Q319.994 581.699 322.384 583.765 Q324.814 585.79 331.539 587.046 L336.481 588.059 Q345.636 589.801 349.971 594.216 Q354.346 598.591 354.346 605.964 Q354.346 614.754 348.431 619.291 Q342.557 623.828 331.174 623.828 Q326.88 623.828 322.019 622.856 Q317.199 621.884 312.014 619.98 L312.014 611.554 Q316.996 614.349 321.776 615.767 Q326.556 617.185 331.174 617.185 Q338.182 617.185 341.99 614.43 Q345.798 611.675 345.798 606.571 Q345.798 602.115 343.043 599.604 Q340.329 597.092 334.091 595.836 L329.108 594.864 Q319.953 593.041 315.862 589.152 Q311.77 585.264 311.77 578.336 Q311.77 570.316 317.401 565.698 Q323.073 561.08 332.997 561.08 Q337.251 561.08 341.666 561.849 Q346.082 562.619 350.7 564.158 Z" fill="#000000" fill-rule="evenodd" fill-opacity="1" /><path clip-path="url(#clip820)" d="M387.401 599.847 Q378.367 599.847 374.884 601.913 Q371.4 603.979 371.4 608.961 Q371.4 612.931 373.992 615.281 Q376.625 617.59 381.122 617.59 Q387.32 617.59 391.047 613.215 Q394.814 608.799 394.814 601.508 L394.814 599.847 L387.401 599.847 M402.268 596.768 L402.268 622.653 L394.814 622.653 L394.814 615.767 Q392.262 619.899 388.454 621.884 Q384.646 623.828 379.137 623.828 Q372.169 623.828 368.038 619.939 Q363.946 616.01 363.946 609.447 Q363.946 601.791 369.05 597.902 Q374.195 594.013 384.363 594.013 L394.814 594.013 L394.814 593.284 Q394.814 588.14 391.411 585.345 Q388.049 582.509 381.932 582.509 Q378.043 582.509 374.357 583.441 Q370.671 584.372 367.268 586.236 L367.268 579.349 Q371.359 577.769 375.208 577 Q379.056 576.189 382.702 576.189 Q392.546 576.189 397.407 581.294 Q402.268 586.398 402.268 596.768 Z" fill="#000000" fill-rule="evenodd" fill-opacity="1" /><path clip-path="url(#clip820)" d="M417.621 559.621 L425.074 559.621 L425.074 622.653 L417.621 622.653 L417.621 559.621 Z" fill="#000000" fill-rule="evenodd" fill-opacity="1" /><path clip-path="url(#clip820)" d="M435.323 577.283 L443.222 577.283 L457.401 615.362 L471.579 577.283 L479.478 577.283 L462.464 622.653 L452.337 622.653 L435.323 577.283 Z" fill="#000000" fill-rule="evenodd" fill-opacity="1" /><path clip-path="url(#clip820)" d="M510.386 599.847 Q501.353 599.847 497.869 601.913 Q494.385 603.979 494.385 608.961 Q494.385 612.931 496.978 615.281 Q499.611 617.59 504.107 617.59 Q510.305 617.59 514.032 613.215 Q517.799 608.799 517.799 601.508 L517.799 599.847 L510.386 599.847 M525.253 596.768 L525.253 622.653 L517.799 622.653 L517.799 615.767 Q515.247 619.899 511.44 621.884 Q507.632 623.828 502.122 623.828 Q495.155 623.828 491.023 619.939 Q486.932 616.01 486.932 609.447 Q486.932 601.791 492.036 597.902 Q497.18 594.013 507.348 594.013 L517.799 594.013 L517.799 593.284 Q517.799 588.14 514.397 585.345 Q511.034 582.509 504.918 582.509 Q501.029 582.509 497.342 583.441 Q493.656 584.372 490.253 586.236 L490.253 579.349 Q494.345 577.769 498.193 577 Q502.041 576.189 505.687 576.189 Q515.531 576.189 520.392 581.294 Q525.253 586.398 525.253 596.768 Z" fill="#000000" fill-rule="evenodd" fill-opacity="1" /><path clip-path="url(#clip820)" d="M570.461 599.442 Q570.461 591.34 567.099 586.884 Q563.777 582.428 557.741 582.428 Q551.746 582.428 548.384 586.884 Q545.062 591.34 545.062 599.442 Q545.062 607.503 548.384 611.959 Q551.746 616.415 557.741 616.415 Q563.777 616.415 567.099 611.959 Q570.461 607.503 570.461 599.442 M577.915 617.023 Q577.915 628.608 572.77 634.239 Q567.626 639.91 557.012 639.91 Q553.083 639.91 549.599 639.303 Q546.115 638.735 542.834 637.52 L542.834 630.269 Q546.115 632.051 549.316 632.902 Q552.516 633.753 555.837 633.753 Q563.17 633.753 566.815 629.904 Q570.461 626.097 570.461 618.359 L570.461 614.673 Q568.152 618.683 564.547 620.668 Q560.942 622.653 555.918 622.653 Q547.574 622.653 542.469 616.293 Q537.365 609.934 537.365 599.442 Q537.365 588.909 542.469 582.549 Q547.574 576.189 555.918 576.189 Q560.942 576.189 564.547 578.174 Q568.152 580.159 570.461 584.17 L570.461 577.283 L577.915 577.283 L577.915 617.023 Z" fill="#000000" fill-rule="evenodd" fill-opacity="1" /><path clip-path="url(#clip820)" d="M632.075 598.105 L632.075 601.751 L597.805 601.751 Q598.291 609.447 602.423 613.498 Q606.595 617.509 614.008 617.509 Q618.302 617.509 622.313 616.455 Q626.364 615.402 630.334 613.296 L630.334 620.344 Q626.323 622.046 622.11 622.937 Q617.897 623.828 613.563 623.828 Q602.706 623.828 596.347 617.509 Q590.027 611.189 590.027 600.414 Q590.027 589.274 596.022 582.752 Q602.058 576.189 612.267 576.189 Q621.422 576.189 626.728 582.104 Q632.075 587.978 632.075 598.105 M624.622 595.917 Q624.541 589.801 621.179 586.155 Q617.857 582.509 612.348 582.509 Q606.109 582.509 602.342 586.033 Q598.615 589.557 598.048 595.958 L624.622 595.917 Z" fill="#000000" fill-rule="evenodd" fill-opacity="1" /><path clip-path="url(#clip820)" d="M686.601 622.653 L663.511 562.173 L672.058 562.173 L691.219 613.093 L710.42 562.173 L718.927 562.173 L695.877 622.653 L686.601 622.653 Z" fill="#000000" fill-rule="evenodd" fill-opacity="1" /><path clip-path="url(#clip820)" d="M741.612 599.847 Q732.578 599.847 729.095 601.913 Q725.611 603.979 725.611 608.961 Q725.611 612.931 728.203 615.281 Q730.837 617.59 735.333 617.59 Q741.531 617.59 745.258 613.215 Q749.025 608.799 749.025 601.508 L749.025 599.847 L741.612 599.847 M756.479 596.768 L756.479 622.653 L749.025 622.653 L749.025 615.767 Q746.473 619.899 742.665 621.884 Q738.857 623.828 733.348 623.828 Q726.381 623.828 722.249 619.939 Q718.157 616.01 718.157 609.447 Q718.157 601.791 723.261 597.902 Q728.406 594.013 738.574 594.013 L749.025 594.013 L749.025 593.284 Q749.025 588.14 745.622 585.345 Q742.26 582.509 736.143 582.509 Q732.254 582.509 728.568 583.441 Q724.882 584.372 721.479 586.236 L721.479 579.349 Q725.57 577.769 729.419 577 Q733.267 576.189 736.913 576.189 Q746.757 576.189 751.618 581.294 Q756.479 586.398 756.479 596.768 Z" fill="#000000" fill-rule="evenodd" fill-opacity="1" /><path clip-path="url(#clip820)" d="M771.832 559.621 L779.285 559.621 L779.285 622.653 L771.832 622.653 L771.832 559.621 Z" fill="#000000" fill-rule="evenodd" fill-opacity="1" /><path clip-path="url(#clip820)" d="M794.112 604.748 L794.112 577.283 L801.565 577.283 L801.565 604.465 Q801.565 610.906 804.077 614.146 Q806.588 617.347 811.612 617.347 Q817.647 617.347 821.131 613.498 Q824.655 609.65 824.655 603.006 L824.655 577.283 L832.109 577.283 L832.109 622.653 L824.655 622.653 L824.655 615.686 Q821.941 619.818 818.336 621.843 Q814.771 623.828 810.032 623.828 Q802.213 623.828 798.163 618.967 Q794.112 614.106 794.112 604.748 M812.867 576.189 L812.867 576.189 Z" fill="#000000" fill-rule="evenodd" fill-opacity="1" /><path clip-path="url(#clip820)" d="M886.27 598.105 L886.27 601.751 L851.999 601.751 Q852.485 609.447 856.617 613.498 Q860.79 617.509 868.203 617.509 Q872.497 617.509 876.507 616.455 Q880.558 615.402 884.528 613.296 L884.528 620.344 Q880.517 622.046 876.305 622.937 Q872.092 623.828 867.757 623.828 Q856.901 623.828 850.541 617.509 Q844.221 611.189 844.221 600.414 Q844.221 589.274 850.217 582.752 Q856.253 576.189 866.461 576.189 Q875.616 576.189 880.923 582.104 Q886.27 587.978 886.27 598.105 M878.816 595.917 Q878.735 589.801 875.373 586.155 Q872.051 582.509 866.542 582.509 Q860.303 582.509 856.536 586.033 Q852.809 589.557 852.242 595.958 L878.816 595.917 Z" fill="#000000" fill-rule="evenodd" fill-opacity="1" /></svg>
