<?xml version="1.0" encoding="utf-8"?>
<svg xmlns="http://www.w3.org/2000/svg" xmlns:xlink="http://www.w3.org/1999/xlink" width="600" height="400" viewBox="0 0 2400 1600">
<defs>
  <clipPath id="clip500">
    <rect x="0" y="0" width="2400" height="1600"/>
  </clipPath>
</defs>
<path clip-path="url(#clip500)" d="
M0 1600 L2400 1600 L2400 0 L0 0  Z
  " fill="#ffffff" fill-rule="evenodd" fill-opacity="1"/>
<defs>
  <clipPath id="clip501">
    <rect x="480" y="0" width="1681" height="1600"/>
  </clipPath>
</defs>
<path clip-path="url(#clip500)" d="
M440.339 1423.18 L2352.76 1423.18 L2352.76 47.2441 L440.339 47.2441  Z
  " fill="#ffffff" fill-rule="evenodd" fill-opacity="1"/>
<defs>
  <clipPath id="clip502">
    <rect x="440" y="47" width="1913" height="1377"/>
  </clipPath>
</defs>
<polyline clip-path="url(#clip502)" style="stroke:#000000; stroke-linecap:round; stroke-linejoin:round; stroke-width:2; stroke-opacity:0.1; fill:none" points="
  679.391,1423.18 679.391,47.2441 
  "/>
<polyline clip-path="url(#clip502)" style="stroke:#000000; stroke-linecap:round; stroke-linejoin:round; stroke-width:2; stroke-opacity:0.1; fill:none" points="
  1396.55,1423.18 1396.55,47.2441 
  "/>
<polyline clip-path="url(#clip502)" style="stroke:#000000; stroke-linecap:round; stroke-linejoin:round; stroke-width:2; stroke-opacity:0.1; fill:none" points="
  2113.7,1423.18 2113.7,47.2441 
  "/>
<polyline clip-path="url(#clip500)" style="stroke:#000000; stroke-linecap:round; stroke-linejoin:round; stroke-width:4; stroke-opacity:1; fill:none" points="
  440.339,1423.18 2352.76,1423.18 
  "/>
<polyline clip-path="url(#clip500)" style="stroke:#000000; stroke-linecap:round; stroke-linejoin:round; stroke-width:4; stroke-opacity:1; fill:none" points="
  679.391,1423.18 679.391,1404.28 
  "/>
<polyline clip-path="url(#clip500)" style="stroke:#000000; stroke-linecap:round; stroke-linejoin:round; stroke-width:4; stroke-opacity:1; fill:none" points="
  1396.55,1423.18 1396.55,1404.28 
  "/>
<polyline clip-path="url(#clip500)" style="stroke:#000000; stroke-linecap:round; stroke-linejoin:round; stroke-width:4; stroke-opacity:1; fill:none" points="
  2113.7,1423.18 2113.7,1404.28 
  "/>
<path clip-path="url(#clip500)" d="M679.391 1454.1 Q675.78 1454.1 673.951 1457.66 Q672.146 1461.2 672.146 1468.33 Q672.146 1475.44 673.951 1479.01 Q675.78 1482.55 679.391 1482.55 Q683.025 1482.55 684.831 1479.01 Q686.659 1475.44 686.659 1468.33 Q686.659 1461.2 684.831 1457.66 Q683.025 1454.1 679.391 1454.1 M679.391 1450.39 Q685.201 1450.39 688.257 1455 Q691.335 1459.58 691.335 1468.33 Q691.335 1477.06 688.257 1481.67 Q685.201 1486.25 679.391 1486.25 Q673.581 1486.25 670.502 1481.67 Q667.446 1477.06 667.446 1468.33 Q667.446 1459.58 670.502 1455 Q673.581 1450.39 679.391 1450.39 Z" fill="#000000" fill-rule="evenodd" fill-opacity="1" /><path clip-path="url(#clip500)" d="M1386.93 1481.64 L1394.57 1481.64 L1394.57 1455.28 L1386.26 1456.95 L1386.26 1452.69 L1394.52 1451.02 L1399.2 1451.02 L1399.2 1481.64 L1406.84 1481.64 L1406.84 1485.58 L1386.93 1485.58 L1386.93 1481.64 Z" fill="#000000" fill-rule="evenodd" fill-opacity="1" /><path clip-path="url(#clip500)" d="M2108.36 1481.64 L2124.68 1481.64 L2124.68 1485.58 L2102.73 1485.58 L2102.73 1481.64 Q2105.39 1478.89 2109.98 1474.26 Q2114.58 1469.61 2115.76 1468.27 Q2118.01 1465.74 2118.89 1464.01 Q2119.79 1462.25 2119.79 1460.56 Q2119.79 1457.8 2117.85 1456.07 Q2115.93 1454.33 2112.82 1454.33 Q2110.63 1454.33 2108.17 1455.09 Q2105.74 1455.86 2102.96 1457.41 L2102.96 1452.69 Q2105.79 1451.55 2108.24 1450.97 Q2110.69 1450.39 2112.73 1450.39 Q2118.1 1450.39 2121.3 1453.08 Q2124.49 1455.77 2124.49 1460.26 Q2124.49 1462.39 2123.68 1464.31 Q2122.89 1466.2 2120.79 1468.8 Q2120.21 1469.47 2117.11 1472.69 Q2114 1475.88 2108.36 1481.64 Z" fill="#000000" fill-rule="evenodd" fill-opacity="1" /><path clip-path="url(#clip500)" d="M1178.09 1525.81 L1178.09 1562.76 L1185.86 1562.76 Q1195.69 1562.76 1200.24 1558.3 Q1204.83 1553.85 1204.83 1544.24 Q1204.83 1534.69 1200.24 1530.26 Q1195.69 1525.81 1185.86 1525.81 L1178.09 1525.81 M1171.66 1520.52 L1184.87 1520.52 Q1198.69 1520.52 1205.15 1526.28 Q1211.61 1532.01 1211.61 1544.24 Q1211.61 1556.52 1205.11 1562.28 Q1198.62 1568.04 1184.87 1568.04 L1171.66 1568.04 L1171.66 1520.52 Z" fill="#000000" fill-rule="evenodd" fill-opacity="1" /><path clip-path="url(#clip500)" d="M1237.8 1550.12 Q1230.7 1550.12 1227.97 1551.75 Q1225.23 1553.37 1225.23 1557.29 Q1225.23 1560.4 1227.27 1562.25 Q1229.34 1564.07 1232.87 1564.07 Q1237.74 1564.07 1240.67 1560.63 Q1243.63 1557.16 1243.63 1551.43 L1243.63 1550.12 L1237.8 1550.12 M1249.48 1547.71 L1249.48 1568.04 L1243.63 1568.04 L1243.63 1562.63 Q1241.62 1565.88 1238.63 1567.44 Q1235.64 1568.97 1231.31 1568.97 Q1225.83 1568.97 1222.59 1565.91 Q1219.37 1562.82 1219.37 1557.67 Q1219.37 1551.65 1223.38 1548.6 Q1227.43 1545.54 1235.42 1545.54 L1243.63 1545.54 L1243.63 1544.97 Q1243.63 1540.93 1240.95 1538.73 Q1238.31 1536.5 1233.51 1536.5 Q1230.45 1536.5 1227.55 1537.23 Q1224.66 1537.97 1221.98 1539.43 L1221.98 1534.02 Q1225.2 1532.78 1228.22 1532.17 Q1231.25 1531.54 1234.11 1531.54 Q1241.84 1531.54 1245.66 1535.55 Q1249.48 1539.56 1249.48 1547.71 Z" fill="#000000" fill-rule="evenodd" fill-opacity="1" /><path clip-path="url(#clip500)" d="M1261.55 1532.4 L1267.4 1532.4 L1267.4 1568.04 L1261.55 1568.04 L1261.55 1532.4 M1261.55 1518.52 L1267.4 1518.52 L1267.4 1525.93 L1261.55 1525.93 L1261.55 1518.52 Z" fill="#000000" fill-rule="evenodd" fill-opacity="1" /><path clip-path="url(#clip500)" d="M1279.66 1518.52 L1285.51 1518.52 L1285.51 1568.04 L1279.66 1568.04 L1279.66 1518.52 Z" fill="#000000" fill-rule="evenodd" fill-opacity="1" /><path clip-path="url(#clip500)" d="M1312.6 1571.35 Q1310.12 1577.72 1307.76 1579.66 Q1305.41 1581.6 1301.46 1581.6 L1296.78 1581.6 L1296.78 1576.7 L1300.22 1576.7 Q1302.64 1576.7 1303.97 1575.56 Q1305.31 1574.41 1306.93 1570.14 L1307.98 1567.47 L1293.57 1532.4 L1299.77 1532.4 L1310.91 1560.28 L1322.05 1532.4 L1328.26 1532.4 L1312.6 1571.35 Z" fill="#000000" fill-rule="evenodd" fill-opacity="1" /><path clip-path="url(#clip500)" d="M1363.75 1525.81 L1363.75 1562.76 L1371.51 1562.76 Q1381.35 1562.76 1385.9 1558.3 Q1390.48 1553.85 1390.48 1544.24 Q1390.48 1534.69 1385.9 1530.26 Q1381.35 1525.81 1371.51 1525.81 L1363.75 1525.81 M1357.32 1520.52 L1370.53 1520.52 Q1384.34 1520.52 1390.8 1526.28 Q1397.26 1532.01 1397.26 1544.24 Q1397.26 1556.52 1390.77 1562.28 Q1384.28 1568.04 1370.53 1568.04 L1357.32 1568.04 L1357.32 1520.52 Z" fill="#000000" fill-rule="evenodd" fill-opacity="1" /><path clip-path="url(#clip500)" d="M1437.75 1548.76 L1437.75 1551.62 L1410.82 1551.62 Q1411.2 1557.67 1414.45 1560.85 Q1417.73 1564 1423.55 1564 Q1426.93 1564 1430.08 1563.17 Q1433.26 1562.35 1436.38 1560.69 L1436.38 1566.23 Q1433.23 1567.57 1429.92 1568.27 Q1426.61 1568.97 1423.2 1568.97 Q1414.67 1568.97 1409.68 1564 Q1404.71 1559.04 1404.71 1550.57 Q1404.71 1541.82 1409.42 1536.69 Q1414.16 1531.54 1422.19 1531.54 Q1429.38 1531.54 1433.55 1536.18 Q1437.75 1540.8 1437.75 1548.76 M1431.89 1547.04 Q1431.83 1542.23 1429.19 1539.37 Q1426.58 1536.5 1422.25 1536.5 Q1417.35 1536.5 1414.39 1539.27 Q1411.46 1542.04 1411.01 1547.07 L1431.89 1547.04 Z" fill="#000000" fill-rule="evenodd" fill-opacity="1" /><path clip-path="url(#clip500)" d="M1475.12 1539.24 Q1477.31 1535.29 1480.37 1533.41 Q1483.42 1531.54 1487.56 1531.54 Q1493.13 1531.54 1496.15 1535.45 Q1499.18 1539.33 1499.18 1546.53 L1499.18 1568.04 L1493.29 1568.04 L1493.29 1546.72 Q1493.29 1541.59 1491.48 1539.11 Q1489.66 1536.63 1485.94 1536.63 Q1481.39 1536.63 1478.74 1539.65 Q1476.1 1542.68 1476.1 1547.9 L1476.1 1568.04 L1470.21 1568.04 L1470.21 1546.72 Q1470.21 1541.56 1468.4 1539.11 Q1466.59 1536.63 1462.8 1536.63 Q1458.31 1536.63 1455.67 1539.68 Q1453.03 1542.71 1453.03 1547.9 L1453.03 1568.04 L1447.14 1568.04 L1447.14 1532.4 L1453.03 1532.4 L1453.03 1537.93 Q1455.03 1534.66 1457.83 1533.1 Q1460.63 1531.54 1464.49 1531.54 Q1468.37 1531.54 1471.07 1533.51 Q1473.81 1535.48 1475.12 1539.24 Z" fill="#000000" fill-rule="evenodd" fill-opacity="1" /><path clip-path="url(#clip500)" d="M1527.06 1550.12 Q1519.96 1550.12 1517.23 1551.75 Q1514.49 1553.37 1514.49 1557.29 Q1514.49 1560.4 1516.52 1562.25 Q1518.59 1564.07 1522.13 1564.07 Q1527 1564.07 1529.92 1560.63 Q1532.88 1557.16 1532.88 1551.43 L1532.88 1550.12 L1527.06 1550.12 M1538.74 1547.71 L1538.74 1568.04 L1532.88 1568.04 L1532.88 1562.63 Q1530.88 1565.88 1527.89 1567.44 Q1524.9 1568.97 1520.57 1568.97 Q1515.09 1568.97 1511.85 1565.91 Q1508.63 1562.82 1508.63 1557.67 Q1508.63 1551.65 1512.64 1548.6 Q1516.68 1545.54 1524.67 1545.54 L1532.88 1545.54 L1532.88 1544.97 Q1532.88 1540.93 1530.21 1538.73 Q1527.57 1536.5 1522.76 1536.5 Q1519.71 1536.5 1516.81 1537.23 Q1513.92 1537.97 1511.24 1539.43 L1511.24 1534.02 Q1514.46 1532.78 1517.48 1532.17 Q1520.5 1531.54 1523.37 1531.54 Q1531.1 1531.54 1534.92 1535.55 Q1538.74 1539.56 1538.74 1547.71 Z" fill="#000000" fill-rule="evenodd" fill-opacity="1" /><path clip-path="url(#clip500)" d="M1580.44 1546.53 L1580.44 1568.04 L1574.58 1568.04 L1574.58 1546.72 Q1574.58 1541.66 1572.61 1539.14 Q1570.63 1536.63 1566.69 1536.63 Q1561.94 1536.63 1559.21 1539.65 Q1556.47 1542.68 1556.47 1547.9 L1556.47 1568.04 L1550.58 1568.04 L1550.58 1532.4 L1556.47 1532.4 L1556.47 1537.93 Q1558.57 1534.72 1561.4 1533.13 Q1564.27 1531.54 1567.99 1531.54 Q1574.13 1531.54 1577.29 1535.36 Q1580.44 1539.14 1580.44 1546.53 Z" fill="#000000" fill-rule="evenodd" fill-opacity="1" /><path clip-path="url(#clip500)" d="M1615.58 1537.81 L1615.58 1518.52 L1621.43 1518.52 L1621.43 1568.04 L1615.58 1568.04 L1615.58 1562.7 Q1613.73 1565.88 1610.9 1567.44 Q1608.1 1568.97 1604.15 1568.97 Q1597.69 1568.97 1593.61 1563.81 Q1589.57 1558.65 1589.57 1550.25 Q1589.57 1541.85 1593.61 1536.69 Q1597.69 1531.54 1604.15 1531.54 Q1608.1 1531.54 1610.9 1533.1 Q1613.73 1534.62 1615.58 1537.81 M1595.62 1550.25 Q1595.62 1556.71 1598.26 1560.4 Q1600.93 1564.07 1605.58 1564.07 Q1610.23 1564.07 1612.9 1560.4 Q1615.58 1556.71 1615.58 1550.25 Q1615.58 1543.79 1612.9 1540.13 Q1610.23 1536.44 1605.58 1536.44 Q1600.93 1536.44 1598.26 1540.13 Q1595.62 1543.79 1595.62 1550.25 Z" fill="#000000" fill-rule="evenodd" fill-opacity="1" /><polyline clip-path="url(#clip502)" style="stroke:#000000; stroke-linecap:round; stroke-linejoin:round; stroke-width:2; stroke-opacity:0.1; fill:none" points="
  440.339,1423.18 2352.76,1423.18 
  "/>
<polyline clip-path="url(#clip502)" style="stroke:#000000; stroke-linecap:round; stroke-linejoin:round; stroke-width:2; stroke-opacity:0.1; fill:none" points="
  440.339,1285.59 2352.76,1285.59 
  "/>
<polyline clip-path="url(#clip502)" style="stroke:#000000; stroke-linecap:round; stroke-linejoin:round; stroke-width:2; stroke-opacity:0.1; fill:none" points="
  440.339,1147.99 2352.76,1147.99 
  "/>
<polyline clip-path="url(#clip502)" style="stroke:#000000; stroke-linecap:round; stroke-linejoin:round; stroke-width:2; stroke-opacity:0.1; fill:none" points="
  440.339,1010.4 2352.76,1010.4 
  "/>
<polyline clip-path="url(#clip502)" style="stroke:#000000; stroke-linecap:round; stroke-linejoin:round; stroke-width:2; stroke-opacity:0.1; fill:none" points="
  440.339,872.806 2352.76,872.806 
  "/>
<polyline clip-path="url(#clip502)" style="stroke:#000000; stroke-linecap:round; stroke-linejoin:round; stroke-width:2; stroke-opacity:0.1; fill:none" points="
  440.339,735.212 2352.76,735.212 
  "/>
<polyline clip-path="url(#clip502)" style="stroke:#000000; stroke-linecap:round; stroke-linejoin:round; stroke-width:2; stroke-opacity:0.1; fill:none" points="
  440.339,597.618 2352.76,597.618 
  "/>
<polyline clip-path="url(#clip502)" style="stroke:#000000; stroke-linecap:round; stroke-linejoin:round; stroke-width:2; stroke-opacity:0.1; fill:none" points="
  440.339,460.025 2352.76,460.025 
  "/>
<polyline clip-path="url(#clip502)" style="stroke:#000000; stroke-linecap:round; stroke-linejoin:round; stroke-width:2; stroke-opacity:0.1; fill:none" points="
  440.339,322.431 2352.76,322.431 
  "/>
<polyline clip-path="url(#clip502)" style="stroke:#000000; stroke-linecap:round; stroke-linejoin:round; stroke-width:2; stroke-opacity:0.1; fill:none" points="
  440.339,184.838 2352.76,184.838 
  "/>
<polyline clip-path="url(#clip502)" style="stroke:#000000; stroke-linecap:round; stroke-linejoin:round; stroke-width:2; stroke-opacity:0.1; fill:none" points="
  440.339,47.2441 2352.76,47.2441 
  "/>
<polyline clip-path="url(#clip500)" style="stroke:#000000; stroke-linecap:round; stroke-linejoin:round; stroke-width:4; stroke-opacity:1; fill:none" points="
  440.339,1423.18 440.339,47.2441 
  "/>
<polyline clip-path="url(#clip500)" style="stroke:#000000; stroke-linecap:round; stroke-linejoin:round; stroke-width:4; stroke-opacity:1; fill:none" points="
  440.339,1423.18 459.236,1423.18 
  "/>
<polyline clip-path="url(#clip500)" style="stroke:#000000; stroke-linecap:round; stroke-linejoin:round; stroke-width:4; stroke-opacity:1; fill:none" points="
  440.339,1285.59 459.236,1285.59 
  "/>
<polyline clip-path="url(#clip500)" style="stroke:#000000; stroke-linecap:round; stroke-linejoin:round; stroke-width:4; stroke-opacity:1; fill:none" points="
  440.339,1147.99 459.236,1147.99 
  "/>
<polyline clip-path="url(#clip500)" style="stroke:#000000; stroke-linecap:round; stroke-linejoin:round; stroke-width:4; stroke-opacity:1; fill:none" points="
  440.339,1010.4 459.236,1010.4 
  "/>
<polyline clip-path="url(#clip500)" style="stroke:#000000; stroke-linecap:round; stroke-linejoin:round; stroke-width:4; stroke-opacity:1; fill:none" points="
  440.339,872.806 459.236,872.806 
  "/>
<polyline clip-path="url(#clip500)" style="stroke:#000000; stroke-linecap:round; stroke-linejoin:round; stroke-width:4; stroke-opacity:1; fill:none" points="
  440.339,735.212 459.236,735.212 
  "/>
<polyline clip-path="url(#clip500)" style="stroke:#000000; stroke-linecap:round; stroke-linejoin:round; stroke-width:4; stroke-opacity:1; fill:none" points="
  440.339,597.618 459.236,597.618 
  "/>
<polyline clip-path="url(#clip500)" style="stroke:#000000; stroke-linecap:round; stroke-linejoin:round; stroke-width:4; stroke-opacity:1; fill:none" points="
  440.339,460.025 459.236,460.025 
  "/>
<polyline clip-path="url(#clip500)" style="stroke:#000000; stroke-linecap:round; stroke-linejoin:round; stroke-width:4; stroke-opacity:1; fill:none" points="
  440.339,322.431 459.236,322.431 
  "/>
<polyline clip-path="url(#clip500)" style="stroke:#000000; stroke-linecap:round; stroke-linejoin:round; stroke-width:4; stroke-opacity:1; fill:none" points="
  440.339,184.838 459.236,184.838 
  "/>
<polyline clip-path="url(#clip500)" style="stroke:#000000; stroke-linecap:round; stroke-linejoin:round; stroke-width:4; stroke-opacity:1; fill:none" points="
  440.339,47.2441 459.236,47.2441 
  "/>
<path clip-path="url(#clip500)" d="M347.163 1408.98 Q343.552 1408.98 341.723 1412.54 Q339.918 1416.08 339.918 1423.21 Q339.918 1430.32 341.723 1433.89 Q343.552 1437.43 347.163 1437.43 Q350.797 1437.43 352.603 1433.89 Q354.432 1430.32 354.432 1423.21 Q354.432 1416.08 352.603 1412.54 Q350.797 1408.98 347.163 1408.98 M347.163 1405.27 Q352.973 1405.27 356.029 1409.88 Q359.107 1414.46 359.107 1423.21 Q359.107 1431.94 356.029 1436.55 Q352.973 1441.13 347.163 1441.13 Q341.353 1441.13 338.274 1436.55 Q335.219 1431.94 335.219 1423.21 Q335.219 1414.46 338.274 1409.88 Q341.353 1405.27 347.163 1405.27 Z" fill="#000000" fill-rule="evenodd" fill-opacity="1" /><path clip-path="url(#clip500)" d="M367.325 1434.58 L372.209 1434.58 L372.209 1440.46 L367.325 1440.46 L367.325 1434.58 Z" fill="#000000" fill-rule="evenodd" fill-opacity="1" /><path clip-path="url(#clip500)" d="M392.394 1408.98 Q388.783 1408.98 386.955 1412.54 Q385.149 1416.08 385.149 1423.21 Q385.149 1430.32 386.955 1433.89 Q388.783 1437.43 392.394 1437.43 Q396.029 1437.43 397.834 1433.89 Q399.663 1430.32 399.663 1423.21 Q399.663 1416.08 397.834 1412.54 Q396.029 1408.98 392.394 1408.98 M392.394 1405.27 Q398.204 1405.27 401.26 1409.88 Q404.339 1414.46 404.339 1423.21 Q404.339 1431.94 401.26 1436.55 Q398.204 1441.13 392.394 1441.13 Q386.584 1441.13 383.505 1436.55 Q380.45 1431.94 380.45 1423.21 Q380.45 1414.46 383.505 1409.88 Q386.584 1405.27 392.394 1405.27 Z" fill="#000000" fill-rule="evenodd" fill-opacity="1" /><path clip-path="url(#clip500)" d="M348.39 1271.38 Q344.779 1271.38 342.95 1274.95 Q341.145 1278.49 341.145 1285.62 Q341.145 1292.73 342.95 1296.29 Q344.779 1299.83 348.39 1299.83 Q352.024 1299.83 353.83 1296.29 Q355.658 1292.73 355.658 1285.62 Q355.658 1278.49 353.83 1274.95 Q352.024 1271.38 348.39 1271.38 M348.39 1267.68 Q354.2 1267.68 357.256 1272.29 Q360.334 1276.87 360.334 1285.62 Q360.334 1294.35 357.256 1298.95 Q354.2 1303.54 348.39 1303.54 Q342.58 1303.54 339.501 1298.95 Q336.446 1294.35 336.446 1285.62 Q336.446 1276.87 339.501 1272.29 Q342.58 1267.68 348.39 1267.68 Z" fill="#000000" fill-rule="evenodd" fill-opacity="1" /><path clip-path="url(#clip500)" d="M368.552 1296.99 L373.436 1296.99 L373.436 1302.87 L368.552 1302.87 L368.552 1296.99 Z" fill="#000000" fill-rule="evenodd" fill-opacity="1" /><path clip-path="url(#clip500)" d="M384.431 1298.93 L392.07 1298.93 L392.07 1272.57 L383.76 1274.23 L383.76 1269.97 L392.024 1268.31 L396.7 1268.31 L396.7 1298.93 L404.339 1298.93 L404.339 1302.87 L384.431 1302.87 L384.431 1298.93 Z" fill="#000000" fill-rule="evenodd" fill-opacity="1" /><path clip-path="url(#clip500)" d="M348.76 1133.79 Q345.149 1133.79 343.321 1137.36 Q341.515 1140.9 341.515 1148.03 Q341.515 1155.13 343.321 1158.7 Q345.149 1162.24 348.76 1162.24 Q352.395 1162.24 354.2 1158.7 Q356.029 1155.13 356.029 1148.03 Q356.029 1140.9 354.2 1137.36 Q352.395 1133.79 348.76 1133.79 M348.76 1130.09 Q354.57 1130.09 357.626 1134.69 Q360.705 1139.28 360.705 1148.03 Q360.705 1156.75 357.626 1161.36 Q354.57 1165.94 348.76 1165.94 Q342.95 1165.94 339.871 1161.36 Q336.816 1156.75 336.816 1148.03 Q336.816 1139.28 339.871 1134.69 Q342.95 1130.09 348.76 1130.09 Z" fill="#000000" fill-rule="evenodd" fill-opacity="1" /><path clip-path="url(#clip500)" d="M368.922 1159.39 L373.806 1159.39 L373.806 1165.27 L368.922 1165.27 L368.922 1159.39 Z" fill="#000000" fill-rule="evenodd" fill-opacity="1" /><path clip-path="url(#clip500)" d="M388.019 1161.34 L404.339 1161.34 L404.339 1165.27 L382.394 1165.27 L382.394 1161.34 Q385.056 1158.58 389.64 1153.95 Q394.246 1149.3 395.427 1147.96 Q397.672 1145.43 398.552 1143.7 Q399.454 1141.94 399.454 1140.25 Q399.454 1137.5 397.51 1135.76 Q395.589 1134.02 392.487 1134.02 Q390.288 1134.02 387.834 1134.79 Q385.404 1135.55 382.626 1137.1 L382.626 1132.38 Q385.45 1131.25 387.904 1130.67 Q390.357 1130.09 392.394 1130.09 Q397.765 1130.09 400.959 1132.77 Q404.154 1135.46 404.154 1139.95 Q404.154 1142.08 403.343 1144 Q402.556 1145.9 400.45 1148.49 Q399.871 1149.16 396.769 1152.38 Q393.667 1155.57 388.019 1161.34 Z" fill="#000000" fill-rule="evenodd" fill-opacity="1" /><path clip-path="url(#clip500)" d="M347.811 996.198 Q344.2 996.198 342.371 999.763 Q340.566 1003.3 340.566 1010.43 Q340.566 1017.54 342.371 1021.11 Q344.2 1024.65 347.811 1024.65 Q351.445 1024.65 353.251 1021.11 Q355.08 1017.54 355.08 1010.43 Q355.08 1003.3 353.251 999.763 Q351.445 996.198 347.811 996.198 M347.811 992.494 Q353.621 992.494 356.677 997.101 Q359.756 1001.68 359.756 1010.43 Q359.756 1019.16 356.677 1023.77 Q353.621 1028.35 347.811 1028.35 Q342.001 1028.35 338.922 1023.77 Q335.867 1019.16 335.867 1010.43 Q335.867 1001.68 338.922 997.101 Q342.001 992.494 347.811 992.494 Z" fill="#000000" fill-rule="evenodd" fill-opacity="1" /><path clip-path="url(#clip500)" d="M367.973 1021.8 L372.857 1021.8 L372.857 1027.68 L367.973 1027.68 L367.973 1021.8 Z" fill="#000000" fill-rule="evenodd" fill-opacity="1" /><path clip-path="url(#clip500)" d="M397.209 1009.04 Q400.566 1009.76 402.441 1012.03 Q404.339 1014.3 404.339 1017.63 Q404.339 1022.75 400.82 1025.55 Q397.302 1028.35 390.82 1028.35 Q388.644 1028.35 386.33 1027.91 Q384.038 1027.49 381.584 1026.64 L381.584 1022.12 Q383.529 1023.26 385.843 1023.84 Q388.158 1024.42 390.681 1024.42 Q395.079 1024.42 397.371 1022.68 Q399.686 1020.94 399.686 1017.63 Q399.686 1014.58 397.533 1012.86 Q395.404 1011.13 391.584 1011.13 L387.556 1011.13 L387.556 1007.29 L391.769 1007.29 Q395.218 1007.29 397.047 1005.92 Q398.876 1004.53 398.876 1001.94 Q398.876 999.276 396.978 997.864 Q395.103 996.429 391.584 996.429 Q389.663 996.429 387.464 996.846 Q385.265 997.263 382.626 998.142 L382.626 993.976 Q385.288 993.235 387.603 992.864 Q389.941 992.494 392.001 992.494 Q397.325 992.494 400.427 994.925 Q403.529 997.332 403.529 1001.45 Q403.529 1004.32 401.885 1006.31 Q400.242 1008.28 397.209 1009.04 Z" fill="#000000" fill-rule="evenodd" fill-opacity="1" /><path clip-path="url(#clip500)" d="M346.677 858.604 Q343.066 858.604 341.237 862.169 Q339.432 865.711 339.432 872.84 Q339.432 879.947 341.237 883.512 Q343.066 887.053 346.677 887.053 Q350.311 887.053 352.117 883.512 Q353.945 879.947 353.945 872.84 Q353.945 865.711 352.117 862.169 Q350.311 858.604 346.677 858.604 M346.677 854.901 Q352.487 854.901 355.543 859.507 Q358.621 864.09 358.621 872.84 Q358.621 881.567 355.543 886.174 Q352.487 890.757 346.677 890.757 Q340.867 890.757 337.788 886.174 Q334.733 881.567 334.733 872.84 Q334.733 864.09 337.788 859.507 Q340.867 854.901 346.677 854.901 Z" fill="#000000" fill-rule="evenodd" fill-opacity="1" /><path clip-path="url(#clip500)" d="M366.839 884.206 L371.723 884.206 L371.723 890.086 L366.839 890.086 L366.839 884.206 Z" fill="#000000" fill-rule="evenodd" fill-opacity="1" /><path clip-path="url(#clip500)" d="M394.755 859.6 L382.95 878.049 L394.755 878.049 L394.755 859.6 M393.529 855.526 L399.408 855.526 L399.408 878.049 L404.339 878.049 L404.339 881.937 L399.408 881.937 L399.408 890.086 L394.755 890.086 L394.755 881.937 L379.154 881.937 L379.154 877.424 L393.529 855.526 Z" fill="#000000" fill-rule="evenodd" fill-opacity="1" /><path clip-path="url(#clip500)" d="M348.158 721.011 Q344.547 721.011 342.719 724.575 Q340.913 728.117 340.913 735.247 Q340.913 742.353 342.719 745.918 Q344.547 749.46 348.158 749.46 Q351.793 749.46 353.598 745.918 Q355.427 742.353 355.427 735.247 Q355.427 728.117 353.598 724.575 Q351.793 721.011 348.158 721.011 M348.158 717.307 Q353.969 717.307 357.024 721.913 Q360.103 726.497 360.103 735.247 Q360.103 743.973 357.024 748.58 Q353.969 753.163 348.158 753.163 Q342.348 753.163 339.27 748.58 Q336.214 743.973 336.214 735.247 Q336.214 726.497 339.27 721.913 Q342.348 717.307 348.158 717.307 Z" fill="#000000" fill-rule="evenodd" fill-opacity="1" /><path clip-path="url(#clip500)" d="M368.32 746.612 L373.205 746.612 L373.205 752.492 L368.32 752.492 L368.32 746.612 Z" fill="#000000" fill-rule="evenodd" fill-opacity="1" /><path clip-path="url(#clip500)" d="M383.436 717.932 L401.792 717.932 L401.792 721.867 L387.718 721.867 L387.718 730.339 Q388.737 729.992 389.755 729.83 Q390.774 729.645 391.792 729.645 Q397.579 729.645 400.959 732.816 Q404.339 735.987 404.339 741.404 Q404.339 746.983 400.867 750.085 Q397.394 753.163 391.075 753.163 Q388.899 753.163 386.63 752.793 Q384.385 752.423 381.978 751.682 L381.978 746.983 Q384.061 748.117 386.283 748.673 Q388.505 749.228 390.982 749.228 Q394.987 749.228 397.325 747.122 Q399.663 745.015 399.663 741.404 Q399.663 737.793 397.325 735.687 Q394.987 733.58 390.982 733.58 Q389.107 733.58 387.232 733.997 Q385.38 734.413 383.436 735.293 L383.436 717.932 Z" fill="#000000" fill-rule="evenodd" fill-opacity="1" /><path clip-path="url(#clip500)" d="M347.001 583.417 Q343.39 583.417 341.561 586.982 Q339.756 590.524 339.756 597.653 Q339.756 604.76 341.561 608.324 Q343.39 611.866 347.001 611.866 Q350.635 611.866 352.441 608.324 Q354.27 604.76 354.27 597.653 Q354.27 590.524 352.441 586.982 Q350.635 583.417 347.001 583.417 M347.001 579.713 Q352.811 579.713 355.867 584.32 Q358.945 588.903 358.945 597.653 Q358.945 606.38 355.867 610.986 Q352.811 615.57 347.001 615.57 Q341.191 615.57 338.112 610.986 Q335.057 606.38 335.057 597.653 Q335.057 588.903 338.112 584.32 Q341.191 579.713 347.001 579.713 Z" fill="#000000" fill-rule="evenodd" fill-opacity="1" /><path clip-path="url(#clip500)" d="M367.163 609.019 L372.047 609.019 L372.047 614.898 L367.163 614.898 L367.163 609.019 Z" fill="#000000" fill-rule="evenodd" fill-opacity="1" /><path clip-path="url(#clip500)" d="M392.811 595.755 Q389.663 595.755 387.811 597.908 Q385.982 600.061 385.982 603.81 Q385.982 607.537 387.811 609.713 Q389.663 611.866 392.811 611.866 Q395.959 611.866 397.788 609.713 Q399.64 607.537 399.64 603.81 Q399.64 600.061 397.788 597.908 Q395.959 595.755 392.811 595.755 M402.093 581.102 L402.093 585.362 Q400.334 584.528 398.529 584.088 Q396.746 583.649 394.987 583.649 Q390.357 583.649 387.904 586.774 Q385.473 589.899 385.126 596.218 Q386.492 594.204 388.552 593.139 Q390.612 592.051 393.089 592.051 Q398.297 592.051 401.306 595.223 Q404.339 598.371 404.339 603.81 Q404.339 609.135 401.191 612.352 Q398.042 615.57 392.811 615.57 Q386.816 615.57 383.644 610.986 Q380.473 606.38 380.473 597.653 Q380.473 589.459 384.362 584.598 Q388.251 579.713 394.802 579.713 Q396.561 579.713 398.343 580.061 Q400.149 580.408 402.093 581.102 Z" fill="#000000" fill-rule="evenodd" fill-opacity="1" /><path clip-path="url(#clip500)" d="M348.066 445.824 Q344.455 445.824 342.626 449.388 Q340.821 452.93 340.821 460.06 Q340.821 467.166 342.626 470.731 Q344.455 474.272 348.066 474.272 Q351.7 474.272 353.506 470.731 Q355.334 467.166 355.334 460.06 Q355.334 452.93 353.506 449.388 Q351.7 445.824 348.066 445.824 M348.066 442.12 Q353.876 442.12 356.932 446.726 Q360.01 451.31 360.01 460.06 Q360.01 468.786 356.932 473.393 Q353.876 477.976 348.066 477.976 Q342.256 477.976 339.177 473.393 Q336.121 468.786 336.121 460.06 Q336.121 451.31 339.177 446.726 Q342.256 442.12 348.066 442.12 Z" fill="#000000" fill-rule="evenodd" fill-opacity="1" /><path clip-path="url(#clip500)" d="M368.228 471.425 L373.112 471.425 L373.112 477.305 L368.228 477.305 L368.228 471.425 Z" fill="#000000" fill-rule="evenodd" fill-opacity="1" /><path clip-path="url(#clip500)" d="M382.117 442.745 L404.339 442.745 L404.339 444.736 L391.792 477.305 L386.908 477.305 L398.714 446.68 L382.117 446.68 L382.117 442.745 Z" fill="#000000" fill-rule="evenodd" fill-opacity="1" /><path clip-path="url(#clip500)" d="M347.256 308.23 Q343.645 308.23 341.816 311.795 Q340.01 315.336 340.01 322.466 Q340.01 329.572 341.816 333.137 Q343.645 336.679 347.256 336.679 Q350.89 336.679 352.695 333.137 Q354.524 329.572 354.524 322.466 Q354.524 315.336 352.695 311.795 Q350.89 308.23 347.256 308.23 M347.256 304.526 Q353.066 304.526 356.121 309.133 Q359.2 313.716 359.2 322.466 Q359.2 331.193 356.121 335.799 Q353.066 340.383 347.256 340.383 Q341.446 340.383 338.367 335.799 Q335.311 331.193 335.311 322.466 Q335.311 313.716 338.367 309.133 Q341.446 304.526 347.256 304.526 Z" fill="#000000" fill-rule="evenodd" fill-opacity="1" /><path clip-path="url(#clip500)" d="M367.418 333.832 L372.302 333.832 L372.302 339.711 L367.418 339.711 L367.418 333.832 Z" fill="#000000" fill-rule="evenodd" fill-opacity="1" /><path clip-path="url(#clip500)" d="M392.487 323.299 Q389.154 323.299 387.232 325.082 Q385.334 326.864 385.334 329.989 Q385.334 333.114 387.232 334.896 Q389.154 336.679 392.487 336.679 Q395.82 336.679 397.742 334.896 Q399.663 333.091 399.663 329.989 Q399.663 326.864 397.742 325.082 Q395.843 323.299 392.487 323.299 M387.811 321.309 Q384.802 320.568 383.112 318.508 Q381.445 316.447 381.445 313.485 Q381.445 309.341 384.385 306.934 Q387.348 304.526 392.487 304.526 Q397.649 304.526 400.589 306.934 Q403.529 309.341 403.529 313.485 Q403.529 316.447 401.839 318.508 Q400.172 320.568 397.186 321.309 Q400.566 322.096 402.441 324.387 Q404.339 326.679 404.339 329.989 Q404.339 335.012 401.26 337.697 Q398.204 340.383 392.487 340.383 Q386.769 340.383 383.691 337.697 Q380.635 335.012 380.635 329.989 Q380.635 326.679 382.533 324.387 Q384.431 322.096 387.811 321.309 M386.098 313.924 Q386.098 316.61 387.765 318.114 Q389.455 319.619 392.487 319.619 Q395.496 319.619 397.186 318.114 Q398.899 316.61 398.899 313.924 Q398.899 311.239 397.186 309.735 Q395.496 308.23 392.487 308.23 Q389.455 308.23 387.765 309.735 Q386.098 311.239 386.098 313.924 Z" fill="#000000" fill-rule="evenodd" fill-opacity="1" /><path clip-path="url(#clip500)" d="M347.348 170.636 Q343.737 170.636 341.908 174.201 Q340.103 177.743 340.103 184.872 Q340.103 191.979 341.908 195.544 Q343.737 199.085 347.348 199.085 Q350.983 199.085 352.788 195.544 Q354.617 191.979 354.617 184.872 Q354.617 177.743 352.788 174.201 Q350.983 170.636 347.348 170.636 M347.348 166.933 Q353.158 166.933 356.214 171.539 Q359.293 176.122 359.293 184.872 Q359.293 193.599 356.214 198.206 Q353.158 202.789 347.348 202.789 Q341.538 202.789 338.459 198.206 Q335.404 193.599 335.404 184.872 Q335.404 176.122 338.459 171.539 Q341.538 166.933 347.348 166.933 Z" fill="#000000" fill-rule="evenodd" fill-opacity="1" /><path clip-path="url(#clip500)" d="M367.51 196.238 L372.394 196.238 L372.394 202.118 L367.51 202.118 L367.51 196.238 Z" fill="#000000" fill-rule="evenodd" fill-opacity="1" /><path clip-path="url(#clip500)" d="M382.718 201.4 L382.718 197.141 Q384.478 197.974 386.283 198.414 Q388.089 198.854 389.825 198.854 Q394.455 198.854 396.885 195.752 Q399.339 192.627 399.686 186.284 Q398.343 188.275 396.283 189.34 Q394.223 190.405 391.723 190.405 Q386.538 190.405 383.505 187.28 Q380.496 184.132 380.496 178.692 Q380.496 173.368 383.644 170.15 Q386.793 166.933 392.024 166.933 Q398.019 166.933 401.167 171.539 Q404.339 176.122 404.339 184.872 Q404.339 193.044 400.45 197.928 Q396.584 202.789 390.033 202.789 Q388.274 202.789 386.468 202.442 Q384.663 202.095 382.718 201.4 M392.024 186.747 Q395.172 186.747 397.001 184.595 Q398.853 182.442 398.853 178.692 Q398.853 174.965 397.001 172.812 Q395.172 170.636 392.024 170.636 Q388.876 170.636 387.024 172.812 Q385.195 174.965 385.195 178.692 Q385.195 182.442 387.024 184.595 Q388.876 186.747 392.024 186.747 Z" fill="#000000" fill-rule="evenodd" fill-opacity="1" /><path clip-path="url(#clip500)" d="M337.973 60.5889 L345.612 60.5889 L345.612 34.2233 L337.302 35.89 L337.302 31.6308 L345.566 29.9641 L350.242 29.9641 L350.242 60.5889 L357.881 60.5889 L357.881 64.5241 L337.973 64.5241 L337.973 60.5889 Z" fill="#000000" fill-rule="evenodd" fill-opacity="1" /><path clip-path="url(#clip500)" d="M367.325 58.6445 L372.209 58.6445 L372.209 64.5241 L367.325 64.5241 L367.325 58.6445 Z" fill="#000000" fill-rule="evenodd" fill-opacity="1" /><path clip-path="url(#clip500)" d="M392.394 33.0428 Q388.783 33.0428 386.955 36.6076 Q385.149 40.1492 385.149 47.2788 Q385.149 54.3853 386.955 57.9501 Q388.783 61.4917 392.394 61.4917 Q396.029 61.4917 397.834 57.9501 Q399.663 54.3853 399.663 47.2788 Q399.663 40.1492 397.834 36.6076 Q396.029 33.0428 392.394 33.0428 M392.394 29.3391 Q398.204 29.3391 401.26 33.9456 Q404.339 38.5289 404.339 47.2788 Q404.339 56.0056 401.26 60.6121 Q398.204 65.1954 392.394 65.1954 Q386.584 65.1954 383.505 60.6121 Q380.45 56.0056 380.45 47.2788 Q380.45 38.5289 383.505 33.9456 Q386.584 29.3391 392.394 29.3391 Z" fill="#000000" fill-rule="evenodd" fill-opacity="1" /><path clip-path="url(#clip500)" d="M242.24 896.901 L260.096 896.901 L260.096 888.816 Q260.096 884.329 257.772 881.878 Q255.449 879.427 251.152 879.427 Q246.887 879.427 244.564 881.878 Q242.24 884.329 242.24 888.816 L242.24 896.901 M236.957 903.33 L236.957 888.816 Q236.957 880.828 240.585 876.753 Q244.182 872.648 251.152 872.648 Q258.186 872.648 261.783 876.753 Q265.379 880.828 265.379 888.816 L265.379 896.901 L284.477 896.901 L284.477 903.33 L236.957 903.33 Z" fill="#000000" fill-rule="evenodd" fill-opacity="1" /><path clip-path="url(#clip500)" d="M254.303 844.766 Q253.73 845.752 253.476 846.93 Q253.189 848.076 253.189 849.476 Q253.189 854.442 256.436 857.115 Q259.65 859.757 265.698 859.757 L284.477 859.757 L284.477 865.645 L248.829 865.645 L248.829 859.757 L254.367 859.757 Q251.12 857.911 249.561 854.951 Q247.969 851.991 247.969 847.758 Q247.969 847.153 248.065 846.421 Q248.128 845.689 248.288 844.798 L254.303 844.766 Z" fill="#000000" fill-rule="evenodd" fill-opacity="1" /><path clip-path="url(#clip500)" d="M252.935 826.242 Q252.935 830.952 256.627 833.689 Q260.287 836.427 266.684 836.427 Q273.082 836.427 276.774 833.721 Q280.434 830.984 280.434 826.242 Q280.434 821.563 276.742 818.826 Q273.05 816.088 266.684 816.088 Q260.351 816.088 256.658 818.826 Q252.935 821.563 252.935 826.242 M247.969 826.242 Q247.969 818.603 252.935 814.242 Q257.9 809.882 266.684 809.882 Q275.437 809.882 280.434 814.242 Q285.4 818.603 285.4 826.242 Q285.4 833.912 280.434 838.273 Q275.437 842.601 266.684 842.601 Q257.9 842.601 252.935 838.273 Q247.969 833.912 247.969 826.242 Z" fill="#000000" fill-rule="evenodd" fill-opacity="1" /><path clip-path="url(#clip500)" d="M266.684 774.584 Q260.223 774.584 256.563 777.257 Q252.871 779.899 252.871 784.546 Q252.871 789.193 256.563 791.867 Q260.223 794.509 266.684 794.509 Q273.146 794.509 276.838 791.867 Q280.498 789.193 280.498 784.546 Q280.498 779.899 276.838 777.257 Q273.146 774.584 266.684 774.584 M254.239 794.509 Q251.057 792.662 249.529 789.862 Q247.969 787.029 247.969 783.114 Q247.969 776.621 253.125 772.579 Q258.282 768.505 266.684 768.505 Q275.087 768.505 280.243 772.579 Q285.4 776.621 285.4 783.114 Q285.4 787.029 283.872 789.862 Q282.312 792.662 279.129 794.509 L284.477 794.509 L284.477 800.397 L234.951 800.397 L234.951 794.509 L254.239 794.509 Z" fill="#000000" fill-rule="evenodd" fill-opacity="1" /><path clip-path="url(#clip500)" d="M266.557 742.596 Q266.557 749.694 268.18 752.431 Q269.804 755.168 273.719 755.168 Q276.838 755.168 278.684 753.131 Q280.498 751.063 280.498 747.53 Q280.498 742.66 277.061 739.732 Q273.591 736.772 267.862 736.772 L266.557 736.772 L266.557 742.596 M264.138 730.915 L284.477 730.915 L284.477 736.772 L279.066 736.772 Q282.312 738.777 283.872 741.769 Q285.4 744.761 285.4 749.089 Q285.4 754.564 282.344 757.81 Q279.257 761.025 274.1 761.025 Q268.085 761.025 265.029 757.015 Q261.974 752.972 261.974 744.983 L261.974 736.772 L261.401 736.772 Q257.359 736.772 255.163 739.445 Q252.935 742.087 252.935 746.893 Q252.935 749.949 253.667 752.845 Q254.399 755.741 255.863 758.415 L250.452 758.415 Q249.211 755.2 248.606 752.177 Q247.969 749.153 247.969 746.288 Q247.969 738.554 251.98 734.735 Q255.99 730.915 264.138 730.915 Z" fill="#000000" fill-rule="evenodd" fill-opacity="1" /><path clip-path="url(#clip500)" d="M266.684 693.262 Q260.223 693.262 256.563 695.936 Q252.871 698.577 252.871 703.224 Q252.871 707.871 256.563 710.545 Q260.223 713.187 266.684 713.187 Q273.146 713.187 276.838 710.545 Q280.498 707.871 280.498 703.224 Q280.498 698.577 276.838 695.936 Q273.146 693.262 266.684 693.262 M254.239 713.187 Q251.057 711.341 249.529 708.54 Q247.969 705.707 247.969 701.792 Q247.969 695.299 253.125 691.257 Q258.282 687.183 266.684 687.183 Q275.087 687.183 280.243 691.257 Q285.4 695.299 285.4 701.792 Q285.4 705.707 283.872 708.54 Q282.312 711.341 279.129 713.187 L284.477 713.187 L284.477 719.075 L234.951 719.075 L234.951 713.187 L254.239 713.187 Z" fill="#000000" fill-rule="evenodd" fill-opacity="1" /><path clip-path="url(#clip500)" d="M248.829 677.475 L248.829 671.619 L284.477 671.619 L284.477 677.475 L248.829 677.475 M234.951 677.475 L234.951 671.619 L242.367 671.619 L242.367 677.475 L234.951 677.475 Z" fill="#000000" fill-rule="evenodd" fill-opacity="1" /><path clip-path="url(#clip500)" d="M234.951 659.365 L234.951 653.508 L284.477 653.508 L284.477 659.365 L234.951 659.365 Z" fill="#000000" fill-rule="evenodd" fill-opacity="1" /><path clip-path="url(#clip500)" d="M248.829 641.254 L248.829 635.398 L284.477 635.398 L284.477 641.254 L248.829 641.254 M234.951 641.254 L234.951 635.398 L242.367 635.398 L242.367 641.254 L234.951 641.254 Z" fill="#000000" fill-rule="evenodd" fill-opacity="1" /><path clip-path="url(#clip500)" d="M238.707 617.351 L248.829 617.351 L248.829 605.288 L253.38 605.288 L253.38 617.351 L272.732 617.351 Q277.092 617.351 278.334 616.173 Q279.575 614.964 279.575 611.303 L279.575 605.288 L284.477 605.288 L284.477 611.303 Q284.477 618.083 281.962 620.661 Q279.416 623.239 272.732 623.239 L253.38 623.239 L253.38 627.536 L248.829 627.536 L248.829 623.239 L238.707 623.239 L238.707 617.351 Z" fill="#000000" fill-rule="evenodd" fill-opacity="1" /><path clip-path="url(#clip500)" d="M287.787 582.753 Q294.152 585.236 296.094 587.591 Q298.036 589.947 298.036 593.893 L298.036 598.572 L293.134 598.572 L293.134 595.135 Q293.134 592.716 291.988 591.379 Q290.842 590.042 286.577 588.419 L283.904 587.368 L248.829 601.787 L248.829 595.58 L276.71 584.44 L248.829 573.3 L248.829 567.094 L287.787 582.753 Z" fill="#000000" fill-rule="evenodd" fill-opacity="1" /><path clip-path="url(#clip502)" d="
M643.533 1010.4 L643.533 1423.18 L715.249 1423.18 L715.249 1010.4 L643.533 1010.4 L643.533 1010.4  Z
  " fill="#009af9" fill-rule="evenodd" fill-opacity="1"/>
<polyline clip-path="url(#clip502)" style="stroke:#000000; stroke-linecap:round; stroke-linejoin:round; stroke-width:0; stroke-opacity:1; fill:none" points="
  643.533,1010.4 643.533,1423.18 715.249,1423.18 715.249,1010.4 643.533,1010.4 
  "/>
<path clip-path="url(#clip502)" d="
M1360.69 735.212 L1360.69 1423.18 L1432.41 1423.18 L1432.41 735.212 L1360.69 735.212 L1360.69 735.212  Z
  " fill="#009af9" fill-rule="evenodd" fill-opacity="1"/>
<polyline clip-path="url(#clip502)" style="stroke:#000000; stroke-linecap:round; stroke-linejoin:round; stroke-width:0; stroke-opacity:1; fill:none" points="
  1360.69,735.212 1360.69,1423.18 1432.41,1423.18 1432.41,735.212 1360.69,735.212 
  "/>
<path clip-path="url(#clip502)" d="
M2077.85 1147.99 L2077.85 1423.18 L2149.56 1423.18 L2149.56 1147.99 L2077.85 1147.99 L2077.85 1147.99  Z
  " fill="#009af9" fill-rule="evenodd" fill-opacity="1"/>
<polyline clip-path="url(#clip502)" style="stroke:#000000; stroke-linecap:round; stroke-linejoin:round; stroke-width:0; stroke-opacity:1; fill:none" points="
  2077.85,1147.99 2077.85,1423.18 2149.56,1423.18 2149.56,1147.99 2077.85,1147.99 
  "/>
<circle clip-path="url(#clip502)" style="fill:#009af9; stroke:none; fill-opacity:0" cx="679.391" cy="1010.4" r="2"/>
<circle clip-path="url(#clip502)" style="fill:#009af9; stroke:none; fill-opacity:0" cx="1396.55" cy="735.212" r="2"/>
<circle clip-path="url(#clip502)" style="fill:#009af9; stroke:none; fill-opacity:0" cx="2113.7" cy="1147.99" r="2"/>
</svg>
