<?xml version="1.0" encoding="utf-8"?>
<!-- Generator: Adobe Illustrator 19.2.0, SVG Export Plug-In . SVG Version: 6.00 Build 0)  -->
<svg version="1.1" id="Layer_1" xmlns="http://www.w3.org/2000/svg" xmlns:xlink="http://www.w3.org/1999/xlink" x="0px" y="0px"
	 viewBox="0 0 960 960" style="enable-background:new 0 0 960 960;" xml:space="preserve">
<style type="text/css">
	.st0{fill:#E6E6E6;}
	.st1{fill:#FFFFFF;}
	.st2{fill:#B3E2E5;}
	.st3{fill:#6DBCDB;}
	.st4{fill:none;stroke:#E6E6E6;stroke-width:5;stroke-linecap:round;stroke-miterlimit:10;}
	.st5{fill:#4DA6C1;}
	.st6{fill:#4B9CB2;}
</style>
<g>
	<path class="st0" d="M647.8,822.9h-344c-14.2,0-25.7-11.5-25.7-25.7v-610c0-14.2,11.5-25.7,25.7-25.7h344
		c14.2,0,25.7,11.5,25.7,25.7v610C673.5,811.4,662,822.9,647.8,822.9z"/>
	<path class="st1" d="M647.8,798.5h-344c-14.2,0-25.7-11.5-25.7-25.7v-610c0-14.2,11.5-25.7,25.7-25.7h344
		c14.2,0,25.7,11.5,25.7,25.7v610C673.5,787,662,798.5,647.8,798.5z"/>
	<rect x="301.6" y="199.4" class="st2" width="348.2" height="515.4"/>
	<rect x="301.6" y="199.4" class="st3" width="348.2" height="54.7"/>
	<circle class="st0" cx="475.8" cy="755.1" r="23.7"/>
	<line class="st4" x1="465" y1="175.5" x2="509" y2="175.5"/>
	<circle class="st0" cx="442.4" cy="172.2" r="5.6"/>
	<path class="st5" d="M601.5,667.3H354.3c-7.5,0-13.7-6.1-13.7-13.7V576c0-7.5,6.1-13.7,13.7-13.7h247.2c7.5,0,13.7,6.1,13.7,13.7
		v77.7C615.2,661.1,609,667.3,601.5,667.3z"/>
	<path class="st3" d="M601.5,653H354.3c-7.5,0-13.7-6.1-13.7-13.7v-77.7c0-7.5,6.1-13.7,13.7-13.7h247.2c7.5,0,13.7,6.1,13.7,13.7
		v77.7C615.2,646.9,609,653,601.5,653z"/>
	<g>
		<path class="st1" d="M418.3,621.6v-42.7h15.3c5.5,0,9.7,1,12.5,3c2.9,2,4.3,4.9,4.3,8.8c0,2.2-0.5,4.1-1.5,5.7
			c-1,1.6-2.5,2.7-4.5,3.5c2.2,0.6,3.9,1.7,5.1,3.3s1.8,3.6,1.8,5.9c0,4.2-1.3,7.3-4,9.4c-2.6,2.1-6.6,3.2-11.8,3.2h-17.2V621.6z
			 M428.6,596.7h5.4c2.2,0,3.9-0.4,4.8-1.2c1-0.8,1.4-2,1.4-3.6c0-1.8-0.5-3.1-1.6-3.9c-1-0.8-2.7-1.2-5-1.2h-5L428.6,596.7
			L428.6,596.7z M428.6,603.4v10.2h6.7c1.9,0,3.3-0.4,4.3-1.3c1-0.9,1.5-2,1.5-3.6c0-3.6-1.8-5.3-5.3-5.4L428.6,603.4L428.6,603.4z"
			/>
		<path class="st1" d="M493.5,578.9v27.9c0,3.2-0.7,5.9-2,8.2s-3.3,4.1-5.8,5.3s-5.5,1.8-8.9,1.8c-5.2,0-9.3-1.3-12.3-4
			s-4.5-6.4-4.6-11.1v-28.2h10.4v28.4c0.1,4.7,2.3,7,6.5,7c2.1,0,3.7-0.6,4.8-1.8c1.1-1.2,1.6-3.1,1.6-5.7v-27.9L493.5,578.9
			L493.5,578.9z"/>
		<path class="st1" d="M518.6,597.4l7.9-18.5h11.1l-13.8,27.4v15.3h-10.4v-15.3l-13.7-27.4h11.1L518.6,597.4z"/>
	</g>
	<g>
		<path class="st6" d="M575.2,332c-2.1-2.3-5-3.7-8.1-3.7H412.4l-2.3-19.7c-0.6-5.5-5.3-9-10.8-9H370c-6,0-10.9,3.4-10.9,9.4
			s4.9,9.4,10.9,9.4h19.7l2.2,19c-0.2,1-0.3,2.1-0.1,3.2L401,416l5.8,50.4c0.6,5.5,5.3,11.4,10.8,11.4h133.8c6,0,10.9-5.7,10.9-11.7
			s-4.9-11.7-10.9-11.7H427.1l-1.3-11.4h130c5.5,0,10.1-4.1,10.8-9.5l11.3-92.7C578.2,337.4,577.3,334.3,575.2,332z M551.3,379.2
			H515V350h39.9L551.3,379.2z M468.1,379.2V350h37.5v29.2H468.1z M505.6,393.3V421h-37.5v-27.8L505.6,393.3L505.6,393.3z M454,350
			v29.2h-35.6L415,350H454z M420,393.3h34V421h-30.6l-3.3-27.4L420,393.3z M514.9,421v-27.8h34.6l-3.4,27.8H514.9z"/>
		<circle class="st6" cx="442.6" cy="505.7" r="16.8"/>
		<circle class="st6" cx="530.4" cy="505.7" r="16.8"/>
	</g>
	<g>
		<polygon class="st6" points="669.7,605.2 567.3,593.5 577.2,700.6 608.7,669 651.1,711.4 681.9,680.5 638.2,636.8 		"/>
	</g>
	<rect x="301.6" y="199.4" class="st6" width="80.2" height="54.7"/>
	<rect x="322.6" y="212.6" class="st1" width="43.1" height="3.7"/>
	<rect x="322.6" y="224.7" class="st1" width="43.1" height="3.7"/>
	<rect x="322.6" y="236.8" class="st1" width="43.1" height="3.7"/>
</g>
</svg>
