<?xml version="1.0" encoding="utf-8"?>
<svg xmlns="http://www.w3.org/2000/svg" xmlns:xlink="http://www.w3.org/1999/xlink" width="520" height="250" viewBox="0 0 2080 1000">
<defs>
  <clipPath id="clip890">
    <rect x="0" y="0" width="2080" height="1000"/>
  </clipPath>
</defs>
<path clip-path="url(#clip890)" d="
M0 1000 L2080 1000 L2080 0 L0 0  Z
  " fill="#ffffff" fill-rule="evenodd" fill-opacity="1"/>
<defs>
  <clipPath id="clip891">
    <rect x="416" y="0" width="1457" height="1000"/>
  </clipPath>
</defs>
<path clip-path="url(#clip890)" d="
M217.536 852.068 L2032.76 852.068 L2032.76 106.608 L217.536 106.608  Z
  " fill="#ffffff" fill-rule="evenodd" fill-opacity="1"/>
<defs>
  <clipPath id="clip892">
    <rect x="217" y="106" width="1816" height="746"/>
  </clipPath>
</defs>
<polyline clip-path="url(#clip892)" style="stroke:#000000; stroke-linecap:round; stroke-linejoin:round; stroke-width:2; stroke-opacity:0.1; fill:none" points="
  411.616,852.068 411.616,106.608 
  "/>
<polyline clip-path="url(#clip892)" style="stroke:#000000; stroke-linecap:round; stroke-linejoin:round; stroke-width:2; stroke-opacity:0.1; fill:none" points="
  697.028,852.068 697.028,106.608 
  "/>
<polyline clip-path="url(#clip892)" style="stroke:#000000; stroke-linecap:round; stroke-linejoin:round; stroke-width:2; stroke-opacity:0.1; fill:none" points="
  982.44,852.068 982.44,106.608 
  "/>
<polyline clip-path="url(#clip892)" style="stroke:#000000; stroke-linecap:round; stroke-linejoin:round; stroke-width:2; stroke-opacity:0.1; fill:none" points="
  1267.85,852.068 1267.85,106.608 
  "/>
<polyline clip-path="url(#clip892)" style="stroke:#000000; stroke-linecap:round; stroke-linejoin:round; stroke-width:2; stroke-opacity:0.1; fill:none" points="
  1553.26,852.068 1553.26,106.608 
  "/>
<polyline clip-path="url(#clip892)" style="stroke:#000000; stroke-linecap:round; stroke-linejoin:round; stroke-width:2; stroke-opacity:0.1; fill:none" points="
  1838.68,852.068 1838.68,106.608 
  "/>
<polyline clip-path="url(#clip890)" style="stroke:#000000; stroke-linecap:round; stroke-linejoin:round; stroke-width:4; stroke-opacity:1; fill:none" points="
  217.536,852.068 2032.76,852.068 
  "/>
<polyline clip-path="url(#clip890)" style="stroke:#000000; stroke-linecap:round; stroke-linejoin:round; stroke-width:4; stroke-opacity:1; fill:none" points="
  411.616,852.068 411.616,833.17 
  "/>
<polyline clip-path="url(#clip890)" style="stroke:#000000; stroke-linecap:round; stroke-linejoin:round; stroke-width:4; stroke-opacity:1; fill:none" points="
  697.028,852.068 697.028,833.17 
  "/>
<polyline clip-path="url(#clip890)" style="stroke:#000000; stroke-linecap:round; stroke-linejoin:round; stroke-width:4; stroke-opacity:1; fill:none" points="
  982.44,852.068 982.44,833.17 
  "/>
<polyline clip-path="url(#clip890)" style="stroke:#000000; stroke-linecap:round; stroke-linejoin:round; stroke-width:4; stroke-opacity:1; fill:none" points="
  1267.85,852.068 1267.85,833.17 
  "/>
<polyline clip-path="url(#clip890)" style="stroke:#000000; stroke-linecap:round; stroke-linejoin:round; stroke-width:4; stroke-opacity:1; fill:none" points="
  1553.26,852.068 1553.26,833.17 
  "/>
<polyline clip-path="url(#clip890)" style="stroke:#000000; stroke-linecap:round; stroke-linejoin:round; stroke-width:4; stroke-opacity:1; fill:none" points="
  1838.68,852.068 1838.68,833.17 
  "/>
<path clip-path="url(#clip890)" d="M386.743 911.19 L386.743 906.931 Q388.503 907.764 390.308 908.204 Q392.114 908.644 393.85 908.644 Q398.479 908.644 400.91 905.542 Q403.364 902.417 403.711 896.074 Q402.368 898.065 400.308 899.13 Q398.248 900.195 395.748 900.195 Q390.563 900.195 387.53 897.07 Q384.521 893.922 384.521 888.482 Q384.521 883.158 387.669 879.94 Q390.817 876.723 396.049 876.723 Q402.044 876.723 405.192 881.329 Q408.364 885.912 408.364 894.662 Q408.364 902.834 404.475 907.718 Q400.609 912.579 394.058 912.579 Q392.299 912.579 390.493 912.232 Q388.688 911.884 386.743 911.19 M396.049 896.537 Q399.197 896.537 401.026 894.384 Q402.878 892.232 402.878 888.482 Q402.878 884.755 401.026 882.602 Q399.197 880.426 396.049 880.426 Q392.901 880.426 391.049 882.602 Q389.22 884.755 389.22 888.482 Q389.22 892.232 391.049 894.384 Q392.901 896.537 396.049 896.537 Z" fill="#000000" fill-rule="evenodd" fill-opacity="1" /><path clip-path="url(#clip890)" d="M426.766 880.426 Q423.155 880.426 421.327 883.991 Q419.521 887.533 419.521 894.662 Q419.521 901.769 421.327 905.333 Q423.155 908.875 426.766 908.875 Q430.401 908.875 432.206 905.333 Q434.035 901.769 434.035 894.662 Q434.035 887.533 432.206 883.991 Q430.401 880.426 426.766 880.426 M426.766 876.723 Q432.576 876.723 435.632 881.329 Q438.711 885.912 438.711 894.662 Q438.711 903.389 435.632 907.996 Q432.576 912.579 426.766 912.579 Q420.956 912.579 417.877 907.996 Q414.822 903.389 414.822 894.662 Q414.822 885.912 417.877 881.329 Q420.956 876.723 426.766 876.723 Z" fill="#000000" fill-rule="evenodd" fill-opacity="1" /><path clip-path="url(#clip890)" d="M656.635 907.972 L664.273 907.972 L664.273 881.607 L655.963 883.273 L655.963 879.014 L664.227 877.348 L668.903 877.348 L668.903 907.972 L676.542 907.972 L676.542 911.908 L656.635 911.908 L656.635 907.972 Z" fill="#000000" fill-rule="evenodd" fill-opacity="1" /><path clip-path="url(#clip890)" d="M695.986 880.426 Q692.375 880.426 690.546 883.991 Q688.741 887.533 688.741 894.662 Q688.741 901.769 690.546 905.333 Q692.375 908.875 695.986 908.875 Q699.62 908.875 701.426 905.333 Q703.255 901.769 703.255 894.662 Q703.255 887.533 701.426 883.991 Q699.62 880.426 695.986 880.426 M695.986 876.723 Q701.796 876.723 704.852 881.329 Q707.931 885.912 707.931 894.662 Q707.931 903.389 704.852 907.996 Q701.796 912.579 695.986 912.579 Q690.176 912.579 687.097 907.996 Q684.042 903.389 684.042 894.662 Q684.042 885.912 687.097 881.329 Q690.176 876.723 695.986 876.723 Z" fill="#000000" fill-rule="evenodd" fill-opacity="1" /><path clip-path="url(#clip890)" d="M726.148 880.426 Q722.537 880.426 720.708 883.991 Q718.903 887.533 718.903 894.662 Q718.903 901.769 720.708 905.333 Q722.537 908.875 726.148 908.875 Q729.782 908.875 731.588 905.333 Q733.417 901.769 733.417 894.662 Q733.417 887.533 731.588 883.991 Q729.782 880.426 726.148 880.426 M726.148 876.723 Q731.958 876.723 735.014 881.329 Q738.092 885.912 738.092 894.662 Q738.092 903.389 735.014 907.996 Q731.958 912.579 726.148 912.579 Q720.338 912.579 717.259 907.996 Q714.204 903.389 714.204 894.662 Q714.204 885.912 717.259 881.329 Q720.338 876.723 726.148 876.723 Z" fill="#000000" fill-rule="evenodd" fill-opacity="1" /><path clip-path="url(#clip890)" d="M942.047 907.972 L949.685 907.972 L949.685 881.607 L941.375 883.273 L941.375 879.014 L949.639 877.348 L954.315 877.348 L954.315 907.972 L961.954 907.972 L961.954 911.908 L942.047 911.908 L942.047 907.972 Z" fill="#000000" fill-rule="evenodd" fill-opacity="1" /><path clip-path="url(#clip890)" d="M972.208 907.972 L979.847 907.972 L979.847 881.607 L971.537 883.273 L971.537 879.014 L979.801 877.348 L984.477 877.348 L984.477 907.972 L992.116 907.972 L992.116 911.908 L972.208 911.908 L972.208 907.972 Z" fill="#000000" fill-rule="evenodd" fill-opacity="1" /><path clip-path="url(#clip890)" d="M1011.56 880.426 Q1007.95 880.426 1006.12 883.991 Q1004.31 887.533 1004.31 894.662 Q1004.31 901.769 1006.12 905.333 Q1007.95 908.875 1011.56 908.875 Q1015.19 908.875 1017 905.333 Q1018.83 901.769 1018.83 894.662 Q1018.83 887.533 1017 883.991 Q1015.19 880.426 1011.56 880.426 M1011.56 876.723 Q1017.37 876.723 1020.43 881.329 Q1023.5 885.912 1023.5 894.662 Q1023.5 903.389 1020.43 907.996 Q1017.37 912.579 1011.56 912.579 Q1005.75 912.579 1002.67 907.996 Q999.616 903.389 999.616 894.662 Q999.616 885.912 1002.67 881.329 Q1005.75 876.723 1011.56 876.723 Z" fill="#000000" fill-rule="evenodd" fill-opacity="1" /><path clip-path="url(#clip890)" d="M1227.46 907.972 L1235.1 907.972 L1235.1 881.607 L1226.79 883.273 L1226.79 879.014 L1235.05 877.348 L1239.73 877.348 L1239.73 907.972 L1247.37 907.972 L1247.37 911.908 L1227.46 911.908 L1227.46 907.972 Z" fill="#000000" fill-rule="evenodd" fill-opacity="1" /><path clip-path="url(#clip890)" d="M1260.84 907.972 L1277.16 907.972 L1277.16 911.908 L1255.21 911.908 L1255.21 907.972 Q1257.88 905.218 1262.46 900.588 Q1267.06 895.935 1268.25 894.593 Q1270.49 892.07 1271.37 890.334 Q1272.27 888.574 1272.27 886.885 Q1272.27 884.13 1270.33 882.394 Q1268.41 880.658 1265.31 880.658 Q1263.11 880.658 1260.65 881.422 Q1258.22 882.185 1255.44 883.736 L1255.44 879.014 Q1258.27 877.88 1260.72 877.301 Q1263.18 876.723 1265.21 876.723 Q1270.58 876.723 1273.78 879.408 Q1276.97 882.093 1276.97 886.584 Q1276.97 888.713 1276.16 890.635 Q1275.37 892.533 1273.27 895.125 Q1272.69 895.797 1269.59 899.014 Q1266.49 902.209 1260.84 907.972 Z" fill="#000000" fill-rule="evenodd" fill-opacity="1" /><path clip-path="url(#clip890)" d="M1296.97 880.426 Q1293.36 880.426 1291.53 883.991 Q1289.73 887.533 1289.73 894.662 Q1289.73 901.769 1291.53 905.333 Q1293.36 908.875 1296.97 908.875 Q1300.61 908.875 1302.41 905.333 Q1304.24 901.769 1304.24 894.662 Q1304.24 887.533 1302.41 883.991 Q1300.61 880.426 1296.97 880.426 M1296.97 876.723 Q1302.78 876.723 1305.84 881.329 Q1308.92 885.912 1308.92 894.662 Q1308.92 903.389 1305.84 907.996 Q1302.78 912.579 1296.97 912.579 Q1291.16 912.579 1288.08 907.996 Q1285.03 903.389 1285.03 894.662 Q1285.03 885.912 1288.08 881.329 Q1291.16 876.723 1296.97 876.723 Z" fill="#000000" fill-rule="evenodd" fill-opacity="1" /><path clip-path="url(#clip890)" d="M1512.87 907.972 L1520.51 907.972 L1520.51 881.607 L1512.2 883.273 L1512.2 879.014 L1520.46 877.348 L1525.14 877.348 L1525.14 907.972 L1532.78 907.972 L1532.78 911.908 L1512.87 911.908 L1512.87 907.972 Z" fill="#000000" fill-rule="evenodd" fill-opacity="1" /><path clip-path="url(#clip890)" d="M1556.39 893.273 Q1559.75 893.991 1561.62 896.259 Q1563.52 898.528 1563.52 901.861 Q1563.52 906.977 1560 909.778 Q1556.48 912.579 1550 912.579 Q1547.82 912.579 1545.51 912.139 Q1543.22 911.722 1540.76 910.866 L1540.76 906.352 Q1542.71 907.486 1545.02 908.065 Q1547.34 908.644 1549.86 908.644 Q1554.26 908.644 1556.55 906.908 Q1558.87 905.171 1558.87 901.861 Q1558.87 898.806 1556.71 897.093 Q1554.58 895.357 1550.76 895.357 L1546.74 895.357 L1546.74 891.514 L1550.95 891.514 Q1554.4 891.514 1556.23 890.148 Q1558.06 888.76 1558.06 886.167 Q1558.06 883.505 1556.16 882.093 Q1554.28 880.658 1550.76 880.658 Q1548.84 880.658 1546.64 881.074 Q1544.44 881.491 1541.81 882.371 L1541.81 878.204 Q1544.47 877.463 1546.78 877.093 Q1549.12 876.723 1551.18 876.723 Q1556.5 876.723 1559.61 879.153 Q1562.71 881.56 1562.71 885.681 Q1562.71 888.551 1561.06 890.542 Q1559.42 892.509 1556.39 893.273 Z" fill="#000000" fill-rule="evenodd" fill-opacity="1" /><path clip-path="url(#clip890)" d="M1582.38 880.426 Q1578.77 880.426 1576.94 883.991 Q1575.14 887.533 1575.14 894.662 Q1575.14 901.769 1576.94 905.333 Q1578.77 908.875 1582.38 908.875 Q1586.02 908.875 1587.82 905.333 Q1589.65 901.769 1589.65 894.662 Q1589.65 887.533 1587.82 883.991 Q1586.02 880.426 1582.38 880.426 M1582.38 876.723 Q1588.19 876.723 1591.25 881.329 Q1594.33 885.912 1594.33 894.662 Q1594.33 903.389 1591.25 907.996 Q1588.19 912.579 1582.38 912.579 Q1576.57 912.579 1573.5 907.996 Q1570.44 903.389 1570.44 894.662 Q1570.44 885.912 1573.5 881.329 Q1576.57 876.723 1582.38 876.723 Z" fill="#000000" fill-rule="evenodd" fill-opacity="1" /><path clip-path="url(#clip890)" d="M1798.28 907.972 L1805.92 907.972 L1805.92 881.607 L1797.61 883.273 L1797.61 879.014 L1805.88 877.348 L1810.55 877.348 L1810.55 907.972 L1818.19 907.972 L1818.19 911.908 L1798.28 911.908 L1798.28 907.972 Z" fill="#000000" fill-rule="evenodd" fill-opacity="1" /><path clip-path="url(#clip890)" d="M1840.48 881.422 L1828.68 899.871 L1840.48 899.871 L1840.48 881.422 M1839.25 877.348 L1845.13 877.348 L1845.13 899.871 L1850.06 899.871 L1850.06 903.759 L1845.13 903.759 L1845.13 911.908 L1840.48 911.908 L1840.48 903.759 L1824.88 903.759 L1824.88 899.246 L1839.25 877.348 Z" fill="#000000" fill-rule="evenodd" fill-opacity="1" /><path clip-path="url(#clip890)" d="M1867.8 880.426 Q1864.18 880.426 1862.36 883.991 Q1860.55 887.533 1860.55 894.662 Q1860.55 901.769 1862.36 905.333 Q1864.18 908.875 1867.8 908.875 Q1871.43 908.875 1873.24 905.333 Q1875.06 901.769 1875.06 894.662 Q1875.06 887.533 1873.24 883.991 Q1871.43 880.426 1867.8 880.426 M1867.8 876.723 Q1873.61 876.723 1876.66 881.329 Q1879.74 885.912 1879.74 894.662 Q1879.74 903.389 1876.66 907.996 Q1873.61 912.579 1867.8 912.579 Q1861.99 912.579 1858.91 907.996 Q1855.85 903.389 1855.85 894.662 Q1855.85 885.912 1858.91 881.329 Q1861.99 876.723 1867.8 876.723 Z" fill="#000000" fill-rule="evenodd" fill-opacity="1" /><path clip-path="url(#clip890)" d="M870.979 948.972 Q863.977 948.972 859.839 954.192 Q855.733 959.412 855.733 968.419 Q855.733 977.395 859.839 982.615 Q863.977 987.835 870.979 987.835 Q877.981 987.835 882.055 982.615 Q886.161 977.395 886.161 968.419 Q886.161 959.412 882.055 954.192 Q877.981 948.972 870.979 948.972 M879.987 991.272 L888.453 1000.53 L880.687 1000.53 L873.653 992.927 Q872.602 992.991 872.029 993.023 Q871.488 993.055 870.979 993.055 Q860.953 993.055 854.938 986.371 Q848.954 979.655 848.954 968.419 Q848.954 957.152 854.938 950.468 Q860.953 943.752 870.979 943.752 Q880.973 943.752 886.957 950.468 Q892.941 957.152 892.941 968.419 Q892.941 976.695 889.599 982.583 Q886.289 988.471 879.987 991.272 Z" fill="#000000" fill-rule="evenodd" fill-opacity="1" /><path clip-path="url(#clip890)" d="M902.139 978.063 L902.139 956.484 L907.996 956.484 L907.996 977.841 Q907.996 982.901 909.969 985.448 Q911.942 987.962 915.889 987.962 Q920.632 987.962 923.369 984.938 Q926.138 981.915 926.138 976.695 L926.138 956.484 L931.994 956.484 L931.994 992.132 L926.138 992.132 L926.138 986.657 Q924.005 989.904 921.173 991.495 Q918.372 993.055 914.648 993.055 Q908.505 993.055 905.322 989.235 Q902.139 985.416 902.139 978.063 M916.876 955.624 L916.876 955.624 Z" fill="#000000" fill-rule="evenodd" fill-opacity="1" /><path clip-path="url(#clip890)" d="M960.258 974.212 Q953.16 974.212 950.423 975.835 Q947.686 977.459 947.686 981.373 Q947.686 984.493 949.723 986.339 Q951.792 988.153 955.325 988.153 Q960.194 988.153 963.123 984.715 Q966.083 981.246 966.083 975.517 L966.083 974.212 L960.258 974.212 M971.939 971.793 L971.939 992.132 L966.083 992.132 L966.083 986.721 Q964.078 989.967 961.086 991.527 Q958.094 993.055 953.765 993.055 Q948.291 993.055 945.044 989.999 Q941.829 986.912 941.829 981.755 Q941.829 975.74 945.84 972.684 Q949.882 969.629 957.871 969.629 L966.083 969.629 L966.083 969.056 Q966.083 965.014 963.409 962.817 Q960.767 960.589 955.961 960.589 Q952.906 960.589 950.009 961.322 Q947.113 962.054 944.439 963.518 L944.439 958.107 Q947.654 956.866 950.678 956.261 Q953.701 955.624 956.566 955.624 Q964.3 955.624 968.12 959.635 Q971.939 963.645 971.939 971.793 Z" fill="#000000" fill-rule="evenodd" fill-opacity="1" /><path clip-path="url(#clip890)" d="M1013.63 970.615 L1013.63 992.132 L1007.78 992.132 L1007.78 970.806 Q1007.78 965.746 1005.8 963.231 Q1003.83 960.717 999.885 960.717 Q995.142 960.717 992.405 963.74 Q989.668 966.764 989.668 971.984 L989.668 992.132 L983.779 992.132 L983.779 956.484 L989.668 956.484 L989.668 962.022 Q991.768 958.807 994.601 957.216 Q997.466 955.624 1001.19 955.624 Q1007.33 955.624 1010.48 959.444 Q1013.63 963.231 1013.63 970.615 Z" fill="#000000" fill-rule="evenodd" fill-opacity="1" /><path clip-path="url(#clip890)" d="M1031.11 946.362 L1031.11 956.484 L1043.17 956.484 L1043.17 961.035 L1031.11 961.035 L1031.11 980.387 Q1031.11 984.747 1032.29 985.989 Q1033.5 987.23 1037.16 987.23 L1043.17 987.23 L1043.17 992.132 L1037.16 992.132 Q1030.38 992.132 1027.8 989.617 Q1025.22 987.071 1025.22 980.387 L1025.22 961.035 L1020.92 961.035 L1020.92 956.484 L1025.22 956.484 L1025.22 946.362 L1031.11 946.362 Z" fill="#000000" fill-rule="evenodd" fill-opacity="1" /><path clip-path="url(#clip890)" d="M1050.87 956.484 L1056.73 956.484 L1056.73 992.132 L1050.87 992.132 L1050.87 956.484 M1050.87 942.606 L1056.73 942.606 L1056.73 950.022 L1050.87 950.022 L1050.87 942.606 Z" fill="#000000" fill-rule="evenodd" fill-opacity="1" /><path clip-path="url(#clip890)" d="M1074.78 946.362 L1074.78 956.484 L1086.84 956.484 L1086.84 961.035 L1074.78 961.035 L1074.78 980.387 Q1074.78 984.747 1075.95 985.989 Q1077.16 987.23 1080.82 987.23 L1086.84 987.23 L1086.84 992.132 L1080.82 992.132 Q1074.05 992.132 1071.47 989.617 Q1068.89 987.071 1068.89 980.387 L1068.89 961.035 L1064.59 961.035 L1064.59 956.484 L1068.89 956.484 L1068.89 946.362 L1074.78 946.362 Z" fill="#000000" fill-rule="evenodd" fill-opacity="1" /><path clip-path="url(#clip890)" d="M1109.37 995.442 Q1106.89 1001.81 1104.54 1003.75 Q1102.18 1005.69 1098.23 1005.69 L1093.56 1005.69 L1093.56 1000.79 L1096.99 1000.79 Q1099.41 1000.79 1100.75 999.643 Q1102.09 998.497 1103.71 994.232 L1104.76 991.559 L1090.34 956.484 L1096.55 956.484 L1107.69 984.365 L1118.83 956.484 L1125.03 956.484 L1109.37 995.442 Z" fill="#000000" fill-rule="evenodd" fill-opacity="1" /><path clip-path="url(#clip890)" d="M1182.58 946.171 L1182.58 952.441 Q1178.92 950.691 1175.67 949.831 Q1172.43 948.972 1169.4 948.972 Q1164.15 948.972 1161.29 951.009 Q1158.45 953.046 1158.45 956.802 Q1158.45 959.953 1160.33 961.576 Q1162.24 963.168 1167.53 964.154 L1171.41 964.95 Q1178.6 966.319 1182.01 969.788 Q1185.45 973.225 1185.45 979.018 Q1185.45 985.925 1180.8 989.49 Q1176.18 993.055 1167.24 993.055 Q1163.87 993.055 1160.05 992.291 Q1156.26 991.527 1152.18 990.031 L1152.18 983.411 Q1156.1 985.607 1159.85 986.721 Q1163.61 987.835 1167.24 987.835 Q1172.75 987.835 1175.74 985.67 Q1178.73 983.506 1178.73 979.496 Q1178.73 975.994 1176.56 974.021 Q1174.43 972.048 1169.53 971.061 L1165.62 970.297 Q1158.42 968.865 1155.21 965.809 Q1151.99 962.754 1151.99 957.311 Q1151.99 951.009 1156.42 947.381 Q1160.87 943.752 1168.67 943.752 Q1172.01 943.752 1175.48 944.357 Q1178.95 944.962 1182.58 946.171 Z" fill="#000000" fill-rule="evenodd" fill-opacity="1" /><path clip-path="url(#clip890)" d="M1201.01 946.362 L1201.01 956.484 L1213.07 956.484 L1213.07 961.035 L1201.01 961.035 L1201.01 980.387 Q1201.01 984.747 1202.19 985.989 Q1203.4 987.23 1207.06 987.23 L1213.07 987.23 L1213.07 992.132 L1207.06 992.132 Q1200.28 992.132 1197.7 989.617 Q1195.12 987.071 1195.12 980.387 L1195.12 961.035 L1190.82 961.035 L1190.82 956.484 L1195.12 956.484 L1195.12 946.362 L1201.01 946.362 Z" fill="#000000" fill-rule="evenodd" fill-opacity="1" /><path clip-path="url(#clip890)" d="M1234.59 960.589 Q1229.88 960.589 1227.14 964.282 Q1224.4 967.942 1224.4 974.339 Q1224.4 980.737 1227.11 984.429 Q1229.85 988.089 1234.59 988.089 Q1239.27 988.089 1242 984.397 Q1244.74 980.705 1244.74 974.339 Q1244.74 968.006 1242 964.313 Q1239.27 960.589 1234.59 960.589 M1234.59 955.624 Q1242.23 955.624 1246.59 960.589 Q1250.95 965.555 1250.95 974.339 Q1250.95 983.092 1246.59 988.089 Q1242.23 993.055 1234.59 993.055 Q1226.92 993.055 1222.56 988.089 Q1218.23 983.092 1218.23 974.339 Q1218.23 965.555 1222.56 960.589 Q1226.92 955.624 1234.59 955.624 Z" fill="#000000" fill-rule="evenodd" fill-opacity="1" /><path clip-path="url(#clip890)" d="M1286.31 957.852 L1286.31 963.327 Q1283.83 961.958 1281.31 961.29 Q1278.83 960.589 1276.28 960.589 Q1270.59 960.589 1267.44 964.218 Q1264.28 967.815 1264.28 974.339 Q1264.28 980.864 1267.44 984.493 Q1270.59 988.089 1276.28 988.089 Q1278.83 988.089 1281.31 987.421 Q1283.83 986.721 1286.31 985.352 L1286.31 990.763 Q1283.86 991.909 1281.22 992.482 Q1278.61 993.055 1275.65 993.055 Q1267.59 993.055 1262.85 987.994 Q1258.11 982.933 1258.11 974.339 Q1258.11 965.618 1262.88 960.621 Q1267.69 955.624 1276.03 955.624 Q1278.73 955.624 1281.31 956.197 Q1283.89 956.738 1286.31 957.852 Z" fill="#000000" fill-rule="evenodd" fill-opacity="1" /><path clip-path="url(#clip890)" d="M1296.27 942.606 L1302.16 942.606 L1302.16 971.857 L1319.63 956.484 L1327.11 956.484 L1308.21 973.162 L1327.91 992.132 L1320.27 992.132 L1302.16 974.721 L1302.16 992.132 L1296.27 992.132 L1296.27 942.606 Z" fill="#000000" fill-rule="evenodd" fill-opacity="1" /><path clip-path="url(#clip890)" d="M1362.41 972.843 L1362.41 975.708 L1335.48 975.708 Q1335.87 981.755 1339.11 984.938 Q1342.39 988.089 1348.22 988.089 Q1351.59 988.089 1354.74 987.262 Q1357.92 986.434 1361.04 984.779 L1361.04 990.317 Q1357.89 991.654 1354.58 992.354 Q1351.27 993.055 1347.87 993.055 Q1339.34 993.055 1334.34 988.089 Q1329.37 983.124 1329.37 974.658 Q1329.37 965.905 1334.08 960.78 Q1338.83 955.624 1346.85 955.624 Q1354.04 955.624 1358.21 960.271 Q1362.41 964.886 1362.41 972.843 M1356.56 971.125 Q1356.49 966.319 1353.85 963.454 Q1351.24 960.589 1346.91 960.589 Q1342.01 960.589 1339.05 963.359 Q1336.12 966.128 1335.68 971.157 L1356.56 971.125 Z" fill="#000000" fill-rule="evenodd" fill-opacity="1" /><path clip-path="url(#clip890)" d="M1395.48 961.894 L1395.48 942.606 L1401.34 942.606 L1401.34 992.132 L1395.48 992.132 L1395.48 986.784 Q1393.64 989.967 1390.8 991.527 Q1388 993.055 1384.06 993.055 Q1377.59 993.055 1373.52 987.898 Q1369.48 982.742 1369.48 974.339 Q1369.48 965.937 1373.52 960.78 Q1377.59 955.624 1384.06 955.624 Q1388 955.624 1390.8 957.184 Q1393.64 958.712 1395.48 961.894 M1375.53 974.339 Q1375.53 980.801 1378.17 984.493 Q1380.84 988.153 1385.49 988.153 Q1390.13 988.153 1392.81 984.493 Q1395.48 980.801 1395.48 974.339 Q1395.48 967.878 1392.81 964.218 Q1390.13 960.526 1385.49 960.526 Q1380.84 960.526 1378.17 964.218 Q1375.53 967.878 1375.53 974.339 Z" fill="#000000" fill-rule="evenodd" fill-opacity="1" /><polyline clip-path="url(#clip892)" style="stroke:#000000; stroke-linecap:round; stroke-linejoin:round; stroke-width:2; stroke-opacity:0.1; fill:none" points="
  217.536,745.788 2032.76,745.788 
  "/>
<polyline clip-path="url(#clip892)" style="stroke:#000000; stroke-linecap:round; stroke-linejoin:round; stroke-width:2; stroke-opacity:0.1; fill:none" points="
  217.536,611.455 2032.76,611.455 
  "/>
<polyline clip-path="url(#clip892)" style="stroke:#000000; stroke-linecap:round; stroke-linejoin:round; stroke-width:2; stroke-opacity:0.1; fill:none" points="
  217.536,477.122 2032.76,477.122 
  "/>
<polyline clip-path="url(#clip892)" style="stroke:#000000; stroke-linecap:round; stroke-linejoin:round; stroke-width:2; stroke-opacity:0.1; fill:none" points="
  217.536,342.789 2032.76,342.789 
  "/>
<polyline clip-path="url(#clip892)" style="stroke:#000000; stroke-linecap:round; stroke-linejoin:round; stroke-width:2; stroke-opacity:0.1; fill:none" points="
  217.536,208.457 2032.76,208.457 
  "/>
<polyline clip-path="url(#clip890)" style="stroke:#000000; stroke-linecap:round; stroke-linejoin:round; stroke-width:4; stroke-opacity:1; fill:none" points="
  217.536,852.068 217.536,106.608 
  "/>
<polyline clip-path="url(#clip890)" style="stroke:#000000; stroke-linecap:round; stroke-linejoin:round; stroke-width:4; stroke-opacity:1; fill:none" points="
  217.536,745.788 236.433,745.788 
  "/>
<polyline clip-path="url(#clip890)" style="stroke:#000000; stroke-linecap:round; stroke-linejoin:round; stroke-width:4; stroke-opacity:1; fill:none" points="
  217.536,611.455 236.433,611.455 
  "/>
<polyline clip-path="url(#clip890)" style="stroke:#000000; stroke-linecap:round; stroke-linejoin:round; stroke-width:4; stroke-opacity:1; fill:none" points="
  217.536,477.122 236.433,477.122 
  "/>
<polyline clip-path="url(#clip890)" style="stroke:#000000; stroke-linecap:round; stroke-linejoin:round; stroke-width:4; stroke-opacity:1; fill:none" points="
  217.536,342.789 236.433,342.789 
  "/>
<polyline clip-path="url(#clip890)" style="stroke:#000000; stroke-linecap:round; stroke-linejoin:round; stroke-width:4; stroke-opacity:1; fill:none" points="
  217.536,208.457 236.433,208.457 
  "/>
<path clip-path="url(#clip890)" d="M109.091 759.133 L125.41 759.133 L125.41 763.068 L103.466 763.068 L103.466 759.133 Q106.128 756.378 110.711 751.748 Q115.318 747.096 116.498 745.753 Q118.744 743.23 119.623 741.494 Q120.526 739.735 120.526 738.045 Q120.526 735.29 118.582 733.554 Q116.66 731.818 113.558 731.818 Q111.359 731.818 108.906 732.582 Q106.475 733.346 103.697 734.897 L103.697 730.174 Q106.521 729.04 108.975 728.461 Q111.429 727.883 113.466 727.883 Q118.836 727.883 122.031 730.568 Q125.225 733.253 125.225 737.744 Q125.225 739.873 124.415 741.795 Q123.628 743.693 121.521 746.285 Q120.943 746.957 117.841 750.174 Q114.739 753.369 109.091 759.133 Z" fill="#000000" fill-rule="evenodd" fill-opacity="1" /><path clip-path="url(#clip890)" d="M135.364 762.35 L135.364 758.091 Q137.123 758.924 138.929 759.364 Q140.734 759.804 142.47 759.804 Q147.1 759.804 149.53 756.702 Q151.984 753.577 152.331 747.235 Q150.989 749.225 148.929 750.29 Q146.868 751.355 144.368 751.355 Q139.183 751.355 136.151 748.23 Q133.142 745.082 133.142 739.642 Q133.142 734.318 136.29 731.1 Q139.438 727.883 144.669 727.883 Q150.665 727.883 153.813 732.489 Q156.984 737.073 156.984 745.822 Q156.984 753.994 153.095 758.878 Q149.23 763.739 142.679 763.739 Q140.919 763.739 139.114 763.392 Q137.308 763.045 135.364 762.35 M144.669 747.697 Q147.817 747.697 149.646 745.545 Q151.498 743.392 151.498 739.642 Q151.498 735.915 149.646 733.762 Q147.817 731.586 144.669 731.586 Q141.521 731.586 139.669 733.762 Q137.841 735.915 137.841 739.642 Q137.841 743.392 139.669 745.545 Q141.521 747.697 144.669 747.697 Z" fill="#000000" fill-rule="evenodd" fill-opacity="1" /><path clip-path="url(#clip890)" d="M165.433 728.508 L183.79 728.508 L183.79 732.443 L169.716 732.443 L169.716 740.915 Q170.734 740.568 171.753 740.406 Q172.771 740.221 173.79 740.221 Q179.577 740.221 182.956 743.392 Q186.336 746.563 186.336 751.98 Q186.336 757.559 182.864 760.66 Q179.391 763.739 173.072 763.739 Q170.896 763.739 168.628 763.369 Q166.382 762.998 163.975 762.258 L163.975 757.559 Q166.058 758.693 168.28 759.248 Q170.503 759.804 172.979 759.804 Q176.984 759.804 179.322 757.697 Q181.66 755.591 181.66 751.98 Q181.66 748.369 179.322 746.262 Q176.984 744.156 172.979 744.156 Q171.104 744.156 169.229 744.573 Q167.378 744.989 165.433 745.869 L165.433 728.508 Z" fill="#000000" fill-rule="evenodd" fill-opacity="1" /><path clip-path="url(#clip890)" d="M118.234 610.101 Q121.591 610.818 123.466 613.087 Q125.364 615.355 125.364 618.689 Q125.364 623.804 121.845 626.605 Q118.327 629.406 111.845 629.406 Q109.67 629.406 107.355 628.966 Q105.063 628.55 102.609 627.693 L102.609 623.179 Q104.554 624.314 106.869 624.892 Q109.183 625.471 111.707 625.471 Q116.105 625.471 118.396 623.735 Q120.711 621.999 120.711 618.689 Q120.711 615.633 118.558 613.92 Q116.429 612.184 112.609 612.184 L108.582 612.184 L108.582 608.342 L112.795 608.342 Q116.244 608.342 118.072 606.976 Q119.901 605.587 119.901 602.994 Q119.901 600.332 118.003 598.92 Q116.128 597.485 112.609 597.485 Q110.688 597.485 108.489 597.902 Q106.29 598.319 103.651 599.198 L103.651 595.031 Q106.313 594.291 108.628 593.92 Q110.966 593.55 113.026 593.55 Q118.35 593.55 121.452 595.981 Q124.554 598.388 124.554 602.508 Q124.554 605.379 122.91 607.369 Q121.267 609.337 118.234 610.101 Z" fill="#000000" fill-rule="evenodd" fill-opacity="1" /><path clip-path="url(#clip890)" d="M144.23 597.254 Q140.618 597.254 138.79 600.818 Q136.984 604.36 136.984 611.49 Q136.984 618.596 138.79 622.161 Q140.618 625.703 144.23 625.703 Q147.864 625.703 149.669 622.161 Q151.498 618.596 151.498 611.49 Q151.498 604.36 149.669 600.818 Q147.864 597.254 144.23 597.254 M144.23 593.55 Q150.04 593.55 153.095 598.156 Q156.174 602.74 156.174 611.49 Q156.174 620.217 153.095 624.823 Q150.04 629.406 144.23 629.406 Q138.419 629.406 135.341 624.823 Q132.285 620.217 132.285 611.49 Q132.285 602.74 135.341 598.156 Q138.419 593.55 144.23 593.55 Z" fill="#000000" fill-rule="evenodd" fill-opacity="1" /><path clip-path="url(#clip890)" d="M174.391 597.254 Q170.78 597.254 168.952 600.818 Q167.146 604.36 167.146 611.49 Q167.146 618.596 168.952 622.161 Q170.78 625.703 174.391 625.703 Q178.026 625.703 179.831 622.161 Q181.66 618.596 181.66 611.49 Q181.66 604.36 179.831 600.818 Q178.026 597.254 174.391 597.254 M174.391 593.55 Q180.202 593.55 183.257 598.156 Q186.336 602.74 186.336 611.49 Q186.336 620.217 183.257 624.823 Q180.202 629.406 174.391 629.406 Q168.581 629.406 165.503 624.823 Q162.447 620.217 162.447 611.49 Q162.447 602.74 165.503 598.156 Q168.581 593.55 174.391 593.55 Z" fill="#000000" fill-rule="evenodd" fill-opacity="1" /><path clip-path="url(#clip890)" d="M119.23 475.768 Q122.586 476.486 124.461 478.754 Q126.359 481.023 126.359 484.356 Q126.359 489.472 122.841 492.273 Q119.322 495.074 112.841 495.074 Q110.665 495.074 108.35 494.634 Q106.058 494.217 103.605 493.361 L103.605 488.847 Q105.549 489.981 107.864 490.56 Q110.179 491.138 112.702 491.138 Q117.1 491.138 119.392 489.402 Q121.707 487.666 121.707 484.356 Q121.707 481.3 119.554 479.588 Q117.424 477.851 113.605 477.851 L109.577 477.851 L109.577 474.009 L113.79 474.009 Q117.239 474.009 119.068 472.643 Q120.896 471.254 120.896 468.662 Q120.896 466 118.998 464.588 Q117.123 463.152 113.605 463.152 Q111.683 463.152 109.484 463.569 Q107.285 463.986 104.646 464.865 L104.646 460.699 Q107.308 459.958 109.623 459.588 Q111.961 459.217 114.021 459.217 Q119.345 459.217 122.447 461.648 Q125.549 464.055 125.549 468.176 Q125.549 471.046 123.906 473.037 Q122.262 475.004 119.23 475.768 Z" fill="#000000" fill-rule="evenodd" fill-opacity="1" /><path clip-path="url(#clip890)" d="M145.225 462.921 Q141.614 462.921 139.785 466.486 Q137.98 470.027 137.98 477.157 Q137.98 484.263 139.785 487.828 Q141.614 491.37 145.225 491.37 Q148.859 491.37 150.665 487.828 Q152.493 484.263 152.493 477.157 Q152.493 470.027 150.665 466.486 Q148.859 462.921 145.225 462.921 M145.225 459.217 Q151.035 459.217 154.091 463.824 Q157.169 468.407 157.169 477.157 Q157.169 485.884 154.091 490.49 Q151.035 495.074 145.225 495.074 Q139.415 495.074 136.336 490.49 Q133.281 485.884 133.281 477.157 Q133.281 468.407 136.336 463.824 Q139.415 459.217 145.225 459.217 Z" fill="#000000" fill-rule="evenodd" fill-opacity="1" /><path clip-path="url(#clip890)" d="M165.433 459.842 L183.79 459.842 L183.79 463.777 L169.716 463.777 L169.716 472.25 Q170.734 471.902 171.753 471.74 Q172.771 471.555 173.79 471.555 Q179.577 471.555 182.956 474.726 Q186.336 477.898 186.336 483.314 Q186.336 488.893 182.864 491.995 Q179.391 495.074 173.072 495.074 Q170.896 495.074 168.628 494.703 Q166.382 494.333 163.975 493.592 L163.975 488.893 Q166.058 490.027 168.28 490.583 Q170.503 491.138 172.979 491.138 Q176.984 491.138 179.322 489.032 Q181.66 486.925 181.66 483.314 Q181.66 479.703 179.322 477.597 Q176.984 475.49 172.979 475.49 Q171.104 475.49 169.229 475.907 Q167.378 476.324 165.433 477.203 L165.433 459.842 Z" fill="#000000" fill-rule="evenodd" fill-opacity="1" /><path clip-path="url(#clip890)" d="M118.234 341.435 Q121.591 342.153 123.466 344.421 Q125.364 346.69 125.364 350.023 Q125.364 355.139 121.845 357.94 Q118.327 360.741 111.845 360.741 Q109.67 360.741 107.355 360.301 Q105.063 359.884 102.609 359.028 L102.609 354.514 Q104.554 355.648 106.869 356.227 Q109.183 356.806 111.707 356.806 Q116.105 356.806 118.396 355.069 Q120.711 353.333 120.711 350.023 Q120.711 346.968 118.558 345.255 Q116.429 343.519 112.609 343.519 L108.582 343.519 L108.582 339.676 L112.795 339.676 Q116.244 339.676 118.072 338.31 Q119.901 336.921 119.901 334.329 Q119.901 331.667 118.003 330.255 Q116.128 328.82 112.609 328.82 Q110.688 328.82 108.489 329.236 Q106.29 329.653 103.651 330.533 L103.651 326.366 Q106.313 325.625 108.628 325.255 Q110.966 324.884 113.026 324.884 Q118.35 324.884 121.452 327.315 Q124.554 329.722 124.554 333.843 Q124.554 336.713 122.91 338.704 Q121.267 340.671 118.234 341.435 Z" fill="#000000" fill-rule="evenodd" fill-opacity="1" /><path clip-path="url(#clip890)" d="M135.04 356.134 L142.679 356.134 L142.679 329.769 L134.368 331.435 L134.368 327.176 L142.632 325.509 L147.308 325.509 L147.308 356.134 L154.947 356.134 L154.947 360.069 L135.04 360.069 L135.04 356.134 Z" fill="#000000" fill-rule="evenodd" fill-opacity="1" /><path clip-path="url(#clip890)" d="M174.391 328.588 Q170.78 328.588 168.952 332.153 Q167.146 335.695 167.146 342.824 Q167.146 349.931 168.952 353.495 Q170.78 357.037 174.391 357.037 Q178.026 357.037 179.831 353.495 Q181.66 349.931 181.66 342.824 Q181.66 335.695 179.831 332.153 Q178.026 328.588 174.391 328.588 M174.391 324.884 Q180.202 324.884 183.257 329.491 Q186.336 334.074 186.336 342.824 Q186.336 351.551 183.257 356.157 Q180.202 360.741 174.391 360.741 Q168.581 360.741 165.503 356.157 Q162.447 351.551 162.447 342.824 Q162.447 334.074 165.503 329.491 Q168.581 324.884 174.391 324.884 Z" fill="#000000" fill-rule="evenodd" fill-opacity="1" /><path clip-path="url(#clip890)" d="M119.23 207.103 Q122.586 207.82 124.461 210.089 Q126.359 212.357 126.359 215.69 Q126.359 220.806 122.841 223.607 Q119.322 226.408 112.841 226.408 Q110.665 226.408 108.35 225.968 Q106.058 225.552 103.605 224.695 L103.605 220.181 Q105.549 221.315 107.864 221.894 Q110.179 222.473 112.702 222.473 Q117.1 222.473 119.392 220.737 Q121.707 219.001 121.707 215.69 Q121.707 212.635 119.554 210.922 Q117.424 209.186 113.605 209.186 L109.577 209.186 L109.577 205.343 L113.79 205.343 Q117.239 205.343 119.068 203.978 Q120.896 202.589 120.896 199.996 Q120.896 197.334 118.998 195.922 Q117.123 194.487 113.605 194.487 Q111.683 194.487 109.484 194.904 Q107.285 195.32 104.646 196.2 L104.646 192.033 Q107.308 191.292 109.623 190.922 Q111.961 190.552 114.021 190.552 Q119.345 190.552 122.447 192.982 Q125.549 195.39 125.549 199.51 Q125.549 202.38 123.906 204.371 Q122.262 206.339 119.23 207.103 Z" fill="#000000" fill-rule="evenodd" fill-opacity="1" /><path clip-path="url(#clip890)" d="M136.035 221.802 L143.674 221.802 L143.674 195.436 L135.364 197.103 L135.364 192.843 L143.628 191.177 L148.304 191.177 L148.304 221.802 L155.942 221.802 L155.942 225.737 L136.035 225.737 L136.035 221.802 Z" fill="#000000" fill-rule="evenodd" fill-opacity="1" /><path clip-path="url(#clip890)" d="M165.433 191.177 L183.79 191.177 L183.79 195.112 L169.716 195.112 L169.716 203.584 Q170.734 203.237 171.753 203.075 Q172.771 202.89 173.79 202.89 Q179.577 202.89 182.956 206.061 Q186.336 209.232 186.336 214.649 Q186.336 220.227 182.864 223.329 Q179.391 226.408 173.072 226.408 Q170.896 226.408 168.628 226.038 Q166.382 225.667 163.975 224.927 L163.975 220.227 Q166.058 221.362 168.28 221.917 Q170.503 222.473 172.979 222.473 Q176.984 222.473 179.322 220.366 Q181.66 218.26 181.66 214.649 Q181.66 211.038 179.322 208.931 Q176.984 206.825 172.979 206.825 Q171.104 206.825 169.229 207.241 Q167.378 207.658 165.433 208.538 L165.433 191.177 Z" fill="#000000" fill-rule="evenodd" fill-opacity="1" /><path clip-path="url(#clip890)" d="M9.63339 722.794 L9.63339 692.748 L15.0442 692.748 L15.0442 716.365 L29.1125 716.365 L29.1125 693.735 L34.5233 693.735 L34.5233 716.365 L51.7425 716.365 L51.7425 692.175 L57.1534 692.175 L57.1534 722.794 L9.63339 722.794 Z" fill="#000000" fill-rule="evenodd" fill-opacity="1" /><path clip-path="url(#clip890)" d="M21.5054 652.23 L38.852 665.121 L57.1534 651.562 L57.1534 658.469 L43.1488 668.845 L57.1534 679.221 L57.1534 686.128 L38.5019 672.282 L21.5054 684.95 L21.5054 678.043 L34.205 668.59 L21.5054 659.137 L21.5054 652.23 Z" fill="#000000" fill-rule="evenodd" fill-opacity="1" /><path clip-path="url(#clip890)" d="M51.8062 637.621 L70.7123 637.621 L70.7123 643.509 L21.5054 643.509 L21.5054 637.621 L26.9163 637.621 Q23.7334 635.775 22.2057 632.974 Q20.6461 630.141 20.6461 626.226 Q20.6461 619.733 25.8023 615.691 Q30.9585 611.617 39.3612 611.617 Q47.764 611.617 52.9202 615.691 Q58.0764 619.733 58.0764 626.226 Q58.0764 630.141 56.5486 632.974 Q54.989 635.775 51.8062 637.621 M39.3612 617.696 Q32.9 617.696 29.2398 620.37 Q25.5477 623.012 25.5477 627.658 Q25.5477 632.305 29.2398 634.979 Q32.9 637.621 39.3612 637.621 Q45.8224 637.621 49.5145 634.979 Q53.1748 632.305 53.1748 627.658 Q53.1748 623.012 49.5145 620.37 Q45.8224 617.696 39.3612 617.696 Z" fill="#000000" fill-rule="evenodd" fill-opacity="1" /><path clip-path="url(#clip890)" d="M37.8653 571.417 L40.7299 571.417 L40.7299 598.344 Q46.7773 597.962 49.9601 594.716 Q53.1112 591.438 53.1112 585.613 Q53.1112 582.239 52.2836 579.088 Q51.4561 575.905 49.801 572.786 L55.3392 572.786 Q56.676 575.937 57.3762 579.247 Q58.0764 582.557 58.0764 585.963 Q58.0764 594.493 53.1112 599.49 Q48.1459 604.455 39.6795 604.455 Q30.9267 604.455 25.8023 599.745 Q20.6461 595.002 20.6461 586.982 Q20.6461 579.788 25.293 575.619 Q29.9082 571.417 37.8653 571.417 M36.1466 577.274 Q31.3404 577.338 28.4759 579.979 Q25.6113 582.589 25.6113 586.918 Q25.6113 591.82 28.3804 594.78 Q31.1495 597.708 36.1784 598.153 L36.1466 577.274 Z" fill="#000000" fill-rule="evenodd" fill-opacity="1" /><path clip-path="url(#clip890)" d="M22.8741 536.151 L28.3486 536.151 Q26.9799 538.634 26.3115 541.149 Q25.6113 543.631 25.6113 546.177 Q25.6113 551.875 29.2398 555.026 Q32.8364 558.177 39.3612 558.177 Q45.8861 558.177 49.5145 555.026 Q53.1112 551.875 53.1112 546.177 Q53.1112 543.631 52.4428 541.149 Q51.7425 538.634 50.3739 536.151 L55.7848 536.151 Q56.9306 538.602 57.5035 541.244 Q58.0764 543.854 58.0764 546.814 Q58.0764 554.867 53.0157 559.609 Q47.9549 564.352 39.3612 564.352 Q30.6402 564.352 25.6431 559.577 Q20.6461 554.771 20.6461 546.432 Q20.6461 543.727 21.219 541.149 Q21.7601 538.57 22.8741 536.151 Z" fill="#000000" fill-rule="evenodd" fill-opacity="1" /><path clip-path="url(#clip890)" d="M11.384 520.174 L21.5054 520.174 L21.5054 508.111 L26.0569 508.111 L26.0569 520.174 L45.4087 520.174 Q49.7692 520.174 51.0105 518.996 Q52.2518 517.786 52.2518 514.126 L52.2518 508.111 L57.1534 508.111 L57.1534 514.126 Q57.1534 520.906 54.6389 523.484 Q52.0927 526.062 45.4087 526.062 L26.0569 526.062 L26.0569 530.359 L21.5054 530.359 L21.5054 526.062 L11.384 526.062 L11.384 520.174 Z" fill="#000000" fill-rule="evenodd" fill-opacity="1" /><path clip-path="url(#clip890)" d="M37.8653 469.916 L40.7299 469.916 L40.7299 496.843 Q46.7773 496.461 49.9601 493.215 Q53.1112 489.936 53.1112 484.112 Q53.1112 480.738 52.2836 477.587 Q51.4561 474.404 49.801 471.285 L55.3392 471.285 Q56.676 474.436 57.3762 477.746 Q58.0764 481.056 58.0764 484.462 Q58.0764 492.992 53.1112 497.989 Q48.1459 502.954 39.6795 502.954 Q30.9267 502.954 25.8023 498.244 Q20.6461 493.501 20.6461 485.48 Q20.6461 478.287 25.293 474.118 Q29.9082 469.916 37.8653 469.916 M36.1466 475.773 Q31.3404 475.836 28.4759 478.478 Q25.6113 481.088 25.6113 485.417 Q25.6113 490.318 28.3804 493.278 Q31.1495 496.207 36.1784 496.652 L36.1466 475.773 Z" fill="#000000" fill-rule="evenodd" fill-opacity="1" /><path clip-path="url(#clip890)" d="M26.9163 436.846 L7.62819 436.846 L7.62819 430.99 L57.1534 430.99 L57.1534 436.846 L51.8062 436.846 Q54.989 438.692 56.5486 441.525 Q58.0764 444.326 58.0764 448.273 Q58.0764 454.734 52.9202 458.808 Q47.764 462.85 39.3612 462.85 Q30.9585 462.85 25.8023 458.808 Q20.6461 454.734 20.6461 448.273 Q20.6461 444.326 22.2057 441.525 Q23.7334 438.692 26.9163 436.846 M39.3612 456.803 Q45.8224 456.803 49.5145 454.161 Q53.1748 451.488 53.1748 446.841 Q53.1748 442.194 49.5145 439.52 Q45.8224 436.846 39.3612 436.846 Q32.9 436.846 29.2398 439.52 Q25.5477 442.194 25.5477 446.841 Q25.5477 451.488 29.2398 454.161 Q32.9 456.803 39.3612 456.803 Z" fill="#000000" fill-rule="evenodd" fill-opacity="1" /><path clip-path="url(#clip890)" d="M14.9169 391.523 L32.7727 391.523 L32.7727 383.438 Q32.7727 378.95 30.4492 376.5 Q28.1258 374.049 23.8289 374.049 Q19.5639 374.049 17.2404 376.5 Q14.9169 378.95 14.9169 383.438 L14.9169 391.523 M9.63339 397.952 L9.63339 383.438 Q9.63339 375.449 13.2618 371.375 Q16.8585 367.269 23.8289 367.269 Q30.863 367.269 34.4596 371.375 Q38.0563 375.449 38.0563 383.438 L38.0563 391.523 L57.1534 391.523 L57.1534 397.952 L9.63339 397.952 Z" fill="#000000" fill-rule="evenodd" fill-opacity="1" /><path clip-path="url(#clip890)" d="M26.9799 339.387 Q26.407 340.374 26.1524 341.552 Q25.8659 342.698 25.8659 344.098 Q25.8659 349.063 29.1125 351.737 Q32.3271 354.379 38.3746 354.379 L57.1534 354.379 L57.1534 360.267 L21.5054 360.267 L21.5054 354.379 L27.0436 354.379 Q23.7971 352.533 22.2375 349.573 Q20.6461 346.613 20.6461 342.379 Q20.6461 341.775 20.7415 341.043 Q20.8052 340.31 20.9643 339.419 L26.9799 339.387 Z" fill="#000000" fill-rule="evenodd" fill-opacity="1" /><path clip-path="url(#clip890)" d="M25.6113 320.863 Q25.6113 325.574 29.3034 328.311 Q32.9637 331.048 39.3612 331.048 Q45.7588 331.048 49.4509 328.343 Q53.1112 325.606 53.1112 320.863 Q53.1112 316.184 49.4191 313.447 Q45.7269 310.71 39.3612 310.71 Q33.0274 310.71 29.3353 313.447 Q25.6113 316.184 25.6113 320.863 M20.6461 320.863 Q20.6461 313.224 25.6113 308.864 Q30.5766 304.503 39.3612 304.503 Q48.1141 304.503 53.1112 308.864 Q58.0764 313.224 58.0764 320.863 Q58.0764 328.534 53.1112 332.894 Q48.1141 337.223 39.3612 337.223 Q30.5766 337.223 25.6113 332.894 Q20.6461 328.534 20.6461 320.863 Z" fill="#000000" fill-rule="evenodd" fill-opacity="1" /><path clip-path="url(#clip890)" d="M7.62819 276.749 L12.498 276.749 L12.498 282.351 Q12.498 285.502 13.7711 286.743 Q15.0442 287.953 18.3544 287.953 L21.5054 287.953 L21.5054 278.309 L26.0569 278.309 L26.0569 287.953 L57.1534 287.953 L57.1534 293.841 L26.0569 293.841 L26.0569 299.443 L21.5054 299.443 L21.5054 293.841 L19.0228 293.841 Q13.0709 293.841 10.3654 291.072 Q7.62819 288.303 7.62819 282.287 L7.62819 276.749 Z" fill="#000000" fill-rule="evenodd" fill-opacity="1" /><path clip-path="url(#clip890)" d="M21.5054 271.847 L21.5054 265.991 L57.1534 265.991 L57.1534 271.847 L21.5054 271.847 M7.62819 271.847 L7.62819 265.991 L15.0442 265.991 L15.0442 271.847 L7.62819 271.847 Z" fill="#000000" fill-rule="evenodd" fill-opacity="1" /><path clip-path="url(#clip890)" d="M11.384 247.944 L21.5054 247.944 L21.5054 235.881 L26.0569 235.881 L26.0569 247.944 L45.4087 247.944 Q49.7692 247.944 51.0105 246.766 Q52.2518 245.557 52.2518 241.897 L52.2518 235.881 L57.1534 235.881 L57.1534 241.897 Q57.1534 248.676 54.6389 251.254 Q52.0927 253.832 45.4087 253.832 L26.0569 253.832 L26.0569 258.129 L21.5054 258.129 L21.5054 253.832 L11.384 253.832 L11.384 247.944 Z" fill="#000000" fill-rule="evenodd" fill-opacity="1" /><path clip-path="url(#clip890)" d="M218.31 44.2197 Q220.944 45.1109 223.415 48.0275 Q225.926 50.9442 228.438 56.0483 L236.742 72.576 L227.952 72.576 L220.214 57.061 Q217.217 50.9847 214.381 48.9997 Q211.586 47.0148 206.725 47.0148 L197.813 47.0148 L197.813 72.576 L189.63 72.576 L189.63 12.096 L208.102 12.096 Q218.472 12.096 223.577 16.4305 Q228.681 20.7649 228.681 29.5149 Q228.681 35.2267 226.007 38.994 Q223.374 42.7613 218.31 44.2197 M197.813 18.8205 L197.813 40.2903 L208.102 40.2903 Q214.016 40.2903 217.014 37.5762 Q220.052 34.8216 220.052 29.5149 Q220.052 24.2082 217.014 21.5346 Q214.016 18.8205 208.102 18.8205 L197.813 18.8205 Z" fill="#000000" fill-rule="evenodd" fill-opacity="1" /><path clip-path="url(#clip890)" d="M260.804 32.4315 Q254.809 32.4315 251.325 37.1306 Q247.842 41.7891 247.842 49.9314 Q247.842 58.0738 251.285 62.7728 Q254.769 67.4314 260.804 67.4314 Q266.759 67.4314 270.243 62.7323 Q273.727 58.0333 273.727 49.9314 Q273.727 41.8701 270.243 37.1711 Q266.759 32.4315 260.804 32.4315 M260.804 26.1121 Q270.527 26.1121 276.076 32.4315 Q281.626 38.7509 281.626 49.9314 Q281.626 61.0714 276.076 67.4314 Q270.527 73.7508 260.804 73.7508 Q251.042 73.7508 245.492 67.4314 Q239.983 61.0714 239.983 49.9314 Q239.983 38.7509 245.492 32.4315 Q251.042 26.1121 260.804 26.1121 Z" fill="#000000" fill-rule="evenodd" fill-opacity="1" /><path clip-path="url(#clip890)" d="M326.551 49.9314 Q326.551 41.7081 323.148 37.0496 Q319.786 32.3505 313.871 32.3505 Q307.957 32.3505 304.554 37.0496 Q301.192 41.7081 301.192 49.9314 Q301.192 58.1548 304.554 62.8538 Q307.957 67.5124 313.871 67.5124 Q319.786 67.5124 323.148 62.8538 Q326.551 58.1548 326.551 49.9314 M301.192 34.0924 Q303.541 30.0415 307.106 28.0971 Q310.712 26.1121 315.694 26.1121 Q323.958 26.1121 329.103 32.6746 Q334.288 39.2371 334.288 49.9314 Q334.288 60.6258 329.103 67.1883 Q323.958 73.7508 315.694 73.7508 Q310.712 73.7508 307.106 71.8063 Q303.541 69.8214 301.192 65.7705 L301.192 72.576 L293.698 72.576 L293.698 9.54393 L301.192 9.54393 L301.192 34.0924 Z" fill="#000000" fill-rule="evenodd" fill-opacity="1" /><path clip-path="url(#clip890)" d="M345.873 54.671 L345.873 27.2059 L353.327 27.2059 L353.327 54.3874 Q353.327 60.8284 355.839 64.0691 Q358.35 67.2693 363.373 67.2693 Q369.409 67.2693 372.893 63.421 Q376.417 59.5726 376.417 52.9291 L376.417 27.2059 L383.871 27.2059 L383.871 72.576 L376.417 72.576 L376.417 65.6084 Q373.703 69.7404 370.098 71.7658 Q366.533 73.7508 361.793 73.7508 Q353.975 73.7508 349.924 68.8897 Q345.873 64.0286 345.873 54.671 M364.629 26.1121 L364.629 26.1121 Z" fill="#000000" fill-rule="evenodd" fill-opacity="1" /><path clip-path="url(#clip890)" d="M428.147 28.5427 L428.147 35.5912 Q424.988 33.9709 421.585 33.1607 Q418.182 32.3505 414.536 32.3505 Q408.986 32.3505 406.191 34.0519 Q403.437 35.7533 403.437 39.156 Q403.437 41.7486 405.422 43.2475 Q407.407 44.7058 413.402 46.0426 L415.954 46.6097 Q423.894 48.3111 427.216 51.4303 Q430.578 54.509 430.578 60.0587 Q430.578 66.3781 425.555 70.0644 Q420.572 73.7508 411.822 73.7508 Q408.176 73.7508 404.206 73.0216 Q400.277 72.3329 395.902 70.9151 L395.902 63.2184 Q400.034 65.3654 404.044 66.4591 Q408.055 67.5124 411.984 67.5124 Q417.25 67.5124 420.086 65.73 Q422.922 63.9071 422.922 60.6258 Q422.922 57.5877 420.856 55.9673 Q418.83 54.3469 411.903 52.8481 L409.311 52.2405 Q402.384 50.7821 399.305 47.7845 Q396.226 44.7463 396.226 39.4801 Q396.226 33.0797 400.763 29.5959 Q405.3 26.1121 413.645 26.1121 Q417.777 26.1121 421.423 26.7198 Q425.069 27.3274 428.147 28.5427 Z" fill="#000000" fill-rule="evenodd" fill-opacity="1" /><path clip-path="url(#clip890)" d="M449.82 14.324 L449.82 27.2059 L465.173 27.2059 L465.173 32.9987 L449.82 32.9987 L449.82 57.6282 Q449.82 63.1779 451.318 64.7578 Q452.858 66.3376 457.516 66.3376 L465.173 66.3376 L465.173 72.576 L457.516 72.576 Q448.888 72.576 445.607 69.3758 Q442.325 66.1351 442.325 57.6282 L442.325 32.9987 L436.857 32.9987 L436.857 27.2059 L442.325 27.2059 L442.325 14.324 L449.82 14.324 Z" fill="#000000" fill-rule="evenodd" fill-opacity="1" /><path clip-path="url(#clip890)" d="M526.22 17.6457 Q517.308 17.6457 512.041 24.2892 Q506.816 30.9327 506.816 42.3968 Q506.816 53.8203 512.041 60.4638 Q517.308 67.1073 526.22 67.1073 Q535.132 67.1073 540.317 60.4638 Q545.542 53.8203 545.542 42.3968 Q545.542 30.9327 540.317 24.2892 Q535.132 17.6457 526.22 17.6457 M526.22 11.0023 Q538.939 11.0023 546.555 19.5497 Q554.171 28.0566 554.171 42.3968 Q554.171 56.6965 546.555 65.2439 Q538.939 73.7508 526.22 73.7508 Q513.459 73.7508 505.803 65.2439 Q498.187 56.737 498.187 42.3968 Q498.187 28.0566 505.803 19.5497 Q513.459 11.0023 526.22 11.0023 Z" fill="#000000" fill-rule="evenodd" fill-opacity="1" /><path clip-path="url(#clip890)" d="M573.858 65.7705 L573.858 89.8329 L566.364 89.8329 L566.364 27.2059 L573.858 27.2059 L573.858 34.0924 Q576.208 30.0415 579.773 28.0971 Q583.378 26.1121 588.361 26.1121 Q596.624 26.1121 601.769 32.6746 Q606.954 39.2371 606.954 49.9314 Q606.954 60.6258 601.769 67.1883 Q596.624 73.7508 588.361 73.7508 Q583.378 73.7508 579.773 71.8063 Q576.208 69.8214 573.858 65.7705 M599.217 49.9314 Q599.217 41.7081 595.814 37.0496 Q592.452 32.3505 586.538 32.3505 Q580.623 32.3505 577.221 37.0496 Q573.858 41.7081 573.858 49.9314 Q573.858 58.1548 577.221 62.8538 Q580.623 67.5124 586.538 67.5124 Q592.452 67.5124 595.814 62.8538 Q599.217 58.1548 599.217 49.9314 Z" fill="#000000" fill-rule="evenodd" fill-opacity="1" /><path clip-path="url(#clip890)" d="M626.682 14.324 L626.682 27.2059 L642.035 27.2059 L642.035 32.9987 L626.682 32.9987 L626.682 57.6282 Q626.682 63.1779 628.181 64.7578 Q629.72 66.3376 634.379 66.3376 L642.035 66.3376 L642.035 72.576 L634.379 72.576 Q625.75 72.576 622.469 69.3758 Q619.188 66.1351 619.188 57.6282 L619.188 32.9987 L613.719 32.9987 L613.719 27.2059 L619.188 27.2059 L619.188 14.324 L626.682 14.324 Z" fill="#000000" fill-rule="evenodd" fill-opacity="1" /><path clip-path="url(#clip890)" d="M651.838 27.2059 L659.292 27.2059 L659.292 72.576 L651.838 72.576 L651.838 27.2059 M651.838 9.54393 L659.292 9.54393 L659.292 18.9825 L651.838 18.9825 L651.838 9.54393 Z" fill="#000000" fill-rule="evenodd" fill-opacity="1" /><path clip-path="url(#clip890)" d="M710.212 35.9153 Q713.007 30.8922 716.896 28.5022 Q720.785 26.1121 726.051 26.1121 Q733.14 26.1121 736.988 31.0947 Q740.837 36.0368 740.837 45.1919 L740.837 72.576 L733.342 72.576 L733.342 45.4349 Q733.342 38.913 731.033 35.7533 Q728.724 32.5936 723.985 32.5936 Q718.192 32.5936 714.83 36.4419 Q711.468 40.2903 711.468 46.9338 L711.468 72.576 L703.973 72.576 L703.973 45.4349 Q703.973 38.8725 701.664 35.7533 Q699.355 32.5936 694.535 32.5936 Q688.823 32.5936 685.461 36.4824 Q682.098 40.3308 682.098 46.9338 L682.098 72.576 L674.604 72.576 L674.604 27.2059 L682.098 27.2059 L682.098 34.2544 Q684.651 30.082 688.215 28.0971 Q691.78 26.1121 696.682 26.1121 Q701.624 26.1121 705.067 28.6237 Q708.551 31.1352 710.212 35.9153 Z" fill="#000000" fill-rule="evenodd" fill-opacity="1" /><path clip-path="url(#clip890)" d="M754.934 54.671 L754.934 27.2059 L762.387 27.2059 L762.387 54.3874 Q762.387 60.8284 764.899 64.0691 Q767.41 67.2693 772.434 67.2693 Q778.469 67.2693 781.953 63.421 Q785.478 59.5726 785.478 52.9291 L785.478 27.2059 L792.931 27.2059 L792.931 72.576 L785.478 72.576 L785.478 65.6084 Q782.763 69.7404 779.158 71.7658 Q775.593 73.7508 770.854 73.7508 Q763.036 73.7508 758.985 68.8897 Q754.934 64.0286 754.934 54.671 M773.689 26.1121 L773.689 26.1121 Z" fill="#000000" fill-rule="evenodd" fill-opacity="1" /><path clip-path="url(#clip890)" d="M843.608 35.9153 Q846.403 30.8922 850.292 28.5022 Q854.181 26.1121 859.447 26.1121 Q866.536 26.1121 870.384 31.0947 Q874.233 36.0368 874.233 45.1919 L874.233 72.576 L866.739 72.576 L866.739 45.4349 Q866.739 38.913 864.43 35.7533 Q862.121 32.5936 857.381 32.5936 Q851.588 32.5936 848.226 36.4419 Q844.864 40.2903 844.864 46.9338 L844.864 72.576 L837.37 72.576 L837.37 45.4349 Q837.37 38.8725 835.061 35.7533 Q832.752 32.5936 827.931 32.5936 Q822.219 32.5936 818.857 36.4824 Q815.495 40.3308 815.495 46.9338 L815.495 72.576 L808.001 72.576 L808.001 27.2059 L815.495 27.2059 L815.495 34.2544 Q818.047 30.082 821.612 28.0971 Q825.176 26.1121 830.078 26.1121 Q835.02 26.1121 838.463 28.6237 Q841.947 31.1352 843.608 35.9153 Z" fill="#000000" fill-rule="evenodd" fill-opacity="1" /><path clip-path="url(#clip890)" d="M891.004 62.2867 L899.551 62.2867 L899.551 72.576 L891.004 72.576 L891.004 62.2867 M891.004 29.6769 L899.551 29.6769 L899.551 39.9662 L891.004 39.9662 L891.004 29.6769 Z" fill="#000000" fill-rule="evenodd" fill-opacity="1" /><path clip-path="url(#clip890)" d="M980.002 14.0809 L980.002 22.0612 Q975.343 19.8332 971.211 18.7395 Q967.08 17.6457 963.231 17.6457 Q956.547 17.6457 952.901 20.2383 Q949.296 22.8309 949.296 27.611 Q949.296 31.6214 951.686 33.6873 Q954.117 35.7128 960.841 36.9686 L965.783 37.9813 Q974.938 39.7232 979.273 44.1387 Q983.648 48.5136 983.648 55.8863 Q983.648 64.6767 977.733 69.2137 Q971.86 73.7508 960.477 73.7508 Q956.183 73.7508 951.322 72.7785 Q946.501 71.8063 941.316 69.9024 L941.316 61.4765 Q946.298 64.2716 951.078 65.6895 Q955.859 67.1073 960.477 67.1073 Q967.485 67.1073 971.293 64.3527 Q975.1 61.598 975.1 56.4939 Q975.1 52.0379 972.346 49.5264 Q969.632 47.0148 963.393 45.759 L958.411 44.7868 Q949.256 42.9639 945.164 39.075 Q941.073 35.1862 941.073 28.2591 Q941.073 20.2383 946.704 15.6203 Q952.375 11.0023 962.299 11.0023 Q966.553 11.0023 970.968 11.7719 Q975.384 12.5416 980.002 14.0809 Z" fill="#000000" fill-rule="evenodd" fill-opacity="1" /><path clip-path="url(#clip890)" d="M996.084 27.2059 L1003.54 27.2059 L1003.54 72.576 L996.084 72.576 L996.084 27.2059 M996.084 9.54393 L1003.54 9.54393 L1003.54 18.9825 L996.084 18.9825 L996.084 9.54393 Z" fill="#000000" fill-rule="evenodd" fill-opacity="1" /><path clip-path="url(#clip890)" d="M1054.46 35.9153 Q1057.25 30.8922 1061.14 28.5022 Q1065.03 26.1121 1070.3 26.1121 Q1077.39 26.1121 1081.23 31.0947 Q1085.08 36.0368 1085.08 45.1919 L1085.08 72.576 L1077.59 72.576 L1077.59 45.4349 Q1077.59 38.913 1075.28 35.7533 Q1072.97 32.5936 1068.23 32.5936 Q1062.44 32.5936 1059.08 36.4419 Q1055.71 40.2903 1055.71 46.9338 L1055.71 72.576 L1048.22 72.576 L1048.22 45.4349 Q1048.22 38.8725 1045.91 35.7533 Q1043.6 32.5936 1038.78 32.5936 Q1033.07 32.5936 1029.71 36.4824 Q1026.34 40.3308 1026.34 46.9338 L1026.34 72.576 L1018.85 72.576 L1018.85 27.2059 L1026.34 27.2059 L1026.34 34.2544 Q1028.9 30.082 1032.46 28.0971 Q1036.03 26.1121 1040.93 26.1121 Q1045.87 26.1121 1049.31 28.6237 Q1052.8 31.1352 1054.46 35.9153 Z" fill="#000000" fill-rule="evenodd" fill-opacity="1" /><path clip-path="url(#clip890)" d="M1099.95 27.2059 L1107.4 27.2059 L1107.4 72.576 L1099.95 72.576 L1099.95 27.2059 M1099.95 9.54393 L1107.4 9.54393 L1107.4 18.9825 L1099.95 18.9825 L1099.95 9.54393 Z" fill="#000000" fill-rule="evenodd" fill-opacity="1" /><path clip-path="url(#clip890)" d="M1123 9.54393 L1130.45 9.54393 L1130.45 72.576 L1123 72.576 L1123 9.54393 Z" fill="#000000" fill-rule="evenodd" fill-opacity="1" /><path clip-path="url(#clip890)" d="M1166.67 49.7694 Q1157.63 49.7694 1154.15 51.8354 Q1150.67 53.9013 1150.67 58.8839 Q1150.67 62.8538 1153.26 65.2034 Q1155.89 67.5124 1160.39 67.5124 Q1166.59 67.5124 1170.31 63.1374 Q1174.08 58.7219 1174.08 51.4303 L1174.08 49.7694 L1166.67 49.7694 M1181.53 46.6907 L1181.53 72.576 L1174.08 72.576 L1174.08 65.6895 Q1171.53 69.8214 1167.72 71.8063 Q1163.91 73.7508 1158.4 73.7508 Q1151.44 73.7508 1147.3 69.8619 Q1143.21 65.9325 1143.21 59.3701 Q1143.21 51.7138 1148.32 47.825 Q1153.46 43.9361 1163.63 43.9361 L1174.08 43.9361 L1174.08 43.2069 Q1174.08 38.0623 1170.68 35.2672 Q1167.32 32.4315 1161.2 32.4315 Q1157.31 32.4315 1153.62 33.3632 Q1149.94 34.295 1146.53 36.1584 L1146.53 29.2718 Q1150.63 27.692 1154.47 26.9223 Q1158.32 26.1121 1161.97 26.1121 Q1171.81 26.1121 1176.67 31.2163 Q1181.53 36.3204 1181.53 46.6907 Z" fill="#000000" fill-rule="evenodd" fill-opacity="1" /><path clip-path="url(#clip890)" d="M1223.18 34.1734 Q1221.92 33.4443 1220.42 33.1202 Q1218.96 32.7556 1217.18 32.7556 Q1210.86 32.7556 1207.46 36.8875 Q1204.1 40.9789 1204.1 48.6757 L1204.1 72.576 L1196.6 72.576 L1196.6 27.2059 L1204.1 27.2059 L1204.1 34.2544 Q1206.45 30.1225 1210.21 28.1376 Q1213.98 26.1121 1219.37 26.1121 Q1220.14 26.1121 1221.07 26.2337 Q1222 26.3147 1223.14 26.5172 L1223.18 34.1734 Z" fill="#000000" fill-rule="evenodd" fill-opacity="1" /><path clip-path="url(#clip890)" d="M1265.87 18.8205 L1265.87 41.5461 L1276.16 41.5461 Q1281.88 41.5461 1284.99 38.5889 Q1288.11 35.6318 1288.11 30.163 Q1288.11 24.7348 1284.99 21.7777 Q1281.88 18.8205 1276.16 18.8205 L1265.87 18.8205 M1257.69 12.096 L1276.16 12.096 Q1286.33 12.096 1291.52 16.714 Q1296.74 21.2916 1296.74 30.163 Q1296.74 39.1155 1291.52 43.6931 Q1286.33 48.2706 1276.16 48.2706 L1265.87 48.2706 L1265.87 72.576 L1257.69 72.576 L1257.69 12.096 Z" fill="#000000" fill-rule="evenodd" fill-opacity="1" /><path clip-path="url(#clip890)" d="M1332.23 34.1734 Q1330.97 33.4443 1329.47 33.1202 Q1328.02 32.7556 1326.23 32.7556 Q1319.91 32.7556 1316.51 36.8875 Q1313.15 40.9789 1313.15 48.6757 L1313.15 72.576 L1305.65 72.576 L1305.65 27.2059 L1313.15 27.2059 L1313.15 34.2544 Q1315.5 30.1225 1319.27 28.1376 Q1323.03 26.1121 1328.42 26.1121 Q1329.19 26.1121 1330.12 26.2337 Q1331.05 26.3147 1332.19 26.5172 L1332.23 34.1734 Z" fill="#000000" fill-rule="evenodd" fill-opacity="1" /><path clip-path="url(#clip890)" d="M1355.8 32.4315 Q1349.81 32.4315 1346.33 37.1306 Q1342.84 41.7891 1342.84 49.9314 Q1342.84 58.0738 1346.28 62.7728 Q1349.77 67.4314 1355.8 67.4314 Q1361.76 67.4314 1365.24 62.7323 Q1368.73 58.0333 1368.73 49.9314 Q1368.73 41.8701 1365.24 37.1711 Q1361.76 32.4315 1355.8 32.4315 M1355.8 26.1121 Q1365.53 26.1121 1371.08 32.4315 Q1376.63 38.7509 1376.63 49.9314 Q1376.63 61.0714 1371.08 67.4314 Q1365.53 73.7508 1355.8 73.7508 Q1346.04 73.7508 1340.49 67.4314 Q1334.98 61.0714 1334.98 49.9314 Q1334.98 38.7509 1340.49 32.4315 Q1346.04 26.1121 1355.8 26.1121 Z" fill="#000000" fill-rule="evenodd" fill-opacity="1" /><path clip-path="url(#clip890)" d="M1411.95 9.54393 L1411.95 15.7418 L1404.82 15.7418 Q1400.81 15.7418 1399.23 17.3622 Q1397.69 18.9825 1397.69 23.1955 L1397.69 27.2059 L1409.96 27.2059 L1409.96 32.9987 L1397.69 32.9987 L1397.69 72.576 L1390.2 72.576 L1390.2 32.9987 L1383.07 32.9987 L1383.07 27.2059 L1390.2 27.2059 L1390.2 24.0462 Q1390.2 16.471 1393.72 13.0277 Q1397.25 9.54393 1404.9 9.54393 L1411.95 9.54393 Z" fill="#000000" fill-rule="evenodd" fill-opacity="1" /><path clip-path="url(#clip890)" d="M1418.19 27.2059 L1425.64 27.2059 L1425.64 72.576 L1418.19 72.576 L1418.19 27.2059 M1418.19 9.54393 L1425.64 9.54393 L1425.64 18.9825 L1418.19 18.9825 L1418.19 9.54393 Z" fill="#000000" fill-rule="evenodd" fill-opacity="1" /><path clip-path="url(#clip890)" d="M1448.61 14.324 L1448.61 27.2059 L1463.96 27.2059 L1463.96 32.9987 L1448.61 32.9987 L1448.61 57.6282 Q1448.61 63.1779 1450.11 64.7578 Q1451.65 66.3376 1456.31 66.3376 L1463.96 66.3376 L1463.96 72.576 L1456.31 72.576 Q1447.68 72.576 1444.4 69.3758 Q1441.12 66.1351 1441.12 57.6282 L1441.12 32.9987 L1435.65 32.9987 L1435.65 27.2059 L1441.12 27.2059 L1441.12 14.324 L1448.61 14.324 Z" fill="#000000" fill-rule="evenodd" fill-opacity="1" /><path clip-path="url(#clip890)" d="M1502.69 28.5427 L1502.69 35.5912 Q1499.53 33.9709 1496.13 33.1607 Q1492.72 32.3505 1489.08 32.3505 Q1483.53 32.3505 1480.73 34.0519 Q1477.98 35.7533 1477.98 39.156 Q1477.98 41.7486 1479.96 43.2475 Q1481.95 44.7058 1487.94 46.0426 L1490.5 46.6097 Q1498.44 48.3111 1501.76 51.4303 Q1505.12 54.509 1505.12 60.0587 Q1505.12 66.3781 1500.1 70.0644 Q1495.11 73.7508 1486.36 73.7508 Q1482.72 73.7508 1478.75 73.0216 Q1474.82 72.3329 1470.44 70.9151 L1470.44 63.2184 Q1474.58 65.3654 1478.59 66.4591 Q1482.6 67.5124 1486.53 67.5124 Q1491.79 67.5124 1494.63 65.73 Q1497.46 63.9071 1497.46 60.6258 Q1497.46 57.5877 1495.4 55.9673 Q1493.37 54.3469 1486.45 52.8481 L1483.85 52.2405 Q1476.93 50.7821 1473.85 47.7845 Q1470.77 44.7463 1470.77 39.4801 Q1470.77 33.0797 1475.31 29.5959 Q1479.84 26.1121 1488.19 26.1121 Q1492.32 26.1121 1495.97 26.7198 Q1499.61 27.3274 1502.69 28.5427 Z" fill="#000000" fill-rule="evenodd" fill-opacity="1" /><path clip-path="url(#clip890)" d="M1568.23 17.6457 Q1559.32 17.6457 1554.06 24.2892 Q1548.83 30.9327 1548.83 42.3968 Q1548.83 53.8203 1554.06 60.4638 Q1559.32 67.1073 1568.23 67.1073 Q1577.15 67.1073 1582.33 60.4638 Q1587.56 53.8203 1587.56 42.3968 Q1587.56 30.9327 1582.33 24.2892 Q1577.15 17.6457 1568.23 17.6457 M1579.7 71.4823 L1590.47 83.2704 L1580.59 83.2704 L1571.64 73.5887 Q1570.3 73.6697 1569.57 73.7103 Q1568.88 73.7508 1568.23 73.7508 Q1555.47 73.7508 1547.82 65.2439 Q1540.2 56.6965 1540.2 42.3968 Q1540.2 28.0566 1547.82 19.5497 Q1555.47 11.0023 1568.23 11.0023 Q1580.95 11.0023 1588.57 19.5497 Q1596.18 28.0566 1596.18 42.3968 Q1596.18 52.9291 1591.93 60.4233 Q1587.72 67.9175 1579.7 71.4823 Z" fill="#000000" fill-rule="evenodd" fill-opacity="1" /><path clip-path="url(#clip890)" d="M1609.63 34.9026 L1661.57 34.9026 L1661.57 41.7081 L1609.63 41.7081 L1609.63 34.9026 M1609.63 51.4303 L1661.57 51.4303 L1661.57 58.3168 L1609.63 58.3168 L1609.63 51.4303 Z" fill="#000000" fill-rule="evenodd" fill-opacity="1" /><path clip-path="url(#clip890)" d="M1680.65 65.6895 L1694.01 65.6895 L1694.01 19.5497 L1679.47 22.4663 L1679.47 15.0127 L1693.93 12.096 L1702.12 12.096 L1702.12 65.6895 L1715.48 65.6895 L1715.48 72.576 L1680.65 72.576 L1680.65 65.6895 Z" fill="#000000" fill-rule="evenodd" fill-opacity="1" /><path clip-path="url(#clip890)" d="M1733.43 65.6895 L1746.8 65.6895 L1746.8 19.5497 L1732.25 22.4663 L1732.25 15.0127 L1746.72 12.096 L1754.9 12.096 L1754.9 65.6895 L1768.27 65.6895 L1768.27 72.576 L1733.43 72.576 L1733.43 65.6895 Z" fill="#000000" fill-rule="evenodd" fill-opacity="1" /><path clip-path="url(#clip890)" d="M1802.29 17.4837 Q1795.98 17.4837 1792.78 23.7221 Q1789.62 29.92 1789.62 42.3968 Q1789.62 54.833 1792.78 61.0714 Q1795.98 67.2693 1802.29 67.2693 Q1808.65 67.2693 1811.81 61.0714 Q1815.01 54.833 1815.01 42.3968 Q1815.01 29.92 1811.81 23.7221 Q1808.65 17.4837 1802.29 17.4837 M1802.29 11.0023 Q1812.46 11.0023 1817.81 19.0636 Q1823.2 27.0843 1823.2 42.3968 Q1823.2 57.6687 1817.81 65.73 Q1812.46 73.7508 1802.29 73.7508 Q1792.13 73.7508 1786.74 65.73 Q1781.39 57.6687 1781.39 42.3968 Q1781.39 27.0843 1786.74 19.0636 Q1792.13 11.0023 1802.29 11.0023 Z" fill="#000000" fill-rule="evenodd" fill-opacity="1" /><path clip-path="url(#clip890)" d="M1837.58 62.2867 L1846.13 62.2867 L1846.13 72.576 L1837.58 72.576 L1837.58 62.2867 Z" fill="#000000" fill-rule="evenodd" fill-opacity="1" /><path clip-path="url(#clip890)" d="M1863.95 62.2867 L1872.5 62.2867 L1872.5 72.576 L1863.95 72.576 L1863.95 62.2867 Z" fill="#000000" fill-rule="evenodd" fill-opacity="1" /><path clip-path="url(#clip890)" d="M1890.32 62.2867 L1898.87 62.2867 L1898.87 72.576 L1890.32 72.576 L1890.32 62.2867 Z" fill="#000000" fill-rule="evenodd" fill-opacity="1" /><path clip-path="url(#clip890)" d="M1918.11 65.6895 L1931.48 65.6895 L1931.48 19.5497 L1916.94 22.4663 L1916.94 15.0127 L1931.4 12.096 L1939.58 12.096 L1939.58 65.6895 L1952.95 65.6895 L1952.95 72.576 L1918.11 72.576 L1918.11 65.6895 Z" fill="#000000" fill-rule="evenodd" fill-opacity="1" /><path clip-path="url(#clip890)" d="M1976.52 65.6895 L2005.08 65.6895 L2005.08 72.576 L1966.68 72.576 L1966.68 65.6895 Q1971.34 60.8689 1979.36 52.7671 Q1987.42 44.6248 1989.49 42.2752 Q1993.42 37.8598 1994.96 34.8216 Q1996.54 31.7429 1996.54 28.7857 Q1996.54 23.9651 1993.13 20.927 Q1989.77 17.8888 1984.34 17.8888 Q1980.49 17.8888 1976.2 19.2256 Q1971.95 20.5624 1967.09 23.2765 L1967.09 15.0127 Q1972.03 13.0277 1976.32 12.015 Q1980.62 11.0023 1984.18 11.0023 Q1993.58 11.0023 1999.17 15.7013 Q2004.76 20.4004 2004.76 28.2591 Q2004.76 31.9859 2003.34 35.3482 Q2001.96 38.6699 1998.28 43.2069 Q1997.27 44.3817 1991.84 50.0125 Q1986.41 55.6027 1976.52 65.6895 Z" fill="#000000" fill-rule="evenodd" fill-opacity="1" /><path clip-path="url(#clip890)" d="M2039.76 17.4837 Q2033.44 17.4837 2030.24 23.7221 Q2027.08 29.92 2027.08 42.3968 Q2027.08 54.833 2030.24 61.0714 Q2033.44 67.2693 2039.76 67.2693 Q2046.12 67.2693 2049.28 61.0714 Q2052.48 54.833 2052.48 42.3968 Q2052.48 29.92 2049.28 23.7221 Q2046.12 17.4837 2039.76 17.4837 M2039.76 11.0023 Q2049.93 11.0023 2055.27 19.0636 Q2060.66 27.0843 2060.66 42.3968 Q2060.66 57.6687 2055.27 65.73 Q2049.93 73.7508 2039.76 73.7508 Q2029.59 73.7508 2024.2 65.73 Q2018.86 57.6687 2018.86 42.3968 Q2018.86 27.0843 2024.2 19.0636 Q2029.59 11.0023 2039.76 11.0023 Z" fill="#000000" fill-rule="evenodd" fill-opacity="1" /><polyline clip-path="url(#clip892)" style="stroke:#009af9; stroke-linecap:round; stroke-linejoin:round; stroke-width:16; stroke-opacity:1; fill:none" points="
  268.91,830.97 286.208,801.481 303.505,772.642 320.803,744.453 338.101,716.917 355.398,690.035 372.696,663.807 389.994,638.235 407.292,613.319 424.589,589.059 
  441.887,565.455 459.185,542.506 476.482,520.213 493.78,498.574 511.078,477.588 528.375,457.254 545.673,437.57 562.971,418.534 580.268,400.144 597.566,382.398 
  614.864,365.292 632.162,348.824 649.459,332.991 666.757,317.79 684.055,303.216 701.352,289.265 718.65,275.935 735.948,263.219 753.245,251.114 770.543,239.616 
  787.841,228.718 805.138,218.416 822.436,208.704 839.734,199.577 857.032,191.029 874.329,183.054 891.627,175.646 908.925,168.799 926.222,162.506 943.52,156.761 
  960.818,151.557 978.115,146.887 995.413,142.745 1012.71,139.122 1030.01,136.012 1047.31,133.408 1064.6,131.301 1081.9,129.686 1099.2,128.553 1116.5,127.895 
  1133.79,127.705 1151.09,127.975 1168.39,128.697 1185.69,129.863 1202.99,131.465 1220.28,133.494 1237.58,135.944 1254.88,138.806 1272.18,142.072 1289.47,145.734 
  1306.77,149.784 1324.07,154.214 1341.37,159.015 1358.66,164.181 1375.96,169.702 1393.26,175.572 1410.56,181.781 1427.86,188.323 1445.15,195.189 1462.45,202.372 
  1479.75,209.864 1497.05,217.657 1514.34,225.744 1531.64,234.118 1548.94,242.77 1566.24,251.694 1583.53,260.882 1600.83,270.327 1618.13,280.022 1635.43,289.961 
  1652.73,300.136 1670.02,310.54 1687.32,321.167 1704.62,332.011 1721.92,343.064 1739.21,354.321 1756.51,365.775 1773.81,377.42 1791.11,389.25 1808.4,401.26 
  1825.7,413.443 1843,425.793 1860.3,438.306 1877.6,450.976 1894.89,463.797 1912.19,476.765 1929.49,489.874 1946.79,503.119 1964.08,516.496 1981.38,529.999 
  
  "/>
</svg>
