<svg width="4667" height="891" xmlns="http://www.w3.org/2000/svg" xmlns:xlink="http://www.w3.org/1999/xlink" overflow="hidden"><defs><clipPath id="clip0"><rect x="114" y="431" width="4667" height="891"/></clipPath></defs><g clip-path="url(#clip0)" transform="translate(-114 -431)"><path d="M114.5 1086.21 690.169 1086.21 690.169 1090.79 114.5 1090.79ZM690.167 1088.5 681 1074.75 708.5 1088.5 681 1102.25Z"/><text font-family="Lexend Deca,Lexend Deca_MSFontService,sans-serif" font-weight="700" font-size="83" transform="matrix(1 0 0 1 241.418 1182)">Input</text><path d="M1803.5 1086.21 2380.17 1086.21 2380.17 1090.79 1803.5 1090.79ZM2380.17 1088.5 2371 1074.75 2398.5 1088.5 2371 1102.25Z"/><text font-family="Lexend Deca,Lexend Deca_MSFontService,sans-serif" font-weight="700" font-size="83" transform="matrix(1 0 0 1 1829.85 1182)">Outputs</text><rect x="760.5" y="904.5" width="985" height="394" stroke="#787878" stroke-width="4.58333" stroke-miterlimit="8" fill="#A5A5A5"/><text fill="#FFFFFF" font-family="Lexend Deca,Lexend Deca_MSFontService,sans-serif" font-weight="700" font-size="92" transform="matrix(1 0 0 1 792.881 1024)">Transformation<tspan font-family="Wingdings,Wingdings_MSFontService,sans-serif" font-weight="400" font-size="92" x="0" y="110"></tspan><tspan font-size="92" x="123.75" y="110">Value Adding </tspan><tspan font-family="Wingdings,Wingdings_MSFontService,sans-serif" font-weight="400" font-size="92" x="0" y="220"></tspan><tspan font-size="92" x="123.75" y="220">Using Resources</tspan><tspan fill="#000000" font-weight="400" font-size="128" x="1365.26" y="-431">Potential MISMATCH</tspan><tspan fill="#000000" font-weight="400" font-size="128" x="1365.26" y="-277">of Supply and Demand</tspan></text><path d="M12.3659-6.01232 83.0037 139.272 58.272 151.297-12.3659 6.01232ZM101.723 114.882 100.699 207.114 27.5279 150.956Z" transform="matrix(-1 0 0 1 2513.7 826)"/><path d="M2425.5 1086.21 3002.17 1086.21 3002.17 1090.79 2425.5 1090.79ZM3002.17 1088.5 2993 1074.75 3020.5 1088.5 2993 1102.25Z"/><text font-family="Lexend Deca,Lexend Deca_MSFontService,sans-serif" font-weight="700" font-size="83" transform="matrix(1 0 0 1 2552.96 1182)">Input</text><rect x="3071.5" y="904.5" width="986" height="394" stroke="#787878" stroke-width="4.58333" stroke-miterlimit="8" fill="#A5A5A5"/><text fill="#FFFFFF" font-family="Lexend Deca,Lexend Deca_MSFontService,sans-serif" font-weight="700" font-size="92" transform="matrix(1 0 0 1 3104.42 1024)">Transformation<tspan font-family="Wingdings,Wingdings_MSFontService,sans-serif" font-weight="400" font-size="92" x="0" y="110"></tspan><tspan font-size="92" x="123.75" y="110">Value Adding </tspan><tspan font-family="Wingdings,Wingdings_MSFontService,sans-serif" font-weight="400" font-size="92" x="0" y="220"></tspan><tspan font-size="92" x="123.75" y="220">Using Resources</tspan></text><path d="M4157.5 1086.21 4734.17 1086.21 4734.17 1090.79 4157.5 1090.79ZM4734.17 1088.5 4725 1074.75 4752.5 1088.5 4725 1102.25Z"/><text font-family="Lexend Deca,Lexend Deca_MSFontService,sans-serif" font-weight="700" font-size="83" transform="matrix(1 0 0 1 4183.42 1182)">Outputs</text></g></svg>